<svg width="120" height="136" viewBox="0 0 120 136" fill="none" xmlns="http://www.w3.org/2000/svg">
<g id="_&#235;&#160;&#136;&#236;&#157;&#180;&#236;&#150;&#180;_1" opacity="0.3" clip-path="url(#clip0_1744_10569)">
<path id="Vector" d="M61.1036 44.3263L43.9092 0.621582L0.331543 23.4394L17.5259 67.1357L61.1036 44.3263Z" fill="#8B8B8B" stroke="black" stroke-miterlimit="10"/>
<g id="Group">
<path id="Vector_2" d="M17.5259 67.1351V112.771L61.1035 135.588L104.673 112.771V67.1351L61.1035 44.3257L17.5259 67.1351Z" fill="white" stroke="black" stroke-miterlimit="10"/>
<path id="Vector_3" d="M61.1035 89.9528L17.5259 67.1351L61.1035 44.3257L104.673 67.1351L61.1035 89.9528Z" fill="#8B8B8B" stroke="black" stroke-linejoin="round"/>
<g id="Group_2">
<path id="Vector_4" d="M87.5202 95.955C89.2258 95.955 90.6084 93.5532 90.6084 90.5905C90.6084 87.6278 89.2258 85.2261 87.5202 85.2261C85.8147 85.2261 84.4321 87.6278 84.4321 90.5905C84.4321 93.5532 85.8147 95.955 87.5202 95.955Z" fill="white"/>
<g id="Clip path group">
<mask id="mask0_1744_10569" style="mask-type:luminance" maskUnits="userSpaceOnUse" x="84" y="85" width="7" height="11">
<g id="clippath">
<path id="Vector_5" d="M87.5202 95.955C89.2258 95.955 90.6084 93.5532 90.6084 90.5905C90.6084 87.6278 89.2258 85.2261 87.5202 85.2261C85.8147 85.2261 84.4321 87.6278 84.4321 90.5905C84.4321 93.5532 85.8147 95.955 87.5202 95.955Z" fill="white"/>
</g>
</mask>
<g mask="url(#mask0_1744_10569)">
<g id="Group_3">
<path id="Vector_6" d="M89.2405 92.4964C90.2925 92.4964 91.1454 91.6432 91.1454 90.5907C91.1454 89.5383 90.2925 88.6851 89.2405 88.6851C88.1884 88.6851 87.3356 89.5383 87.3356 90.5907C87.3356 91.6432 88.1884 92.4964 89.2405 92.4964Z" fill="black" stroke="black" stroke-miterlimit="10"/>
</g>
</g>
</g>
<path id="Vector_7" d="M87.5202 95.955C89.2258 95.955 90.6084 93.5532 90.6084 90.5905C90.6084 87.6278 89.2258 85.2261 87.5202 85.2261C85.8147 85.2261 84.4321 87.6278 84.4321 90.5905C84.4321 93.5532 85.8147 95.955 87.5202 95.955Z" stroke="black" stroke-miterlimit="10"/>
</g>
<g id="Group_4">
<path id="Vector_8" d="M93.7049 93.3949C95.4105 93.3949 96.793 90.9932 96.793 88.0305C96.793 85.0678 95.4105 82.666 93.7049 82.666C91.9994 82.666 90.6168 85.0678 90.6168 88.0305C90.6168 90.9932 91.9994 93.3949 93.7049 93.3949Z" fill="white"/>
<g id="Clip path group_2">
<mask id="mask1_1744_10569" style="mask-type:luminance" maskUnits="userSpaceOnUse" x="90" y="82" width="7" height="12">
<g id="clippath-1">
<path id="Vector_9" d="M93.7049 93.3949C95.4105 93.3949 96.793 90.9932 96.793 88.0305C96.793 85.0678 95.4105 82.666 93.7049 82.666C91.9994 82.666 90.6168 85.0678 90.6168 88.0305C90.6168 90.9932 91.9994 93.3949 93.7049 93.3949Z" fill="white"/>
</g>
</mask>
<g mask="url(#mask1_1744_10569)">
<g id="Group_5">
<path id="Vector_10" d="M95.4252 89.9364C96.4772 89.9364 97.3301 89.0832 97.3301 88.0307C97.3301 86.9782 96.4772 86.125 95.4252 86.125C94.3731 86.125 93.5203 86.9782 93.5203 88.0307C93.5203 89.0832 94.3731 89.9364 95.4252 89.9364Z" fill="black" stroke="black" stroke-miterlimit="10"/>
</g>
</g>
</g>
<path id="Vector_11" d="M93.7049 93.3949C95.4105 93.3949 96.793 90.9932 96.793 88.0305C96.793 85.0678 95.4105 82.666 93.7049 82.666C91.9994 82.666 90.6168 85.0678 90.6168 88.0305C90.6168 90.9932 91.9994 93.3949 93.7049 93.3949Z" stroke="black" stroke-miterlimit="10"/>
</g>
<g id="Group_6">
<path id="Vector_12" d="M43.0616 97.3911L35.6099 104.838" stroke="black" stroke-miterlimit="10"/>
<path id="Vector_13" d="M33.7217 110.848C35.9973 110.848 37.842 109.003 37.842 106.726C37.842 104.45 35.9973 102.604 33.7217 102.604C31.4462 102.604 29.6014 104.45 29.6014 106.726C29.6014 109.003 31.4462 110.848 33.7217 110.848Z" fill="#C5C5C5" stroke="#231815" stroke-miterlimit="10"/>
</g>
</g>
<path id="Vector_14" d="M61.1035 44.3257V89.9528" stroke="black" stroke-linejoin="round"/>
<g id="Group 9797">
<path id="Vector 242" d="M67.0906 34.3775V26.0668" stroke="black"/>
<path id="Vector 244" d="M73.0069 40.254H81.3142" stroke="black"/>
<path id="Vector 243" d="M71.3286 36.0987L77.2027 30.2222" stroke="black"/>
</g>
</g>
<defs>
<clipPath id="clip0_1744_10569">
<rect width="120" height="136" fill="white"/>
</clipPath>
</defs>
</svg>
