<svg width="143" height="162" viewBox="0 0 143 162" fill="none" xmlns="http://www.w3.org/2000/svg">
<g clip-path="url(#clip0_1744_9594)">
<path d="M72.815 52.8002L52.325 0.740234L0.39502 27.9202L20.885 79.9702L72.815 52.8002Z" fill="#618BFF" stroke="black" stroke-miterlimit="10"/>
<path d="M20.885 79.9698V134.33L72.815 161.51L124.735 134.33V79.9698L72.815 52.7998L20.885 79.9698Z" fill="white" stroke="black" stroke-miterlimit="10"/>
<path d="M72.815 107.15L20.885 79.9698L72.815 52.7998L124.735 79.9698L72.815 107.15Z" fill="#618BFF" stroke="black" stroke-linejoin="round"/>
<path d="M104.295 114.3C106.327 114.3 107.975 111.439 107.975 107.91C107.975 104.38 106.327 101.52 104.295 101.52C102.263 101.52 100.615 104.38 100.615 107.91C100.615 111.439 102.263 114.3 104.295 114.3Z" fill="white"/>
<mask id="mask0_1744_9594" style="mask-type:luminance" maskUnits="userSpaceOnUse" x="100" y="101" width="8" height="14">
<path d="M104.295 114.3C106.327 114.3 107.975 111.439 107.975 107.91C107.975 104.38 106.327 101.52 104.295 101.52C102.263 101.52 100.615 104.38 100.615 107.91C100.615 111.439 102.263 114.3 104.295 114.3Z" fill="white"/>
</mask>
<g mask="url(#mask0_1744_9594)">
<path d="M106.345 110.18C107.599 110.18 108.615 109.163 108.615 107.91C108.615 106.656 107.599 105.64 106.345 105.64C105.091 105.64 104.075 106.656 104.075 107.91C104.075 109.163 105.091 110.18 106.345 110.18Z" fill="black" stroke="black" stroke-miterlimit="10"/>
</g>
<path d="M104.295 114.3C106.327 114.3 107.975 111.439 107.975 107.91C107.975 104.38 106.327 101.52 104.295 101.52C102.263 101.52 100.615 104.38 100.615 107.91C100.615 111.439 102.263 114.3 104.295 114.3Z" stroke="black" stroke-miterlimit="10"/>
<path d="M111.665 111.25C113.697 111.25 115.345 108.389 115.345 104.86C115.345 101.331 113.697 98.4697 111.665 98.4697C109.633 98.4697 107.985 101.331 107.985 104.86C107.985 108.389 109.633 111.25 111.665 111.25Z" fill="white"/>
<mask id="mask1_1744_9594" style="mask-type:luminance" maskUnits="userSpaceOnUse" x="107" y="98" width="9" height="14">
<path d="M111.665 111.25C113.697 111.25 115.345 108.389 115.345 104.86C115.345 101.331 113.697 98.4697 111.665 98.4697C109.633 98.4697 107.985 101.331 107.985 104.86C107.985 108.389 109.633 111.25 111.665 111.25Z" fill="white"/>
</mask>
<g mask="url(#mask1_1744_9594)">
<path d="M113.715 107.13C114.969 107.13 115.985 106.114 115.985 104.86C115.985 103.606 114.969 102.59 113.715 102.59C112.461 102.59 111.445 103.606 111.445 104.86C111.445 106.114 112.461 107.13 113.715 107.13Z" fill="black" stroke="black" stroke-miterlimit="10"/>
</g>
<path d="M111.665 111.25C113.697 111.25 115.345 108.389 115.345 104.86C115.345 101.331 113.697 98.4697 111.665 98.4697C109.633 98.4697 107.985 101.331 107.985 104.86C107.985 108.389 109.633 111.25 111.665 111.25Z" stroke="black" stroke-miterlimit="10"/>
<path d="M51.3151 116.01L42.4351 124.88" stroke="black" stroke-miterlimit="10"/>
<path d="M40.185 132.04C42.8967 132.04 45.095 129.841 45.095 127.13C45.095 124.418 42.8967 122.22 40.185 122.22C37.4733 122.22 35.275 124.418 35.275 127.13C35.275 129.841 37.4733 132.04 40.185 132.04Z" fill="#66FF95" stroke="#231815" stroke-miterlimit="10"/>
<path d="M72.8149 52.7998V107.15" stroke="black" stroke-linejoin="round"/>
<path d="M79.9497 40.9493V31.0498" stroke="black"/>
<path d="M87 47.9493H96.8995" stroke="black"/>
<path d="M85 42.9995L92 35.9995" stroke="black"/>
</g>
<defs>
<clipPath id="clip0_1744_9594">
<rect width="143" height="162" fill="white"/>
</clipPath>
</defs>
</svg>
