<svg width="74" height="66" viewBox="0 0 74 66" fill="none" xmlns="http://www.w3.org/2000/svg">
<g id="Layer_1" clip-path="url(#clip0_1744_9435)">
<g id="Group">
<path id="Vector" d="M11.13 6.62L5.92 1.41L0.71 6.62L0 5.92L5.92 0L11.84 5.92L11.13 6.62Z" fill="white"/>
<path id="Vector_2" d="M6.41992 0.709961H5.41992V13.32H6.41992V0.709961Z" fill="white"/>
</g>
<g id="Group_2">
<path id="Vector_3" d="M5.92 45.8798L0 39.9598L0.71 39.2598L5.92 44.4698L11.13 39.2598L11.84 39.9598L5.92 45.8798Z" fill="white"/>
<path id="Vector_4" d="M6.41992 32.5698H5.41992V45.1798H6.41992V32.5698Z" fill="white"/>
</g>
<g id="Group_3">
<path id="Vector_5" d="M54.4301 65.9602C52.1801 63.7102 47.4901 62.7102 42.5201 61.6602C38.2101 60.7402 33.7601 59.8002 30.6901 57.9302C30.6701 57.9202 28.0901 56.4002 26.7301 55.8802L15.2401 51.4402C14.1201 51.0102 11.5101 50.0002 12.2701 47.5402C12.9801 45.2602 15.2801 43.0302 18.6901 43.4802C19.1001 43.5402 23.8301 44.4302 27.7301 45.1702C28.3401 45.2802 28.8701 45.0502 29.1401 44.5402C29.3701 44.1102 29.4201 43.3902 28.8101 42.7702L4.4101 25.6302C3.4501 24.6802 2.9701 23.5502 3.0001 22.3802C3.0201 21.2502 3.5001 20.1602 4.3501 19.3102C6.1501 17.5102 8.7601 17.4902 10.5701 19.2602L29.3101 30.7502L28.7901 31.6002L9.9101 20.0102C8.5101 18.6102 6.4701 18.6102 5.0601 20.0102C4.3901 20.6802 4.0201 21.5202 4.0001 22.3902C3.9801 23.3002 4.3501 24.1502 5.0601 24.8602L29.4601 42.0002C30.3501 42.8802 30.5501 44.0302 30.0401 45.0002C29.5701 45.8902 28.5901 46.3402 27.5601 46.1502C22.0701 45.1102 18.8801 44.5102 18.5701 44.4702C15.7501 44.0802 13.8301 45.9402 13.2401 47.8302C12.8901 48.9602 13.5501 49.7102 15.6201 50.5002L27.1101 54.9402C28.5401 55.4902 31.1101 57.0002 31.2201 57.0702C34.1501 58.8502 38.5201 59.7802 42.7401 60.6802C47.8601 61.7702 52.6901 62.8002 55.1501 65.2602L54.4401 65.9702L54.4301 65.9602Z" fill="white"/>
<path id="Vector_6" d="M28.7001 31.5203L23.2401 26.0603C21.4301 24.2503 21.4301 21.6103 23.2401 19.7903C25.0601 17.9703 27.6901 17.9703 29.5101 19.7903L36.1801 26.4603L35.4701 27.1703L28.8001 20.5003C27.4001 19.1003 25.3501 19.1003 23.9501 20.5003C22.5401 21.9103 22.5401 23.9503 23.9501 25.3503L29.4101 30.8103L28.7001 31.5203Z" fill="white"/>
<g id="Group_4">
<path id="Vector_7" d="M72.5901 47.8001L70.8501 46.0601C68.8401 44.1001 67.2501 41.1201 65.5601 37.9601C64.0001 35.0401 62.4001 32.0201 60.4401 29.9201L47.5801 17.0401L48.2901 16.3301L61.1601 29.2201C63.2101 31.4301 64.8501 34.5101 66.4401 37.4901C68.0901 40.5801 69.6401 43.5001 71.5501 45.3501L73.3001 47.1001L72.5901 47.8101V47.8001Z" fill="white"/>
<g id="Group_5">
<path id="Vector_8" d="M35.48 27.1703L31.24 22.9303C30.35 22.0403 29.87 20.9003 29.89 19.7403C29.91 18.6103 30.39 17.5203 31.24 16.6703C32.09 15.8203 33.18 15.3403 34.31 15.3203C35.49 15.3203 36.61 15.7803 37.5 16.6703L42.96 22.1303L42.25 22.8403L36.79 17.3803C36.08 16.6703 35.22 16.3103 34.32 16.3203C33.45 16.3403 32.6 16.7103 31.94 17.3803C31.27 18.0503 30.9 18.8903 30.88 19.7603C30.86 20.6703 31.23 21.5203 31.94 22.2303L36.18 26.4703L35.47 27.1803L35.48 27.1703Z" fill="white"/>
<path id="Vector_9" d="M42.1501 22.7202L40.3301 20.9002C39.4401 20.0102 38.9601 18.8702 38.9801 17.7102C39.0001 16.5802 39.4801 15.4902 40.3301 14.6402C41.1801 13.7902 42.2701 13.3102 43.4001 13.2902C44.5601 13.2702 45.7001 13.7502 46.5901 14.6402L49.6201 17.6702L48.9101 18.3802L45.8801 15.3502C45.1701 14.6402 44.3301 14.3002 43.4101 14.2902C42.5401 14.3102 41.6901 14.6802 41.0301 15.3502C40.3601 16.0202 39.9901 16.8602 39.9701 17.7302C39.9501 18.6402 40.3201 19.4902 41.0301 20.2002L42.8501 22.0202L42.1401 22.7302L42.1501 22.7202Z" fill="white"/>
</g>
</g>
</g>
</g>
<defs>
<clipPath id="clip0_1744_9435">
<rect width="73.3" height="65.96" fill="white"/>
</clipPath>
</defs>
</svg>
