<svg width="53" height="37" viewBox="0 0 53 37" fill="none" xmlns="http://www.w3.org/2000/svg">
<g style="mix-blend-mode:luminosity" opacity="0.3" clip-path="url(#clip0_1744_9270)">
<path d="M51.6529 2.97049H35.3551C35.032 1.57098 33.5142 0.499023 32.4022 0.499023H20.9209C19.8088 0.499023 17.9829 1.57098 17.5997 2.97049H1.34706C0.723405 2.97049 0.219971 3.46925 0.219971 4.08711V35.3824C0.219971 36.0003 0.723405 36.499 1.34706 36.499H51.6529C52.2765 36.499 52.78 36.0003 52.78 35.3824V4.08711C52.78 3.46925 52.2765 2.97049 51.6529 2.97049Z" fill="#C6C6C6"/>
<path d="M26.5039 31.3037C32.7618 31.3037 37.8349 26.2777 37.8349 20.0779C37.8349 13.878 32.7618 8.85205 26.5039 8.85205C20.2459 8.85205 15.1729 13.878 15.1729 20.0779C15.1729 26.2777 20.2459 31.3037 26.5039 31.3037Z" fill="#F5F5F5"/>
<path d="M52.78 9.90234H0.219971V11.3912H52.78V9.90234Z" fill="#F5F5F5"/>
<path d="M26.5037 32.5617C19.5533 32.5617 13.8953 26.9563 13.8953 20.0704C13.8953 13.1846 19.5533 7.5791 26.5037 7.5791C33.454 7.5791 39.112 13.1846 39.112 20.0704C39.112 26.9563 33.454 32.5617 26.5037 32.5617ZM26.5037 9.07538C20.3798 9.07538 15.3981 14.0109 15.3981 20.0779C15.3981 26.1449 20.3798 31.0803 26.5037 31.0803C32.6275 31.0803 37.6093 26.1449 37.6093 20.0779C37.6093 14.0109 32.6275 9.07538 26.5037 9.07538Z" fill="#C6C6C6"/>
<path d="M32.1695 25.6874C35.2975 22.5884 35.2975 17.5639 32.1695 14.4649C29.0414 11.3659 23.9698 11.3659 20.8418 14.4649C17.7138 17.5639 17.7138 22.5884 20.8418 25.6874C23.9698 28.7864 29.0414 28.7864 32.1695 25.6874Z" fill="#F2F2F2"/>
<path d="M26.5047 28.7612C21.6732 28.7612 17.7434 24.8679 17.7434 20.0813C17.7434 15.2947 21.6732 11.4014 26.5047 11.4014C31.3361 11.4014 35.2659 15.2947 35.2659 20.0813C35.2659 24.8679 31.3361 28.7612 26.5047 28.7612ZM26.5047 12.8828C22.4997 12.8828 19.2462 16.1061 19.2462 20.0738C19.2462 24.0416 22.4997 27.2649 26.5047 27.2649C30.5096 27.2649 33.7631 24.0341 33.7631 20.0738C33.7631 16.1135 30.5096 12.8828 26.5047 12.8828Z" fill="#C6C6C6"/>
<path d="M31.0426 17.6454C30.9825 17.5337 30.8698 17.4593 30.7421 17.4519C30.6144 17.4444 30.4941 17.4965 30.4115 17.5933C29.9306 18.2037 29.2017 18.5536 28.4203 18.5536C27.0302 18.5536 25.8956 17.4295 25.8956 16.0524C25.8956 15.8663 25.9181 15.6801 25.9632 15.4866C25.9933 15.3675 25.9632 15.2335 25.8655 15.1442C25.7754 15.0548 25.6476 15.0102 25.5274 15.0399C23.1154 15.5015 21.3572 17.6007 21.3572 20.0424C21.3572 22.8489 23.664 25.1342 26.4967 25.1342C29.3295 25.1342 31.6362 22.8489 31.6362 20.0424C31.6362 19.2087 31.4259 18.3824 31.0351 17.6529L31.0426 17.6454Z" fill="#F5F5F5"/>
<path d="M9.58224 17.0129H4.51033C3.77397 17.0129 3.17285 16.4174 3.17285 15.6879C3.17285 14.9583 3.77397 14.3628 4.51033 14.3628H9.58224C10.3186 14.3628 10.9197 14.9583 10.9197 15.6879C10.9197 16.4174 10.3186 17.0129 9.58224 17.0129Z" fill="#F5F5F5"/>
</g>
<defs>
<clipPath id="clip0_1744_9270">
<rect width="52.56" height="36" fill="white" transform="translate(0.219971 0.5)"/>
</clipPath>
</defs>
</svg>
