<svg width="21" height="22" viewBox="0 0 21 22" fill="none" xmlns="http://www.w3.org/2000/svg">
<g clip-path="url(#clip0_1744_19109)">
<path d="M14.8577 5.39187C12.3029 5.39187 10.2373 3.29048 10.2373 0.691406C10.2373 3.29048 8.17173 5.39187 5.61694 5.39187C8.17173 5.39187 10.2373 7.49325 10.2373 10.0923C10.2373 7.49325 12.3029 5.39187 14.8577 5.39187Z" fill="white" stroke="#FF4170" stroke-width="1.3" stroke-linecap="round" stroke-linejoin="round"/>
<path d="M16.0717 21.3082C18.4183 21.3082 20.3206 19.373 20.3206 16.9857C20.3206 14.5984 18.4183 12.6631 16.0717 12.6631C13.7251 12.6631 11.8228 14.5984 11.8228 16.9857C11.8228 19.373 13.7251 21.3082 16.0717 21.3082Z" fill="white" stroke="#FF4170" stroke-width="1.3" stroke-linecap="round" stroke-linejoin="round"/>
<path d="M7.97192 20.7098L7.97192 13.2812H0.66994L0.66994 20.7098H7.97192Z" fill="white" stroke="#FF4170" stroke-width="1.3" stroke-linecap="round" stroke-linejoin="round"/>
</g>
<defs>
<clipPath id="clip0_1744_19109">
<rect width="21" height="22" fill="white"/>
</clipPath>
</defs>
</svg>
