<svg width="142" height="142" viewBox="0 0 142 142" fill="none" xmlns="http://www.w3.org/2000/svg">
<g clip-path="url(#clip0_1429_12478)">
<rect width="142" height="142" fill="#FF61CF"/>
<g clip-path="url(#clip1_1429_12478)">
<path d="M28.1602 12.0273L28.1602 27.5272" stroke="black" stroke-width="1.09231" stroke-miterlimit="10"/>
<path d="M28.1602 30.8809L28.1602 46.3807" stroke="black" stroke-width="1.09231" stroke-miterlimit="10"/>
<path d="M45.3416 29.1992L29.8418 29.1992" stroke="black" stroke-width="1.09231" stroke-miterlimit="10"/>
<path d="M26.4881 29.1992L10.9883 29.1992" stroke="black" stroke-width="1.09231" stroke-miterlimit="10"/>
<path d="M72.2012 12.0273L72.2012 27.5272" stroke="black" stroke-width="1.09231" stroke-miterlimit="10"/>
<path d="M72.2012 30.8809L72.2012 46.3807" stroke="black" stroke-width="1.09231" stroke-miterlimit="10"/>
<path d="M89.3827 29.1992L73.8828 29.1992" stroke="black" stroke-width="1.09231" stroke-miterlimit="10"/>
<path d="M70.5194 29.1992L55.0195 29.1992" stroke="black" stroke-width="1.09231" stroke-miterlimit="10"/>
<path d="M116.242 12.0273L116.242 27.5272" stroke="black" stroke-width="1.09231" stroke-miterlimit="10"/>
<path d="M116.242 30.8809L116.242 46.3807" stroke="black" stroke-width="1.09231" stroke-miterlimit="10"/>
<path d="M133.424 29.1992L117.924 29.1992" stroke="black" stroke-width="1.09231" stroke-miterlimit="10"/>
<path d="M114.56 29.1992L99.0605 29.1992" stroke="black" stroke-width="1.09231" stroke-miterlimit="10"/>
<path d="M28.1602 55.9023L28.1602 71.4022" stroke="black" stroke-width="1.09231" stroke-miterlimit="10"/>
<path d="M28.1602 74.7559L28.1602 90.2557" stroke="black" stroke-width="1.09231" stroke-miterlimit="10"/>
<path d="M45.3416 73.084L29.8418 73.084" stroke="black" stroke-width="1.09231" stroke-miterlimit="10"/>
<path d="M26.4881 73.084L10.9883 73.084" stroke="black" stroke-width="1.09231" stroke-miterlimit="10"/>
<path d="M72.2012 55.9023L72.2012 71.4022" stroke="black" stroke-width="1.09231" stroke-miterlimit="10"/>
<path d="M72.2012 74.7559L72.2012 90.2557" stroke="black" stroke-width="1.09231" stroke-miterlimit="10"/>
<path d="M89.3827 73.084L73.8828 73.084" stroke="black" stroke-width="1.09231" stroke-miterlimit="10"/>
<path d="M70.5194 73.084L55.0195 73.084" stroke="black" stroke-width="1.09231" stroke-miterlimit="10"/>
<path d="M116.242 55.9023L116.242 71.4022" stroke="black" stroke-width="1.09231" stroke-miterlimit="10"/>
<path d="M116.242 74.7559L116.242 90.2557" stroke="black" stroke-width="1.09231" stroke-miterlimit="10"/>
<path d="M133.424 73.084L117.924 73.084" stroke="black" stroke-width="1.09231" stroke-miterlimit="10"/>
<path d="M114.56 73.084L99.0605 73.084" stroke="black" stroke-width="1.09231" stroke-miterlimit="10"/>
<path d="M28.1602 99.7832L28.1602 115.283" stroke="black" stroke-width="1.09231" stroke-miterlimit="10"/>
<path d="M28.1602 118.637L28.1602 134.137" stroke="black" stroke-width="1.09231" stroke-miterlimit="10"/>
<path d="M45.3416 116.965L29.8418 116.965" stroke="black" stroke-width="1.09231" stroke-miterlimit="10"/>
<path d="M26.4881 116.965L10.9883 116.965" stroke="black" stroke-width="1.09231" stroke-miterlimit="10"/>
<path d="M72.2012 99.7832L72.2012 115.283" stroke="black" stroke-width="1.09231" stroke-miterlimit="10"/>
<path d="M72.2012 118.637L72.2012 134.137" stroke="black" stroke-width="1.09231" stroke-miterlimit="10"/>
<path d="M89.3827 116.965L73.8828 116.965" stroke="black" stroke-width="1.09231" stroke-miterlimit="10"/>
<path d="M70.5194 116.965L55.0195 116.965" stroke="black" stroke-width="1.09231" stroke-miterlimit="10"/>
<path d="M116.242 99.7832L116.242 115.283" stroke="black" stroke-width="1.09231" stroke-miterlimit="10"/>
<path d="M116.242 118.637L116.242 134.137" stroke="black" stroke-width="1.09231" stroke-miterlimit="10"/>
<path d="M133.424 116.965L117.924 116.965" stroke="black" stroke-width="1.09231" stroke-miterlimit="10"/>
<path d="M114.56 116.965L99.0605 116.965" stroke="black" stroke-width="1.09231" stroke-miterlimit="10"/>
</g>
<path d="M7.38759 65.2801C2.79063 63.6265 -0.5 59.2198 -0.5 54.0606H6.11433C6.11433 56.9874 8.49549 59.3603 11.4223 59.3686C12.8362 59.3686 14.1673 58.8146 15.176 57.8142C16.1847 56.8138 16.7303 55.4827 16.7303 54.0606C16.7303 50.8774 17.9705 47.8844 20.2194 45.6356C22.4683 43.3867 25.4613 42.1465 28.6444 42.1465C31.8276 42.1465 34.8205 43.3867 37.0694 45.6356C39.3183 47.8844 40.5585 50.8774 40.5585 54.0606H33.9441C33.9441 52.6468 33.3902 51.3073 32.3898 50.3069C31.3894 49.3065 30.0582 48.7525 28.6361 48.7525C27.2223 48.7525 25.8829 49.3065 24.8825 50.3069C23.8821 51.3073 23.3281 52.6385 23.3281 54.0606C23.3281 60.6336 17.9788 65.9829 11.4058 65.9829C9.99199 65.9829 8.63605 65.7348 7.37933 65.2801H7.38759Z" fill="#FFFF45" stroke="black" stroke-width="0.826792" stroke-miterlimit="10"/>
<path d="M134.648 65.2793C139.237 63.6257 142.536 59.2272 142.536 54.0763C142.536 54.0763 142.536 54.0598 142.519 54.0598H135.913C135.913 56.9866 133.532 59.3595 130.605 59.3678C128.266 59.3678 126.157 57.863 125.38 55.3082C125.297 55.0354 125.281 54.7543 125.289 54.4732C125.446 49.8101 122.941 45.4942 118.493 43.2536C118.121 43.0635 117.732 42.9064 117.335 42.7823C112.763 41.3107 108.125 42.4681 104.95 45.643C102.701 47.8919 101.461 50.8849 101.461 54.068H108.075C108.075 52.6542 108.629 51.3148 109.63 50.3144C110.63 49.314 111.961 48.76 113.383 48.76C115.723 48.76 117.823 50.2648 118.6 52.8031C118.683 53.0759 118.7 53.3735 118.691 53.6629C118.468 60.4178 123.9 65.9821 130.605 65.9821C132.019 65.9821 133.375 65.734 134.632 65.2793H134.648Z" fill="#FFFF45" stroke="black" stroke-width="0.826792" stroke-miterlimit="10"/>
<path d="M87.2388 140.436L115.962 60.7168H27.0566L55.7794 140.436C61.0874 155.178 81.9308 155.178 87.2388 140.436Z" fill="#B576FF" stroke="black" stroke-width="0.826792" stroke-miterlimit="10"/>
<path d="M71.4648 74.8212C96.2367 74.8212 116.318 67.8325 116.318 59.2114C116.318 50.5903 96.2367 43.6016 71.4648 43.6016C46.6929 43.6016 26.6113 50.5903 26.6113 59.2114C26.6113 67.8325 46.6929 74.8212 71.4648 74.8212Z" fill="#FFFF45" stroke="black" stroke-width="0.826792" stroke-miterlimit="10"/>
<path d="M67.546 100.467C69.7104 100.467 71.4649 97.4247 71.4649 93.6712C71.4649 89.9178 69.7104 86.875 67.546 86.875C65.3816 86.875 63.627 89.9178 63.627 93.6712C63.627 97.4247 65.3816 100.467 67.546 100.467Z" fill="white"/>
<mask id="mask0_1429_12478" style="mask-type:luminance" maskUnits="userSpaceOnUse" x="63" y="86" width="9" height="15">
<path d="M67.546 100.467C69.7104 100.467 71.4649 97.4247 71.4649 93.6712C71.4649 89.9178 69.7104 86.875 67.546 86.875C65.3816 86.875 63.627 89.9178 63.627 93.6712C63.627 97.4247 65.3816 100.467 67.546 100.467Z" fill="white"/>
</mask>
<g mask="url(#mask0_1429_12478)">
<path d="M65.3713 96.0862C66.7046 96.0862 67.7855 95.0054 67.7855 93.672C67.7855 92.3387 66.7046 91.2578 65.3713 91.2578C64.0379 91.2578 62.957 92.3387 62.957 93.672C62.957 95.0054 64.0379 96.0862 65.3713 96.0862Z" fill="black" stroke="black" stroke-width="0.826792" stroke-miterlimit="10"/>
</g>
<path d="M67.546 100.467C69.7104 100.467 71.4649 97.4247 71.4649 93.6712C71.4649 89.9178 69.7104 86.875 67.546 86.875C65.3816 86.875 63.627 89.9178 63.627 93.6712C63.627 97.4247 65.3816 100.467 67.546 100.467Z" stroke="black" stroke-width="0.826792" stroke-miterlimit="10"/>
<path d="M59.7159 100.467C61.8803 100.467 63.6349 97.4247 63.6349 93.6712C63.6349 89.9178 61.8803 86.875 59.7159 86.875C57.5515 86.875 55.7969 89.9178 55.7969 93.6712C55.7969 97.4247 57.5515 100.467 59.7159 100.467Z" fill="white"/>
<mask id="mask1_1429_12478" style="mask-type:luminance" maskUnits="userSpaceOnUse" x="55" y="86" width="9" height="15">
<path d="M59.7159 100.467C61.8803 100.467 63.6349 97.4247 63.6349 93.6712C63.6349 89.9178 61.8803 86.875 59.7159 86.875C57.5515 86.875 55.7969 89.9178 55.7969 93.6712C55.7969 97.4247 57.5515 100.467 59.7159 100.467Z" fill="white"/>
</mask>
<g mask="url(#mask1_1429_12478)">
<path d="M57.5334 96.0862C58.8667 96.0862 59.9476 95.0054 59.9476 93.672C59.9476 92.3387 58.8667 91.2578 57.5334 91.2578C56.2 91.2578 55.1191 92.3387 55.1191 93.672C55.1191 95.0054 56.2 96.0862 57.5334 96.0862Z" fill="black" stroke="black" stroke-width="0.826792" stroke-miterlimit="10"/>
</g>
<path d="M59.7159 100.467C61.8803 100.467 63.6349 97.4247 63.6349 93.6712C63.6349 89.9178 61.8803 86.875 59.7159 86.875C57.5515 86.875 55.7969 89.9178 55.7969 93.6712C55.7969 97.4247 57.5515 100.467 59.7159 100.467Z" stroke="black" stroke-width="0.826792" stroke-miterlimit="10"/>
<path d="M59.6993 86.8848C57.6158 86.8848 55.9126 89.7124 55.7969 93.2759C55.7969 93.2759 57.5414 93.6728 59.7159 93.2759C61.8903 92.879 63.4199 91.5313 63.4199 91.5313C62.899 88.836 61.4356 86.8848 59.7076 86.8848H59.6993Z" fill="#B576FF" stroke="black" stroke-width="0.826792" stroke-miterlimit="10"/>
<path d="M53.6797 92.209C53.6797 92.209 54.6884 93.2673 55.7963 93.2673L53.6797 92.209Z" fill="white"/>
<path d="M53.6797 92.209C53.6797 92.209 54.6884 93.2673 55.7963 93.2673" stroke="black" stroke-width="0.826792" stroke-miterlimit="10"/>
<path d="M67.578 86.8848C69.6615 86.8848 71.3647 89.7124 71.4804 93.2759C71.4804 93.2759 69.7359 93.6728 67.5615 93.2759C65.387 92.879 63.8574 91.5313 63.8574 91.5313C64.3783 88.836 65.8417 86.8848 67.5697 86.8848H67.578Z" fill="#B576FF" stroke="black" stroke-width="0.826792" stroke-miterlimit="10"/>
<path d="M73.6049 92.209C73.6049 92.209 72.5962 93.2673 71.4883 93.2673L73.6049 92.209Z" fill="white"/>
<path d="M73.6049 92.209C73.6049 92.209 72.5962 93.2673 71.4883 93.2673" stroke="black" stroke-width="0.826792" stroke-miterlimit="10"/>
<path d="M63.626 114.309C65.7904 114.309 67.545 112.554 67.545 110.39C67.545 108.225 65.7904 106.471 63.626 106.471C61.4616 106.471 59.707 108.225 59.707 110.39C59.707 112.554 61.4616 114.309 63.626 114.309Z" fill="#F7476C" stroke="black" stroke-width="0.826792" stroke-miterlimit="10"/>
<path d="M63.626 105.512C63.626 107.744 61.8153 109.563 59.5747 109.563C57.3341 109.563 55.5234 107.752 55.5234 105.512" fill="#B576FF"/>
<path d="M63.626 105.512C63.626 107.744 61.8153 109.563 59.5747 109.563C57.3341 109.563 55.5234 107.752 55.5234 105.512" stroke="black" stroke-width="0.826792" stroke-miterlimit="10"/>
<path d="M71.7276 105.512C71.7276 107.744 69.9169 109.563 67.6763 109.563C65.4357 109.563 63.625 107.752 63.625 105.512" fill="#B576FF"/>
<path d="M71.7276 105.512C71.7276 107.744 69.9169 109.563 67.6763 109.563C65.4357 109.563 63.625 107.752 63.625 105.512" stroke="black" stroke-width="0.826792" stroke-miterlimit="10"/>
<path d="M110.14 38.1729L105.441 36.4805L97.324 59.0152L102.022 60.7076L110.14 38.1729Z" fill="#66FF95" stroke="#231815" stroke-width="0.826792" stroke-miterlimit="10"/>
<path d="M40.5673 60.6846L45.2656 58.9922L37.1482 36.4575L32.4499 38.1499L40.5673 60.6846Z" fill="#FF0083" stroke="black" stroke-width="0.826792" stroke-miterlimit="10"/>
<path d="M50.0595 57.2744L54.7578 55.582L46.6404 33.0473L41.9421 34.7397L50.0595 57.2744Z" fill="#B576FF" stroke="black" stroke-width="0.826792" stroke-miterlimit="10"/>
<path d="M80.012 52.2077C80.9162 52.2077 81.6491 51.4747 81.6491 50.5706C81.6491 49.6665 80.9162 48.9336 80.012 48.9336C79.1079 48.9336 78.375 49.6665 78.375 50.5706C78.375 51.4747 79.1079 52.2077 80.012 52.2077Z" fill="#FF0083" stroke="black" stroke-width="0.826792" stroke-miterlimit="10"/>
<path d="M87.7526 48.5208C89.8348 48.5208 91.5228 46.8328 91.5228 44.7506C91.5228 42.6684 89.8348 40.9805 87.7526 40.9805C85.6704 40.9805 83.9824 42.6684 83.9824 44.7506C83.9824 46.8328 85.6704 48.5208 87.7526 48.5208Z" fill="#FF0083" stroke="black" stroke-width="0.826792" stroke-miterlimit="10"/>
<path d="M82.4857 37.6568C83.3124 37.3013 84.1144 36.921 84.7345 36.6234C86.5121 35.7635 87.9177 34.9946 89.1496 34.2009C90.4229 33.3906 92.1922 32.0347 92.8619 29.7197C93.5316 27.4046 92.1508 24.916 89.8276 24.2463C88.2815 23.7998 86.7188 24.2215 85.6192 25.2302C85.2223 23.7998 84.1144 22.6093 82.5683 22.1711C80.245 21.5013 77.7729 22.8573 77.095 25.2054C76.417 27.5535 77.2107 29.6121 77.8639 30.9764C78.484 32.3075 79.2694 33.7048 80.3195 35.3749C80.6832 35.9536 81.1628 36.706 81.6754 37.4419L81.9813 37.8801L82.4774 37.6734L82.4857 37.6568Z" fill="#FF0083" stroke="black" stroke-width="0.826792" stroke-miterlimit="10"/>
</g>
<defs>
<clipPath id="clip0_1429_12478">
<rect width="142" height="142" fill="white"/>
</clipPath>
<clipPath id="clip1_1429_12478">
<rect width="541.85" height="541.85" fill="white" transform="translate(-0.546875)"/>
</clipPath>
</defs>
</svg>
