<svg width="142" height="142" viewBox="0 0 142 142" fill="none" xmlns="http://www.w3.org/2000/svg">
<g clip-path="url(#clip0_1429_9276)">
<rect width="142" height="142" fill="#FF4A4A"/>
<g clip-path="url(#clip1_1429_9276)">
<path d="M27.1602 12.0273L27.1602 27.5272" stroke="black" stroke-width="1.09231" stroke-miterlimit="10"/>
<path d="M27.1602 30.8809L27.1602 46.3807" stroke="black" stroke-width="1.09231" stroke-miterlimit="10"/>
<path d="M44.3416 29.1992L28.8418 29.1992" stroke="black" stroke-width="1.09231" stroke-miterlimit="10"/>
<path d="M25.4881 29.1992L9.98828 29.1992" stroke="black" stroke-width="1.09231" stroke-miterlimit="10"/>
<path d="M71.2012 12.0273L71.2012 27.5272" stroke="black" stroke-width="1.09231" stroke-miterlimit="10"/>
<path d="M71.2012 30.8809L71.2012 46.3807" stroke="black" stroke-width="1.09231" stroke-miterlimit="10"/>
<path d="M88.3827 29.1992L72.8828 29.1992" stroke="black" stroke-width="1.09231" stroke-miterlimit="10"/>
<path d="M69.5194 29.1992L54.0195 29.1992" stroke="black" stroke-width="1.09231" stroke-miterlimit="10"/>
<path d="M115.242 12.0273L115.242 27.5272" stroke="black" stroke-width="1.09231" stroke-miterlimit="10"/>
<path d="M115.242 30.8809L115.242 46.3807" stroke="black" stroke-width="1.09231" stroke-miterlimit="10"/>
<path d="M132.424 29.1992L116.924 29.1992" stroke="black" stroke-width="1.09231" stroke-miterlimit="10"/>
<path d="M113.56 29.1992L98.0605 29.1992" stroke="black" stroke-width="1.09231" stroke-miterlimit="10"/>
<path d="M27.1602 55.9023L27.1602 71.4022" stroke="black" stroke-width="1.09231" stroke-miterlimit="10"/>
<path d="M27.1602 74.7559L27.1602 90.2557" stroke="black" stroke-width="1.09231" stroke-miterlimit="10"/>
<path d="M44.3416 73.084L28.8418 73.084" stroke="black" stroke-width="1.09231" stroke-miterlimit="10"/>
<path d="M25.4881 73.084L9.98828 73.084" stroke="black" stroke-width="1.09231" stroke-miterlimit="10"/>
<path d="M71.2012 55.9023L71.2012 71.4022" stroke="black" stroke-width="1.09231" stroke-miterlimit="10"/>
<path d="M71.2012 74.7559L71.2012 90.2557" stroke="black" stroke-width="1.09231" stroke-miterlimit="10"/>
<path d="M88.3827 73.084L72.8828 73.084" stroke="black" stroke-width="1.09231" stroke-miterlimit="10"/>
<path d="M69.5194 73.084L54.0195 73.084" stroke="black" stroke-width="1.09231" stroke-miterlimit="10"/>
<path d="M115.242 55.9023L115.242 71.4022" stroke="black" stroke-width="1.09231" stroke-miterlimit="10"/>
<path d="M115.242 74.7559L115.242 90.2557" stroke="black" stroke-width="1.09231" stroke-miterlimit="10"/>
<path d="M132.424 73.084L116.924 73.084" stroke="black" stroke-width="1.09231" stroke-miterlimit="10"/>
<path d="M113.56 73.084L98.0605 73.084" stroke="black" stroke-width="1.09231" stroke-miterlimit="10"/>
<path d="M27.1602 99.7832L27.1602 115.283" stroke="black" stroke-width="1.09231" stroke-miterlimit="10"/>
<path d="M27.1602 118.637L27.1602 134.137" stroke="black" stroke-width="1.09231" stroke-miterlimit="10"/>
<path d="M44.3416 116.965L28.8418 116.965" stroke="black" stroke-width="1.09231" stroke-miterlimit="10"/>
<path d="M25.4881 116.965L9.98828 116.965" stroke="black" stroke-width="1.09231" stroke-miterlimit="10"/>
<path d="M71.2012 99.7832L71.2012 115.283" stroke="black" stroke-width="1.09231" stroke-miterlimit="10"/>
<path d="M71.2012 118.637L71.2012 134.137" stroke="black" stroke-width="1.09231" stroke-miterlimit="10"/>
<path d="M88.3827 116.965L72.8828 116.965" stroke="black" stroke-width="1.09231" stroke-miterlimit="10"/>
<path d="M69.5194 116.965L54.0195 116.965" stroke="black" stroke-width="1.09231" stroke-miterlimit="10"/>
<path d="M115.242 99.7832L115.242 115.283" stroke="black" stroke-width="1.09231" stroke-miterlimit="10"/>
<path d="M115.242 118.637L115.242 134.137" stroke="black" stroke-width="1.09231" stroke-miterlimit="10"/>
<path d="M132.424 116.965L116.924 116.965" stroke="black" stroke-width="1.09231" stroke-miterlimit="10"/>
<path d="M113.56 116.965L98.0605 116.965" stroke="black" stroke-width="1.09231" stroke-miterlimit="10"/>
</g>
<path d="M71.6202 158.55C100.639 158.55 124.164 134.552 124.164 104.949C124.164 75.3458 100.639 51.3477 71.6202 51.3477C42.6009 51.3477 19.0762 75.3458 19.0762 104.949C19.0762 134.552 42.6009 158.55 71.6202 158.55Z" fill="#618BFF" stroke="black" stroke-width="1.27379" stroke-miterlimit="10"/>
<path d="M62.0664 61.6914C62.0664 67.0923 66.3591 71.4741 71.6581 71.4741C76.9571 71.4741 81.2497 67.0923 81.2497 61.6914" fill="#618BFF"/>
<path d="M62.0664 61.6914C62.0664 67.0923 66.3591 71.4741 71.6581 71.4741C76.9571 71.4741 81.2497 67.0923 81.2497 61.6914" stroke="black" stroke-width="1.27379" stroke-miterlimit="10"/>
<path d="M71.6591 12C71.6591 19.4644 65.7232 25.5277 58.3989 25.5277C51.0746 25.5277 45.1387 19.4772 45.1387 12H71.6591Z" fill="#66FF95" stroke="#231815" stroke-width="1.27379" stroke-miterlimit="10"/>
<path d="M71.6582 71.4734V12" stroke="black" stroke-width="1.27379" stroke-miterlimit="10"/>
<path d="M78.576 105.471C82.4171 105.471 85.5309 99.9563 85.5309 93.1535C85.5309 86.3507 82.4171 80.8359 78.576 80.8359C74.7349 80.8359 71.6211 86.3507 71.6211 93.1535C71.6211 99.9563 74.7349 105.471 78.576 105.471Z" fill="white"/>
<mask id="mask0_1429_9276" style="mask-type:luminance" maskUnits="userSpaceOnUse" x="71" y="80" width="15" height="26">
<path d="M78.576 105.471C82.4171 105.471 85.5309 99.9563 85.5309 93.1535C85.5309 86.3507 82.4171 80.8359 78.576 80.8359C74.7349 80.8359 71.6211 86.3507 71.6211 93.1535C71.6211 99.9563 74.7349 105.471 78.576 105.471Z" fill="white"/>
</mask>
<g mask="url(#mask0_1429_9276)">
<path d="M82.4353 97.5234C84.806 97.5234 86.7279 95.5673 86.7279 93.1543C86.7279 90.7413 84.806 88.7852 82.4353 88.7852C80.0645 88.7852 78.1426 90.7413 78.1426 93.1543C78.1426 95.5673 80.0645 97.5234 82.4353 97.5234Z" fill="black" stroke="black" stroke-width="1.27379" stroke-miterlimit="10"/>
</g>
<path d="M78.576 105.471C82.4171 105.471 85.5309 99.9563 85.5309 93.1535C85.5309 86.3507 82.4171 80.8359 78.576 80.8359C74.7349 80.8359 71.6211 86.3507 71.6211 93.1535C71.6211 99.9563 74.7349 105.471 78.576 105.471Z" stroke="black" stroke-width="1.27379" stroke-miterlimit="10"/>
<path d="M92.4979 105.471C96.339 105.471 99.4528 99.9563 99.4528 93.1535C99.4528 86.3507 96.339 80.8359 92.4979 80.8359C88.6568 80.8359 85.543 86.3507 85.543 93.1535C85.543 99.9563 88.6568 105.471 92.4979 105.471Z" fill="white"/>
<mask id="mask1_1429_9276" style="mask-type:luminance" maskUnits="userSpaceOnUse" x="85" y="80" width="15" height="26">
<path d="M92.4979 105.471C96.339 105.471 99.4528 99.9563 99.4528 93.1535C99.4528 86.3507 96.339 80.8359 92.4979 80.8359C88.6568 80.8359 85.543 86.3507 85.543 93.1535C85.543 99.9563 88.6568 105.471 92.4979 105.471Z" fill="white"/>
</mask>
<g mask="url(#mask1_1429_9276)">
<path d="M96.3571 97.5234C98.7279 97.5234 100.65 95.5673 100.65 93.1543C100.65 90.7413 98.7279 88.7852 96.3571 88.7852C93.9863 88.7852 92.0645 90.7413 92.0645 93.1543C92.0645 95.5673 93.9863 97.5234 96.3571 97.5234Z" fill="black" stroke="black" stroke-width="1.27379" stroke-miterlimit="10"/>
</g>
<path d="M92.4979 105.471C96.339 105.471 99.4528 99.9563 99.4528 93.1535C99.4528 86.3507 96.339 80.8359 92.4979 80.8359C88.6568 80.8359 85.543 86.3507 85.543 93.1535C85.543 99.9563 88.6568 105.471 92.4979 105.471Z" stroke="black" stroke-width="1.27379" stroke-miterlimit="10"/>
<path d="M99.4528 93.1535C99.4528 86.3515 96.332 80.8359 92.4979 80.8359C88.6638 80.8359 85.543 86.3515 85.543 93.1535H99.4655H99.4528Z" fill="black"/>
<path d="M99.4528 93.1535C99.4528 86.3515 96.332 80.8359 92.4979 80.8359C88.6638 80.8359 85.543 86.3515 85.543 93.1535H99.4655H99.4528Z" stroke="black" stroke-width="1.27379" stroke-miterlimit="10"/>
<path d="M85.5309 93.1535C85.5309 86.3515 82.4101 80.8359 78.576 80.8359C74.7419 80.8359 71.6211 86.3515 71.6211 93.1535H85.5437H85.5309Z" fill="black"/>
<path d="M85.5309 93.1535C85.5309 86.3515 82.4101 80.8359 78.576 80.8359C74.7419 80.8359 71.6211 86.3515 71.6211 93.1535H85.5437H85.5309Z" stroke="black" stroke-width="1.27379" stroke-miterlimit="10"/>
<path d="M58.0656 106.477C58.8957 106.477 59.5686 105.793 59.5686 104.948C59.5686 104.104 58.8957 103.42 58.0656 103.42C57.2354 103.42 56.5625 104.104 56.5625 104.948C56.5625 105.793 57.2354 106.477 58.0656 106.477Z" fill="black"/>
<path d="M53.4933 114.043C54.3234 114.043 54.9964 113.359 54.9964 112.515C54.9964 111.671 54.3234 110.986 53.4933 110.986C52.6632 110.986 51.9902 111.671 51.9902 112.515C51.9902 113.359 52.6632 114.043 53.4933 114.043Z" fill="black"/>
<path d="M62.6398 114.043C63.4699 114.043 64.1429 113.359 64.1429 112.515C64.1429 111.671 63.4699 110.986 62.6398 110.986C61.8097 110.986 61.1367 111.671 61.1367 112.515C61.1367 113.359 61.8097 114.043 62.6398 114.043Z" fill="black"/>
<path d="M111.745 106.477C112.575 106.477 113.248 105.793 113.248 104.948C113.248 104.104 112.575 103.42 111.745 103.42C110.915 103.42 110.242 104.104 110.242 104.948C110.242 105.793 110.915 106.477 111.745 106.477Z" fill="black"/>
<path d="M107.185 114.043C108.015 114.043 108.688 113.359 108.688 112.515C108.688 111.671 108.015 110.986 107.185 110.986C106.355 110.986 105.682 111.671 105.682 112.515C105.682 113.359 106.355 114.043 107.185 114.043Z" fill="black"/>
<path d="M116.318 114.043C117.148 114.043 117.821 113.359 117.821 112.515C117.821 111.671 117.148 110.986 116.318 110.986C115.487 110.986 114.814 111.671 114.814 112.515C114.814 113.359 115.487 114.043 116.318 114.043Z" fill="black"/>
<path d="M74.1934 111.586C74.1934 114.783 76.7282 117.369 79.8618 117.369C82.9953 117.369 85.5301 114.783 85.5301 111.586" stroke="black" stroke-width="1.27379" stroke-miterlimit="10"/>
<path d="M85.5293 111.586C85.5293 114.783 88.0642 117.369 91.1977 117.369C94.3312 117.369 96.8661 114.783 96.8661 111.586" stroke="black" stroke-width="1.27379" stroke-miterlimit="10"/>
</g>
<defs>
<clipPath id="clip0_1429_9276">
<rect width="142" height="142" fill="white"/>
</clipPath>
<clipPath id="clip1_1429_9276">
<rect width="541.85" height="541.85" fill="white" transform="translate(-1.54688)"/>
</clipPath>
</defs>
</svg>
