<svg width="142" height="142" viewBox="0 0 142 142" fill="none" xmlns="http://www.w3.org/2000/svg">
<g clip-path="url(#clip0_1429_6995)">
<rect width="142" height="142" fill="#66FF95"/>
<g clip-path="url(#clip1_1429_6995)">
<path d="M28.1602 12.0273L28.1602 27.5272" stroke="black" stroke-width="1.09231" stroke-miterlimit="10"/>
<path d="M28.1602 30.8809L28.1602 46.3807" stroke="black" stroke-width="1.09231" stroke-miterlimit="10"/>
<path d="M45.3416 29.1992L29.8418 29.1992" stroke="black" stroke-width="1.09231" stroke-miterlimit="10"/>
<path d="M26.4881 29.1992L10.9883 29.1992" stroke="black" stroke-width="1.09231" stroke-miterlimit="10"/>
<path d="M72.2012 12.0273L72.2012 27.5272" stroke="black" stroke-width="1.09231" stroke-miterlimit="10"/>
<path d="M72.2012 30.8809L72.2012 46.3807" stroke="black" stroke-width="1.09231" stroke-miterlimit="10"/>
<path d="M89.3827 29.1992L73.8828 29.1992" stroke="black" stroke-width="1.09231" stroke-miterlimit="10"/>
<path d="M70.5194 29.1992L55.0195 29.1992" stroke="black" stroke-width="1.09231" stroke-miterlimit="10"/>
<path d="M116.242 12.0273L116.242 27.5272" stroke="black" stroke-width="1.09231" stroke-miterlimit="10"/>
<path d="M116.242 30.8809L116.242 46.3807" stroke="black" stroke-width="1.09231" stroke-miterlimit="10"/>
<path d="M133.424 29.1992L117.924 29.1992" stroke="black" stroke-width="1.09231" stroke-miterlimit="10"/>
<path d="M114.56 29.1992L99.0605 29.1992" stroke="black" stroke-width="1.09231" stroke-miterlimit="10"/>
<path d="M28.1602 55.9023L28.1602 71.4022" stroke="black" stroke-width="1.09231" stroke-miterlimit="10"/>
<path d="M28.1602 74.7559L28.1602 90.2557" stroke="black" stroke-width="1.09231" stroke-miterlimit="10"/>
<path d="M45.3416 73.084L29.8418 73.084" stroke="black" stroke-width="1.09231" stroke-miterlimit="10"/>
<path d="M26.4881 73.084L10.9883 73.084" stroke="black" stroke-width="1.09231" stroke-miterlimit="10"/>
<path d="M72.2012 55.9023L72.2012 71.4022" stroke="black" stroke-width="1.09231" stroke-miterlimit="10"/>
<path d="M72.2012 74.7559L72.2012 90.2557" stroke="black" stroke-width="1.09231" stroke-miterlimit="10"/>
<path d="M89.3827 73.084L73.8828 73.084" stroke="black" stroke-width="1.09231" stroke-miterlimit="10"/>
<path d="M70.5194 73.084L55.0195 73.084" stroke="black" stroke-width="1.09231" stroke-miterlimit="10"/>
<path d="M116.242 55.9023L116.242 71.4022" stroke="black" stroke-width="1.09231" stroke-miterlimit="10"/>
<path d="M116.242 74.7559L116.242 90.2557" stroke="black" stroke-width="1.09231" stroke-miterlimit="10"/>
<path d="M133.424 73.084L117.924 73.084" stroke="black" stroke-width="1.09231" stroke-miterlimit="10"/>
<path d="M114.56 73.084L99.0605 73.084" stroke="black" stroke-width="1.09231" stroke-miterlimit="10"/>
<path d="M28.1602 99.7832L28.1602 115.283" stroke="black" stroke-width="1.09231" stroke-miterlimit="10"/>
<path d="M28.1602 118.637L28.1602 134.137" stroke="black" stroke-width="1.09231" stroke-miterlimit="10"/>
<path d="M45.3416 116.965L29.8418 116.965" stroke="black" stroke-width="1.09231" stroke-miterlimit="10"/>
<path d="M26.4881 116.965L10.9883 116.965" stroke="black" stroke-width="1.09231" stroke-miterlimit="10"/>
<path d="M72.2012 99.7832L72.2012 115.283" stroke="black" stroke-width="1.09231" stroke-miterlimit="10"/>
<path d="M72.2012 118.637L72.2012 134.137" stroke="black" stroke-width="1.09231" stroke-miterlimit="10"/>
<path d="M89.3827 116.965L73.8828 116.965" stroke="black" stroke-width="1.09231" stroke-miterlimit="10"/>
<path d="M70.5194 116.965L55.0195 116.965" stroke="black" stroke-width="1.09231" stroke-miterlimit="10"/>
<path d="M116.242 99.7832L116.242 115.283" stroke="black" stroke-width="1.09231" stroke-miterlimit="10"/>
<path d="M116.242 118.637L116.242 134.137" stroke="black" stroke-width="1.09231" stroke-miterlimit="10"/>
<path d="M133.424 116.965L117.924 116.965" stroke="black" stroke-width="1.09231" stroke-miterlimit="10"/>
<path d="M114.56 116.965L99.0605 116.965" stroke="black" stroke-width="1.09231" stroke-miterlimit="10"/>
</g>
<g clip-path="url(#clip2_1429_6995)">
<path d="M14.9316 66.2658V125.575L71.5785 155.218L128.236 125.575V66.2658L71.5785 36.6113L14.9316 66.2658Z" fill="white" stroke="black" stroke-width="1.09104" stroke-miterlimit="10"/>
<path d="M71.5785 95.9203L14.9316 66.2658L71.5785 36.6113L128.236 66.2658L71.5785 95.9203Z" fill="#618BFF" stroke="black" stroke-width="1.09104" stroke-linejoin="round"/>
<path d="M105.937 103.721C108.154 103.721 109.952 100.599 109.952 96.7491C109.952 92.8987 108.154 89.7773 105.937 89.7773C103.719 89.7773 101.922 92.8987 101.922 96.7491C101.922 100.599 103.719 103.721 105.937 103.721Z" fill="white"/>
<mask id="mask0_1429_6995" style="mask-type:luminance" maskUnits="userSpaceOnUse" x="101" y="89" width="9" height="15">
<path d="M105.937 103.721C108.154 103.721 109.952 100.599 109.952 96.7491C109.952 92.8987 108.154 89.7773 105.937 89.7773C103.719 89.7773 101.922 92.8987 101.922 96.7491C101.922 100.599 103.719 103.721 105.937 103.721Z" fill="white"/>
</mask>
<g mask="url(#mask0_1429_6995)">
<path d="M108.162 99.2248C109.53 99.2248 110.639 98.116 110.639 96.7481C110.639 95.3803 109.53 94.2715 108.162 94.2715C106.794 94.2715 105.686 95.3803 105.686 96.7481C105.686 98.116 106.794 99.2248 108.162 99.2248Z" fill="black" stroke="black" stroke-width="1.09104" stroke-miterlimit="10"/>
</g>
<path d="M105.937 103.721C108.154 103.721 109.952 100.599 109.952 96.7491C109.952 92.8987 108.154 89.7773 105.937 89.7773C103.719 89.7773 101.922 92.8987 101.922 96.7491C101.922 100.599 103.719 103.721 105.937 103.721Z" stroke="black" stroke-width="1.09104" stroke-miterlimit="10"/>
<path d="M113.978 100.383C116.195 100.383 117.993 97.2616 117.993 93.4112C117.993 89.5608 116.195 86.4395 113.978 86.4395C111.76 86.4395 109.963 89.5608 109.963 93.4112C109.963 97.2616 111.76 100.383 113.978 100.383Z" fill="white"/>
<mask id="mask1_1429_6995" style="mask-type:luminance" maskUnits="userSpaceOnUse" x="109" y="86" width="9" height="15">
<path d="M113.978 100.383C116.195 100.383 117.993 97.2616 117.993 93.4112C117.993 89.5608 116.195 86.4395 113.978 86.4395C111.76 86.4395 109.963 89.5608 109.963 93.4112C109.963 97.2616 111.76 100.383 113.978 100.383Z" fill="white"/>
</mask>
<g mask="url(#mask1_1429_6995)">
<path d="M116.203 95.8869C117.571 95.8869 118.68 94.7781 118.68 93.4103C118.68 92.0424 117.571 90.9336 116.203 90.9336C114.835 90.9336 113.727 92.0424 113.727 93.4103C113.727 94.7781 114.835 95.8869 116.203 95.8869Z" fill="black" stroke="black" stroke-width="1.09104" stroke-miterlimit="10"/>
</g>
<path d="M113.978 100.383C116.195 100.383 117.993 97.2616 117.993 93.4112C117.993 89.5608 116.195 86.4395 113.978 86.4395C111.76 86.4395 109.963 89.5608 109.963 93.4112C109.963 97.2616 111.76 100.383 113.978 100.383Z" stroke="black" stroke-width="1.09104" stroke-miterlimit="10"/>
<path d="M48.1228 105.576L38.4453 115.265" stroke="black" stroke-width="1.09104" stroke-miterlimit="10"/>
<path d="M35.9898 123.077C38.9484 123.077 41.3468 120.679 41.3468 117.72C41.3468 114.762 38.9484 112.363 35.9898 112.363C33.0312 112.363 30.6328 114.762 30.6328 117.72C30.6328 120.679 33.0312 123.077 35.9898 123.077Z" fill="#66FF95" stroke="#231815" stroke-width="1.09104" stroke-miterlimit="10"/>
</g>
</g>
<defs>
<clipPath id="clip0_1429_6995">
<rect width="142" height="142" fill="white"/>
</clipPath>
<clipPath id="clip1_1429_6995">
<rect width="541.85" height="541.85" fill="white" transform="translate(-0.546875)"/>
</clipPath>
<clipPath id="clip2_1429_6995">
<rect width="115.607" height="119.84" fill="white" transform="translate(13.1758 36)"/>
</clipPath>
</defs>
</svg>
