<svg width="142" height="142" viewBox="0 0 142 142" fill="none" xmlns="http://www.w3.org/2000/svg">
<g clip-path="url(#clip0_1429_13257)">
<rect width="142" height="142" fill="#FFFF45"/>
<g clip-path="url(#clip1_1429_13257)">
<path d="M27.1602 12.0273L27.1602 27.5272" stroke="black" stroke-width="1.09231" stroke-miterlimit="10"/>
<path d="M27.1602 30.8809L27.1602 46.3807" stroke="black" stroke-width="1.09231" stroke-miterlimit="10"/>
<path d="M44.3416 29.1992L28.8418 29.1992" stroke="black" stroke-width="1.09231" stroke-miterlimit="10"/>
<path d="M25.4881 29.1992L9.98828 29.1992" stroke="black" stroke-width="1.09231" stroke-miterlimit="10"/>
<path d="M71.2012 12.0273L71.2012 27.5272" stroke="black" stroke-width="1.09231" stroke-miterlimit="10"/>
<path d="M71.2012 30.8809L71.2012 46.3807" stroke="black" stroke-width="1.09231" stroke-miterlimit="10"/>
<path d="M88.3827 29.1992L72.8828 29.1992" stroke="black" stroke-width="1.09231" stroke-miterlimit="10"/>
<path d="M69.5194 29.1992L54.0195 29.1992" stroke="black" stroke-width="1.09231" stroke-miterlimit="10"/>
<path d="M115.242 12.0273L115.242 27.5272" stroke="black" stroke-width="1.09231" stroke-miterlimit="10"/>
<path d="M115.242 30.8809L115.242 46.3807" stroke="black" stroke-width="1.09231" stroke-miterlimit="10"/>
<path d="M132.424 29.1992L116.924 29.1992" stroke="black" stroke-width="1.09231" stroke-miterlimit="10"/>
<path d="M113.56 29.1992L98.0605 29.1992" stroke="black" stroke-width="1.09231" stroke-miterlimit="10"/>
<path d="M27.1602 55.9023L27.1602 71.4022" stroke="black" stroke-width="1.09231" stroke-miterlimit="10"/>
<path d="M27.1602 74.7559L27.1602 90.2557" stroke="black" stroke-width="1.09231" stroke-miterlimit="10"/>
<path d="M44.3416 73.084L28.8418 73.084" stroke="black" stroke-width="1.09231" stroke-miterlimit="10"/>
<path d="M25.4881 73.084L9.98828 73.084" stroke="black" stroke-width="1.09231" stroke-miterlimit="10"/>
<path d="M71.2012 55.9023L71.2012 71.4022" stroke="black" stroke-width="1.09231" stroke-miterlimit="10"/>
<path d="M71.2012 74.7559L71.2012 90.2557" stroke="black" stroke-width="1.09231" stroke-miterlimit="10"/>
<path d="M88.3827 73.084L72.8828 73.084" stroke="black" stroke-width="1.09231" stroke-miterlimit="10"/>
<path d="M69.5194 73.084L54.0195 73.084" stroke="black" stroke-width="1.09231" stroke-miterlimit="10"/>
<path d="M115.242 55.9023L115.242 71.4022" stroke="black" stroke-width="1.09231" stroke-miterlimit="10"/>
<path d="M115.242 74.7559L115.242 90.2557" stroke="black" stroke-width="1.09231" stroke-miterlimit="10"/>
<path d="M132.424 73.084L116.924 73.084" stroke="black" stroke-width="1.09231" stroke-miterlimit="10"/>
<path d="M113.56 73.084L98.0605 73.084" stroke="black" stroke-width="1.09231" stroke-miterlimit="10"/>
<path d="M27.1602 99.7832L27.1602 115.283" stroke="black" stroke-width="1.09231" stroke-miterlimit="10"/>
<path d="M27.1602 118.637L27.1602 134.137" stroke="black" stroke-width="1.09231" stroke-miterlimit="10"/>
<path d="M44.3416 116.965L28.8418 116.965" stroke="black" stroke-width="1.09231" stroke-miterlimit="10"/>
<path d="M25.4881 116.965L9.98828 116.965" stroke="black" stroke-width="1.09231" stroke-miterlimit="10"/>
<path d="M71.2012 99.7832L71.2012 115.283" stroke="black" stroke-width="1.09231" stroke-miterlimit="10"/>
<path d="M71.2012 118.637L71.2012 134.137" stroke="black" stroke-width="1.09231" stroke-miterlimit="10"/>
<path d="M88.3827 116.965L72.8828 116.965" stroke="black" stroke-width="1.09231" stroke-miterlimit="10"/>
<path d="M69.5194 116.965L54.0195 116.965" stroke="black" stroke-width="1.09231" stroke-miterlimit="10"/>
<path d="M115.242 99.7832L115.242 115.283" stroke="black" stroke-width="1.09231" stroke-miterlimit="10"/>
<path d="M115.242 118.637L115.242 134.137" stroke="black" stroke-width="1.09231" stroke-miterlimit="10"/>
<path d="M132.424 116.965L116.924 116.965" stroke="black" stroke-width="1.09231" stroke-miterlimit="10"/>
<path d="M113.56 116.965L98.0605 116.965" stroke="black" stroke-width="1.09231" stroke-miterlimit="10"/>
</g>
<path d="M83.4027 164C83.4027 164 76.3047 147.698 83.4027 131.406" stroke="#231815" stroke-width="0.952762" stroke-miterlimit="10" stroke-linecap="round"/>
<path d="M66.8149 164C66.8149 164 59.7168 147.698 66.8149 131.406" stroke="#231815" stroke-width="0.952762" stroke-miterlimit="10" stroke-linecap="round"/>
<path d="M71.4935 147.555L74.3137 145.278C78.9917 141.439 83.4888 137.485 86.8997 134.426C96.7893 125.556 104.459 118.001 110.938 110.569C117.655 102.957 126.582 90.9136 126.582 74.7262C126.582 58.5387 113.101 45 96.856 45C86.0708 45 76.7146 50.6118 71.503 59.1295C66.2914 50.6022 56.9353 45 46.15 45C29.9054 45 16.4238 58.3101 16.4238 74.7262C16.4238 91.1423 25.3512 102.957 32.0682 110.569C38.5374 118.001 46.2167 125.556 56.1064 134.426C59.5268 137.485 64.0143 141.439 68.6924 145.278L71.5125 147.555" fill="#FF3EA8"/>
<path d="M71.4935 147.555L74.3137 145.278C78.9917 141.439 83.4888 137.485 86.8997 134.426C96.7893 125.556 104.459 118.001 110.938 110.569C117.655 102.957 126.582 90.9136 126.582 74.7262C126.582 58.5387 113.101 45 96.856 45C86.0708 45 76.7146 50.6118 71.503 59.1295C66.2914 50.6022 56.9353 45 46.15 45C29.9054 45 16.4238 58.3101 16.4238 74.7262C16.4238 91.1423 25.3512 102.957 32.0682 110.569C38.5374 118.001 46.2167 125.556 56.1064 134.426C59.5268 137.485 64.0143 141.439 68.6924 145.278L71.5125 147.555" stroke="black" stroke-width="0.952762" stroke-miterlimit="10"/>
<path d="M56.3245 96.3437C60.3762 96.3437 63.6608 91.7752 63.6608 86.1396C63.6608 80.5041 60.3762 75.9355 56.3245 75.9355C52.2728 75.9355 48.9883 80.5041 48.9883 86.1396C48.9883 91.7752 52.2728 96.3437 56.3245 96.3437Z" fill="white" stroke="black" stroke-width="0.952762" stroke-miterlimit="10"/>
<path d="M56.3629 91.809C58.3151 91.809 59.8976 89.2923 59.8976 86.1877C59.8976 83.0832 58.3151 80.5664 56.3629 80.5664C54.4107 80.5664 52.8281 83.0832 52.8281 86.1877C52.8281 89.2923 54.4107 91.809 56.3629 91.809Z" fill="black" stroke="black" stroke-width="0.952762" stroke-miterlimit="10"/>
<path d="M59.8991 86.1877C57.9174 86.1877 56.3168 83.6724 56.3168 80.5664C56.3168 83.6724 54.7161 86.1877 52.7344 86.1877C54.7161 86.1877 56.3168 88.703 56.3168 91.809C56.3168 88.703 57.9174 86.1877 59.8991 86.1877Z" fill="white"/>
<path d="M71.2543 96.3437C75.306 96.3437 78.5905 91.7752 78.5905 86.1396C78.5905 80.5041 75.306 75.9355 71.2543 75.9355C67.2025 75.9355 63.918 80.5041 63.918 86.1396C63.918 91.7752 67.2025 96.3437 71.2543 96.3437Z" fill="white" stroke="black" stroke-width="0.952762" stroke-miterlimit="10"/>
<path d="M71.3023 91.809C73.2545 91.809 74.8371 89.2923 74.8371 86.1877C74.8371 83.0832 73.2545 80.5664 71.3023 80.5664C69.3501 80.5664 67.7676 83.0832 67.7676 86.1877C67.7676 89.2923 69.3501 91.809 71.3023 91.809Z" fill="black" stroke="black" stroke-width="0.952762" stroke-miterlimit="10"/>
<path d="M74.8288 86.1877C72.8471 86.1877 71.2464 83.6724 71.2464 80.5664C71.2464 83.6724 69.6458 86.1877 67.6641 86.1877C69.6458 86.1877 71.2464 88.703 71.2464 91.809C71.2464 88.703 72.8471 86.1877 74.8288 86.1877Z" fill="white"/>
<path d="M123.876 53.5465C120.246 53.5465 117.293 50.6024 117.293 46.9629C117.293 50.5929 114.349 53.5465 110.709 53.5465C114.339 53.5465 117.293 56.4905 117.293 60.1301C117.293 56.5 120.237 53.5465 123.876 53.5465Z" fill="#FFEC27" stroke="#231815" stroke-width="0.952762" stroke-miterlimit="10"/>
<path d="M114.025 63.398C110.395 63.398 107.441 60.454 107.441 56.8145C107.441 60.4445 104.497 63.398 100.857 63.398C104.487 63.398 107.441 66.3421 107.441 69.9816C107.441 66.3516 110.385 63.398 114.025 63.398Z" fill="#FFEC27" stroke="#231815" stroke-width="0.952762" stroke-miterlimit="10"/>
<path d="M81.0204 105.635C80.1344 103.825 78.61 102.539 76.8569 101.91C76.9617 102.253 77.0188 102.624 76.9998 103.005C76.914 104.806 75.3896 106.197 73.5889 106.111C71.7882 106.026 70.3972 104.501 70.4829 102.701C70.4829 102.615 70.5115 102.539 70.521 102.453C70.4162 102.5 70.3209 102.539 70.2161 102.586C70.3686 102.986 70.4353 103.425 70.4162 103.872C70.3305 105.673 68.806 107.064 67.0053 106.978C65.2808 106.893 63.947 105.492 63.9088 103.796H63.8898C63.8898 103.796 63.8898 103.853 63.8898 103.872C63.804 105.673 62.2796 107.064 60.4789 106.978C58.6782 106.893 57.2871 105.368 57.3729 103.568C57.3919 103.244 57.4682 102.939 57.5634 102.643C57.4968 102.624 57.4396 102.596 57.3824 102.577C57.3919 102.72 57.411 102.862 57.4015 103.015C57.3157 104.816 55.7913 106.207 53.9906 106.121C52.1899 106.035 50.7988 104.511 50.8846 102.71C50.9036 102.396 50.9703 102.1 51.0751 101.814C49.1982 102.396 47.5499 103.701 46.5971 105.597C44.7488 109.284 46.2351 113.762 49.9223 115.61C50.008 115.658 50.4082 115.849 51.0466 116.115C51.4848 114.734 52.7901 113.762 54.305 113.829C56.1057 113.915 57.4968 115.439 57.411 117.24C57.4015 117.497 57.3443 117.745 57.2776 117.992C57.3157 117.992 57.3538 118.011 57.392 118.021C57.392 117.945 57.3729 117.878 57.3824 117.802C57.4682 116.001 58.9926 114.61 60.7933 114.696C62.594 114.782 63.9851 116.306 63.8993 118.107C63.8898 118.307 63.8517 118.507 63.8136 118.697C63.8803 118.697 63.9374 118.697 64.0041 118.697C63.9374 118.402 63.8898 118.107 63.9088 117.792C63.9946 115.992 65.519 114.601 67.3197 114.686C69.1109 114.772 70.4924 116.287 70.4257 118.078C70.502 118.059 70.5686 118.05 70.6449 118.04C70.5401 117.687 70.4734 117.316 70.4924 116.935C70.5782 115.134 72.1026 113.743 73.9033 113.829C75.2658 113.895 76.39 114.791 76.8188 116.001C77.0855 115.877 77.3428 115.772 77.6096 115.639C81.3063 113.829 82.8402 109.351 81.0204 105.654V105.635Z" fill="#E20036" stroke="black" stroke-width="0.952762" stroke-miterlimit="10"/>
<path d="M73.8946 113.801C72.0939 113.715 70.5695 115.106 70.4837 116.907C70.4647 117.297 70.5314 117.669 70.6362 118.012C72.656 117.583 74.7235 116.916 76.8196 115.963C76.3908 114.753 75.2666 113.858 73.9041 113.791L73.8946 113.801Z" fill="white" stroke="#231815" stroke-width="0.952762" stroke-miterlimit="10"/>
<path d="M67.3096 114.666C65.5089 114.58 63.9845 115.971 63.8988 117.772C63.8797 118.086 63.9274 118.382 63.994 118.677C64.0607 118.677 64.1274 118.677 64.1941 118.677C66.1568 118.677 68.2529 118.496 70.4157 118.058C70.4919 116.267 69.1008 114.752 67.3096 114.666Z" fill="white" stroke="#231815" stroke-width="0.952762" stroke-miterlimit="10"/>
<path d="M60.7937 114.666C58.993 114.58 57.4686 115.971 57.3828 117.772C57.3828 117.848 57.3923 117.915 57.3923 117.991C59.2788 118.372 61.4606 118.639 63.814 118.667C63.8616 118.477 63.8902 118.277 63.8997 118.077C63.9855 116.276 62.5944 114.752 60.7937 114.666Z" fill="white" stroke="#231815" stroke-width="0.952762" stroke-miterlimit="10"/>
<path d="M54.2956 113.799C52.7807 113.723 51.4754 114.704 51.0371 116.086C52.2757 116.6 54.448 117.391 57.2682 117.963C57.3349 117.724 57.392 117.477 57.4016 117.21C57.4873 115.409 56.0963 113.885 54.2956 113.799Z" fill="white" stroke="#231815" stroke-width="0.952762" stroke-miterlimit="10"/>
<path d="M73.5883 106.1C75.389 106.186 76.9134 104.795 76.9992 102.994C77.0182 102.613 76.9611 102.242 76.8563 101.899C75.0174 101.241 72.9309 101.289 71.0444 102.213C70.8729 102.299 70.7014 102.366 70.5204 102.442C70.5109 102.528 70.4918 102.604 70.4823 102.69C70.3965 104.49 71.7876 106.015 73.5883 106.1Z" fill="white" stroke="#231815" stroke-width="0.952762" stroke-miterlimit="10"/>
<path d="M66.9969 106.968C68.7976 107.054 70.322 105.663 70.4077 103.862C70.4268 103.405 70.3601 102.976 70.2077 102.576C68.0163 103.491 65.844 103.805 63.9004 103.786C63.9385 105.482 65.2724 106.892 66.9969 106.968Z" fill="white" stroke="#231815" stroke-width="0.952762" stroke-miterlimit="10"/>
<path d="M60.4789 106.968C62.2796 107.054 63.804 105.663 63.8898 103.862C63.8898 103.833 63.8898 103.805 63.8898 103.786C61.1268 103.757 58.8211 103.09 57.5635 102.633C57.4587 102.928 57.3824 103.233 57.3729 103.557C57.2872 105.358 58.6782 106.882 60.4789 106.968Z" fill="white" stroke="#231815" stroke-width="0.952762" stroke-miterlimit="10"/>
<path d="M53.9906 106.101C55.7914 106.187 57.3158 104.796 57.4015 102.995C57.4015 102.843 57.392 102.71 57.3825 102.557C56.9251 102.386 56.6298 102.252 56.5536 102.214C54.7814 101.338 52.8283 101.242 51.0752 101.785C50.9799 102.071 50.9037 102.367 50.8846 102.681C50.7989 104.482 52.1899 106.006 53.9906 106.092V106.101Z" fill="white" stroke="#231815" stroke-width="0.952762" stroke-miterlimit="10"/>
<path d="M83.127 98.4872L89.8154 91.7988" stroke="#231815" stroke-width="0.952762" stroke-miterlimit="10"/>
<path d="M86.4707 98.4872L93.1591 91.7988" stroke="#231815" stroke-width="0.952762" stroke-miterlimit="10"/>
<path d="M89.8145 98.4872L96.5028 91.7988" stroke="#231815" stroke-width="0.952762" stroke-miterlimit="10"/>
<path d="M31.3633 98.4872L38.0517 91.7988" stroke="#231815" stroke-width="0.952762" stroke-miterlimit="10"/>
<path d="M34.707 98.4872L41.3954 91.7988" stroke="#231815" stroke-width="0.952762" stroke-miterlimit="10"/>
<path d="M38.0508 98.4872L44.7392 91.7988" stroke="#231815" stroke-width="0.952762" stroke-miterlimit="10"/>
</g>
<defs>
<clipPath id="clip0_1429_13257">
<rect width="142" height="142" fill="white"/>
</clipPath>
<clipPath id="clip1_1429_13257">
<rect width="541.85" height="541.85" fill="white" transform="translate(-1.54688)"/>
</clipPath>
</defs>
</svg>
