<svg width="142" height="142" viewBox="0 0 142 142" fill="none" xmlns="http://www.w3.org/2000/svg">
<g clip-path="url(#clip0_1429_10049)">
<rect width="142" height="142" fill="#618BFF"/>
<g clip-path="url(#clip1_1429_10049)">
<path d="M27.1602 12.0273L27.1602 27.5272" stroke="black" stroke-width="1.09231" stroke-miterlimit="10"/>
<path d="M27.1602 30.8809L27.1602 46.3807" stroke="black" stroke-width="1.09231" stroke-miterlimit="10"/>
<path d="M44.3416 29.1992L28.8418 29.1992" stroke="black" stroke-width="1.09231" stroke-miterlimit="10"/>
<path d="M25.4881 29.1992L9.98828 29.1992" stroke="black" stroke-width="1.09231" stroke-miterlimit="10"/>
<path d="M71.2012 12.0273L71.2012 27.5272" stroke="black" stroke-width="1.09231" stroke-miterlimit="10"/>
<path d="M71.2012 30.8809L71.2012 46.3807" stroke="black" stroke-width="1.09231" stroke-miterlimit="10"/>
<path d="M88.3827 29.1992L72.8828 29.1992" stroke="black" stroke-width="1.09231" stroke-miterlimit="10"/>
<path d="M69.5194 29.1992L54.0195 29.1992" stroke="black" stroke-width="1.09231" stroke-miterlimit="10"/>
<path d="M115.242 12.0273L115.242 27.5272" stroke="black" stroke-width="1.09231" stroke-miterlimit="10"/>
<path d="M115.242 30.8809L115.242 46.3807" stroke="black" stroke-width="1.09231" stroke-miterlimit="10"/>
<path d="M132.424 29.1992L116.924 29.1992" stroke="black" stroke-width="1.09231" stroke-miterlimit="10"/>
<path d="M113.56 29.1992L98.0605 29.1992" stroke="black" stroke-width="1.09231" stroke-miterlimit="10"/>
<path d="M27.1602 55.9023L27.1602 71.4022" stroke="black" stroke-width="1.09231" stroke-miterlimit="10"/>
<path d="M27.1602 74.7559L27.1602 90.2557" stroke="black" stroke-width="1.09231" stroke-miterlimit="10"/>
<path d="M44.3416 73.084L28.8418 73.084" stroke="black" stroke-width="1.09231" stroke-miterlimit="10"/>
<path d="M25.4881 73.084L9.98828 73.084" stroke="black" stroke-width="1.09231" stroke-miterlimit="10"/>
<path d="M71.2012 55.9023L71.2012 71.4022" stroke="black" stroke-width="1.09231" stroke-miterlimit="10"/>
<path d="M71.2012 74.7559L71.2012 90.2557" stroke="black" stroke-width="1.09231" stroke-miterlimit="10"/>
<path d="M88.3827 73.084L72.8828 73.084" stroke="black" stroke-width="1.09231" stroke-miterlimit="10"/>
<path d="M69.5194 73.084L54.0195 73.084" stroke="black" stroke-width="1.09231" stroke-miterlimit="10"/>
<path d="M115.242 55.9023L115.242 71.4022" stroke="black" stroke-width="1.09231" stroke-miterlimit="10"/>
<path d="M115.242 74.7559L115.242 90.2557" stroke="black" stroke-width="1.09231" stroke-miterlimit="10"/>
<path d="M132.424 73.084L116.924 73.084" stroke="black" stroke-width="1.09231" stroke-miterlimit="10"/>
<path d="M113.56 73.084L98.0605 73.084" stroke="black" stroke-width="1.09231" stroke-miterlimit="10"/>
<path d="M27.1602 99.7832L27.1602 115.283" stroke="black" stroke-width="1.09231" stroke-miterlimit="10"/>
<path d="M27.1602 118.637L27.1602 134.137" stroke="black" stroke-width="1.09231" stroke-miterlimit="10"/>
<path d="M44.3416 116.965L28.8418 116.965" stroke="black" stroke-width="1.09231" stroke-miterlimit="10"/>
<path d="M25.4881 116.965L9.98828 116.965" stroke="black" stroke-width="1.09231" stroke-miterlimit="10"/>
<path d="M71.2012 99.7832L71.2012 115.283" stroke="black" stroke-width="1.09231" stroke-miterlimit="10"/>
<path d="M71.2012 118.637L71.2012 134.137" stroke="black" stroke-width="1.09231" stroke-miterlimit="10"/>
<path d="M88.3827 116.965L72.8828 116.965" stroke="black" stroke-width="1.09231" stroke-miterlimit="10"/>
<path d="M69.5194 116.965L54.0195 116.965" stroke="black" stroke-width="1.09231" stroke-miterlimit="10"/>
<path d="M115.242 99.7832L115.242 115.283" stroke="black" stroke-width="1.09231" stroke-miterlimit="10"/>
<path d="M115.242 118.637L115.242 134.137" stroke="black" stroke-width="1.09231" stroke-miterlimit="10"/>
<path d="M132.424 116.965L116.924 116.965" stroke="black" stroke-width="1.09231" stroke-miterlimit="10"/>
<path d="M113.56 116.965L98.0605 116.965" stroke="black" stroke-width="1.09231" stroke-miterlimit="10"/>
</g>
<path d="M95.2522 181.861C95.2522 181.36 95.2278 180.859 95.2033 180.37H95.2522V84.8379H47.8711V180.37H47.92C47.8833 180.871 47.8711 181.36 47.8711 181.861" fill="#FF805F"/>
<path d="M95.2522 181.861C95.2522 181.36 95.2278 180.859 95.2033 180.37H95.2522V84.8379H47.8711V180.37H47.92C47.8833 180.871 47.8711 181.36 47.8711 181.861" stroke="#040000" stroke-width="1.22211" stroke-miterlimit="10"/>
<path d="M47.8711 104.941C47.8711 112.751 58.479 119.081 71.5555 119.081C84.6321 119.081 95.24 112.751 95.24 104.941V119.081C95.24 126.89 84.6321 133.221 71.5555 133.221C58.479 133.221 47.8711 126.89 47.8711 119.081V104.941Z" fill="white"/>
<mask id="mask0_1429_10049" style="mask-type:luminance" maskUnits="userSpaceOnUse" x="47" y="104" width="49" height="30">
<path d="M47.8711 104.941C47.8711 112.751 58.479 119.081 71.5555 119.081C84.6321 119.081 95.24 112.751 95.24 104.941V119.081C95.24 126.89 84.6321 133.221 71.5555 133.221C58.479 133.221 47.8711 126.89 47.8711 119.081V104.941Z" fill="white"/>
</mask>
<g mask="url(#mask0_1429_10049)">
<path d="M47.8711 106.494V133.234" stroke="black" stroke-width="1.22211" stroke-miterlimit="10"/>
<path d="M53.1387 106.494V133.234" stroke="black" stroke-width="1.22211" stroke-miterlimit="10"/>
<path d="M58.4062 106.494V133.234" stroke="black" stroke-width="1.22211" stroke-miterlimit="10"/>
<path d="M63.6602 106.494V133.234" stroke="black" stroke-width="1.22211" stroke-miterlimit="10"/>
<path d="M68.9277 106.494V133.234" stroke="black" stroke-width="1.22211" stroke-miterlimit="10"/>
<path d="M74.1953 106.494V133.234" stroke="black" stroke-width="1.22211" stroke-miterlimit="10"/>
<path d="M79.4629 106.494V133.234" stroke="black" stroke-width="1.22211" stroke-miterlimit="10"/>
<path d="M84.7168 106.494V133.234" stroke="black" stroke-width="1.22211" stroke-miterlimit="10"/>
<path d="M89.9844 106.494V133.234" stroke="black" stroke-width="1.22211" stroke-miterlimit="10"/>
<path d="M95.252 106.494V133.234" stroke="black" stroke-width="1.22211" stroke-miterlimit="10"/>
</g>
<path d="M47.8711 104.941C47.8711 112.751 58.479 119.081 71.5555 119.081C84.6321 119.081 95.24 112.751 95.24 104.941V119.081C95.24 126.89 84.6321 133.221 71.5555 133.221C58.479 133.221 47.8711 126.89 47.8711 119.081V104.941Z" stroke="black" stroke-width="1.22211" stroke-miterlimit="10"/>
<path d="M101.167 47.5384L71.629 18L43.325 46.304C34.3181 54.1744 28.623 65.7477 28.623 78.641C28.623 102.362 47.8591 121.598 71.5802 121.598C95.3013 121.598 114.537 102.362 114.537 78.641C114.537 66.3955 109.404 55.3599 101.192 47.5384H101.167Z" fill="#FFFF45" stroke="black" stroke-width="1.22211" stroke-miterlimit="10"/>
<path d="M51.1082 82.4786C54.9756 82.4786 58.1108 77.5213 58.1108 71.4063C58.1108 65.2912 54.9756 60.334 51.1082 60.334C47.2407 60.334 44.1055 65.2912 44.1055 71.4063C44.1055 77.5213 47.2407 82.4786 51.1082 82.4786Z" fill="white"/>
<path d="M51.1082 82.4786C54.9756 82.4786 58.1108 77.5213 58.1108 71.4063C58.1108 65.2912 54.9756 60.334 51.1082 60.334C47.2407 60.334 44.1055 65.2912 44.1055 71.4063C44.1055 77.5213 47.2407 82.4786 51.1082 82.4786Z" stroke="black" stroke-width="1.22211" stroke-miterlimit="10"/>
<path d="M51.1084 77.1626C52.7215 77.1626 54.0292 74.5855 54.0292 71.4065C54.0292 68.2275 52.7215 65.6504 51.1084 65.6504C49.4952 65.6504 48.1875 68.2275 48.1875 71.4065C48.1875 74.5855 49.4952 77.1626 51.1084 77.1626Z" fill="black"/>
<mask id="mask1_1429_10049" style="mask-type:luminance" maskUnits="userSpaceOnUse" x="48" y="65" width="7" height="13">
<path d="M51.1084 77.1626C52.7215 77.1626 54.0292 74.5855 54.0292 71.4065C54.0292 68.2275 52.7215 65.6504 51.1084 65.6504C49.4952 65.6504 48.1875 68.2275 48.1875 71.4065C48.1875 74.5855 49.4952 77.1626 51.1084 77.1626Z" fill="white"/>
</mask>
<g mask="url(#mask1_1429_10049)">
<path d="M51.1077 75.1835C52.1606 75.1835 53.0141 73.4928 53.0141 71.4072C53.0141 69.3216 52.1606 67.6309 51.1077 67.6309C50.0547 67.6309 49.2012 69.3216 49.2012 71.4072C49.2012 73.4928 50.0547 75.1835 51.1077 75.1835Z" fill="white" stroke="black" stroke-width="1.22211" stroke-miterlimit="10"/>
<path d="M55.2262 72.3978C55.7729 72.3978 56.2161 71.9546 56.2161 71.4079C56.2161 70.8612 55.7729 70.418 55.2262 70.418C54.6795 70.418 54.2363 70.8612 54.2363 71.4079C54.2363 71.9546 54.6795 72.3978 55.2262 72.3978Z" stroke="black" stroke-width="1.22211" stroke-miterlimit="10"/>
</g>
<path d="M51.1084 77.1626C52.7215 77.1626 54.0292 74.5855 54.0292 71.4065C54.0292 68.2275 52.7215 65.6504 51.1084 65.6504C49.4952 65.6504 48.1875 68.2275 48.1875 71.4065C48.1875 74.5855 49.4952 77.1626 51.1084 77.1626Z" stroke="black" stroke-width="1.22211" stroke-miterlimit="10"/>
<path d="M65.114 82.4786C68.9815 82.4786 72.1167 77.5213 72.1167 71.4063C72.1167 65.2912 68.9815 60.334 65.114 60.334C61.2465 60.334 58.1113 65.2912 58.1113 71.4063C58.1113 77.5213 61.2465 82.4786 65.114 82.4786Z" fill="white"/>
<path d="M65.114 82.4786C68.9815 82.4786 72.1167 77.5213 72.1167 71.4063C72.1167 65.2912 68.9815 60.334 65.114 60.334C61.2465 60.334 58.1113 65.2912 58.1113 71.4063C58.1113 77.5213 61.2465 82.4786 65.114 82.4786Z" stroke="black" stroke-width="1.22211" stroke-miterlimit="10"/>
<path d="M47.5527 94.248C47.5527 97.1689 49.9236 99.5275 52.8322 99.5275C55.7408 99.5275 58.1117 97.1567 58.1117 94.248" stroke="black" stroke-width="1.22211" stroke-miterlimit="10"/>
<path d="M58.123 94.248C58.123 97.1689 60.4939 99.5275 63.4026 99.5275C66.3112 99.5275 68.682 97.1567 68.682 94.248" stroke="black" stroke-width="1.22211" stroke-miterlimit="10"/>
<path d="M52.8322 89.0898C49.9114 89.0898 47.5527 91.4607 47.5527 94.3694" stroke="black" stroke-width="1.22211" stroke-miterlimit="10"/>
<path d="M65.1142 77.1626C66.7273 77.1626 68.035 74.5855 68.035 71.4065C68.035 68.2275 66.7273 65.6504 65.1142 65.6504C63.5011 65.6504 62.1934 68.2275 62.1934 71.4065C62.1934 74.5855 63.5011 77.1626 65.1142 77.1626Z" fill="black"/>
<mask id="mask2_1429_10049" style="mask-type:luminance" maskUnits="userSpaceOnUse" x="62" y="65" width="7" height="13">
<path d="M65.1142 77.1626C66.7273 77.1626 68.035 74.5855 68.035 71.4065C68.035 68.2275 66.7273 65.6504 65.1142 65.6504C63.5011 65.6504 62.1934 68.2275 62.1934 71.4065C62.1934 74.5855 63.5011 77.1626 65.1142 77.1626Z" fill="white"/>
</mask>
<g mask="url(#mask2_1429_10049)">
<path d="M65.1135 75.1835C66.1664 75.1835 67.02 73.4928 67.02 71.4072C67.02 69.3216 66.1664 67.6309 65.1135 67.6309C64.0606 67.6309 63.207 69.3216 63.207 71.4072C63.207 73.4928 64.0606 75.1835 65.1135 75.1835Z" fill="white" stroke="black" stroke-width="1.22211" stroke-miterlimit="10"/>
<path d="M69.2321 72.3978C69.7788 72.3978 70.222 71.9546 70.222 71.4079C70.222 70.8612 69.7788 70.418 69.2321 70.418C68.6854 70.418 68.2422 70.8612 68.2422 71.4079C68.2422 71.9546 68.6854 72.3978 69.2321 72.3978Z" stroke="black" stroke-width="1.22211" stroke-miterlimit="10"/>
</g>
<path d="M65.1142 77.1626C66.7273 77.1626 68.035 74.5855 68.035 71.4065C68.035 68.2275 66.7273 65.6504 65.1142 65.6504C63.5011 65.6504 62.1934 68.2275 62.1934 71.4065C62.1934 74.5855 63.5011 77.1626 65.1142 77.1626Z" stroke="black" stroke-width="1.22211" stroke-miterlimit="10"/>
<path d="M36.3337 74.7188C34.3172 74.7188 32.6552 76.2586 32.4719 78.2384C32.2886 76.2708 30.6265 74.7188 28.61 74.7188C26.5935 74.7188 24.9315 76.2586 24.7482 78.2384C24.5648 76.2708 22.9028 74.7188 20.8863 74.7188C18.7476 74.7188 17 76.4541 17 78.605V86.3654C17 88.5041 18.7354 90.2517 20.8863 90.2517C22.9028 90.2517 24.5648 88.7119 24.7482 86.7321C24.9315 88.6997 26.5935 90.2517 28.61 90.2517C30.6265 90.2517 32.2886 88.7119 32.4719 86.7321C32.6552 88.6997 34.3172 90.2517 36.3337 90.2517C38.4724 90.2517 40.2201 88.5163 40.2201 86.3654V78.605C40.2201 76.4664 38.4846 74.7188 36.3337 74.7188Z" fill="#FF57CC" stroke="black" stroke-width="1.22211" stroke-miterlimit="10"/>
<path d="M95.9236 74.7188C93.9071 74.7188 92.2451 76.2586 92.0617 78.2384C91.8784 76.2708 90.2163 74.7188 88.1999 74.7188C86.1834 74.7188 84.5214 76.2586 84.338 78.2384C84.1547 76.2708 82.4927 74.7188 80.4762 74.7188C78.3375 74.7188 76.5898 76.4541 76.5898 78.605V86.3654C76.5898 88.5041 78.3253 90.2517 80.4762 90.2517C82.4927 90.2517 84.1547 88.7119 84.338 86.7321C84.5214 88.6997 86.1834 90.2517 88.1999 90.2517C90.2163 90.2517 91.8784 88.7119 92.0617 86.7321C92.2451 88.6997 93.9071 90.2517 95.9236 90.2517C98.0623 90.2517 99.8099 88.5163 99.8099 86.3654V78.605C99.8099 76.4664 98.0745 74.7188 95.9236 74.7188Z" fill="#FF57CC" stroke="black" stroke-width="1.22211" stroke-miterlimit="10"/>
</g>
<defs>
<clipPath id="clip0_1429_10049">
<rect width="142" height="142" fill="white"/>
</clipPath>
<clipPath id="clip1_1429_10049">
<rect width="541.85" height="541.85" fill="white" transform="translate(-1.54688)"/>
</clipPath>
</defs>
</svg>
