<svg width="142" height="142" viewBox="0 0 142 142" fill="none" xmlns="http://www.w3.org/2000/svg">
<g clip-path="url(#clip0_1429_7752)">
<rect width="142" height="142" fill="#FFFF45"/>
<g clip-path="url(#clip1_1429_7752)">
<path d="M26.1602 12.0273L26.1602 27.5272" stroke="black" stroke-width="1.09231" stroke-miterlimit="10"/>
<path d="M26.1602 30.8809L26.1602 46.3807" stroke="black" stroke-width="1.09231" stroke-miterlimit="10"/>
<path d="M43.3416 29.1992L27.8418 29.1992" stroke="black" stroke-width="1.09231" stroke-miterlimit="10"/>
<path d="M24.4881 29.1992L8.98828 29.1992" stroke="black" stroke-width="1.09231" stroke-miterlimit="10"/>
<path d="M70.2012 12.0273L70.2012 27.5272" stroke="black" stroke-width="1.09231" stroke-miterlimit="10"/>
<path d="M70.2012 30.8809L70.2012 46.3807" stroke="black" stroke-width="1.09231" stroke-miterlimit="10"/>
<path d="M87.3827 29.1992L71.8828 29.1992" stroke="black" stroke-width="1.09231" stroke-miterlimit="10"/>
<path d="M68.5194 29.1992L53.0195 29.1992" stroke="black" stroke-width="1.09231" stroke-miterlimit="10"/>
<path d="M114.242 12.0273L114.242 27.5272" stroke="black" stroke-width="1.09231" stroke-miterlimit="10"/>
<path d="M114.242 30.8809L114.242 46.3807" stroke="black" stroke-width="1.09231" stroke-miterlimit="10"/>
<path d="M131.424 29.1992L115.924 29.1992" stroke="black" stroke-width="1.09231" stroke-miterlimit="10"/>
<path d="M112.56 29.1992L97.0605 29.1992" stroke="black" stroke-width="1.09231" stroke-miterlimit="10"/>
<path d="M156.603 29.1992L141.104 29.1992" stroke="black" stroke-width="1.09231" stroke-miterlimit="10"/>
<path d="M26.1602 55.9023L26.1602 71.4022" stroke="black" stroke-width="1.09231" stroke-miterlimit="10"/>
<path d="M26.1602 74.7559L26.1602 90.2557" stroke="black" stroke-width="1.09231" stroke-miterlimit="10"/>
<path d="M43.3416 73.084L27.8418 73.084" stroke="black" stroke-width="1.09231" stroke-miterlimit="10"/>
<path d="M24.4881 73.084L8.98828 73.084" stroke="black" stroke-width="1.09231" stroke-miterlimit="10"/>
<path d="M70.2012 55.9023L70.2012 71.4022" stroke="black" stroke-width="1.09231" stroke-miterlimit="10"/>
<path d="M70.2012 74.7559L70.2012 90.2557" stroke="black" stroke-width="1.09231" stroke-miterlimit="10"/>
<path d="M87.3827 73.084L71.8828 73.084" stroke="black" stroke-width="1.09231" stroke-miterlimit="10"/>
<path d="M68.5194 73.084L53.0195 73.084" stroke="black" stroke-width="1.09231" stroke-miterlimit="10"/>
<path d="M114.242 55.9023L114.242 71.4022" stroke="black" stroke-width="1.09231" stroke-miterlimit="10"/>
<path d="M114.242 74.7559L114.242 90.2557" stroke="black" stroke-width="1.09231" stroke-miterlimit="10"/>
<path d="M131.424 73.084L115.924 73.084" stroke="black" stroke-width="1.09231" stroke-miterlimit="10"/>
<path d="M112.56 73.084L97.0605 73.084" stroke="black" stroke-width="1.09231" stroke-miterlimit="10"/>
<path d="M156.603 73.084L141.104 73.084" stroke="black" stroke-width="1.09231" stroke-miterlimit="10"/>
<path d="M26.1602 99.7832L26.1602 115.283" stroke="black" stroke-width="1.09231" stroke-miterlimit="10"/>
<path d="M26.1602 118.637L26.1602 134.137" stroke="black" stroke-width="1.09231" stroke-miterlimit="10"/>
<path d="M43.3416 116.965L27.8418 116.965" stroke="black" stroke-width="1.09231" stroke-miterlimit="10"/>
<path d="M24.4881 116.965L8.98828 116.965" stroke="black" stroke-width="1.09231" stroke-miterlimit="10"/>
<path d="M70.2012 99.7832L70.2012 115.283" stroke="black" stroke-width="1.09231" stroke-miterlimit="10"/>
<path d="M70.2012 118.637L70.2012 134.137" stroke="black" stroke-width="1.09231" stroke-miterlimit="10"/>
<path d="M87.3827 116.965L71.8828 116.965" stroke="black" stroke-width="1.09231" stroke-miterlimit="10"/>
<path d="M68.5194 116.965L53.0195 116.965" stroke="black" stroke-width="1.09231" stroke-miterlimit="10"/>
<path d="M114.242 99.7832L114.242 115.283" stroke="black" stroke-width="1.09231" stroke-miterlimit="10"/>
<path d="M114.242 118.637L114.242 134.137" stroke="black" stroke-width="1.09231" stroke-miterlimit="10"/>
<path d="M131.424 116.965L115.924 116.965" stroke="black" stroke-width="1.09231" stroke-miterlimit="10"/>
<path d="M112.56 116.965L97.0605 116.965" stroke="black" stroke-width="1.09231" stroke-miterlimit="10"/>
<path d="M156.603 116.965L141.104 116.965" stroke="black" stroke-width="1.09231" stroke-miterlimit="10"/>
</g>
<path d="M70.5063 158.121C99.549 158.121 123.093 134.104 123.093 104.477C123.093 74.8495 99.549 50.832 70.5063 50.832C41.4636 50.832 17.9199 74.8495 17.9199 104.477C17.9199 134.104 41.4636 158.121 70.5063 158.121Z" fill="#FF0083" stroke="black" stroke-width="1.27482" stroke-miterlimit="10"/>
<path d="M80.1051 61.7305C80.1051 67.1357 75.8089 71.5211 70.5057 71.5211C65.2024 71.5211 60.9062 67.1357 60.9062 61.7305" fill="#FF0083"/>
<path d="M80.1051 61.7305C80.1051 67.1357 75.8089 71.5211 70.5057 71.5211C65.2024 71.5211 60.9062 67.1357 60.9062 61.7305" stroke="black" stroke-width="1.27482" stroke-miterlimit="10"/>
<path d="M70.5059 12C70.5059 19.4705 76.4465 25.5386 83.7768 25.5386C91.107 25.5386 97.0476 19.4832 97.0476 12H70.5059Z" fill="#66FF95" stroke="#231815" stroke-width="1.27482" stroke-miterlimit="10"/>
<path d="M63.5836 105.546C67.4278 105.546 70.5441 100.026 70.5441 93.2181C70.5441 86.4098 67.4278 80.8906 63.5836 80.8906C59.7394 80.8906 56.623 86.4098 56.623 93.2181C56.623 100.026 59.7394 105.546 63.5836 105.546Z" fill="white"/>
<mask id="mask0_1429_7752" style="mask-type:luminance" maskUnits="userSpaceOnUse" x="56" y="80" width="15" height="26">
<path d="M63.5836 105.546C67.4278 105.546 70.5441 100.026 70.5441 93.2181C70.5441 86.4098 67.4278 80.8906 63.5836 80.8906C59.7394 80.8906 56.623 86.4098 56.623 93.2181C56.623 100.026 59.7394 105.546 63.5836 105.546Z" fill="white"/>
</mask>
<g mask="url(#mask0_1429_7752)">
<path d="M59.7083 97.591C62.0809 97.591 64.0044 95.6333 64.0044 93.2183C64.0044 90.8034 62.0809 88.8457 59.7083 88.8457C57.3356 88.8457 55.4121 90.8034 55.4121 93.2183C55.4121 95.6333 57.3356 97.591 59.7083 97.591Z" fill="black" stroke="black" stroke-width="1.27482" stroke-miterlimit="10"/>
</g>
<path d="M63.5836 105.546C67.4278 105.546 70.5441 100.026 70.5441 93.2181C70.5441 86.4098 67.4278 80.8906 63.5836 80.8906C59.7394 80.8906 56.623 86.4098 56.623 93.2181C56.623 100.026 59.7394 105.546 63.5836 105.546Z" stroke="black" stroke-width="1.27482" stroke-miterlimit="10"/>
<path d="M49.65 105.546C53.4942 105.546 56.6105 100.026 56.6105 93.2181C56.6105 86.4098 53.4942 80.8906 49.65 80.8906C45.8058 80.8906 42.6895 86.4098 42.6895 93.2181C42.6895 100.026 45.8058 105.546 49.65 105.546Z" fill="white"/>
<mask id="mask1_1429_7752" style="mask-type:luminance" maskUnits="userSpaceOnUse" x="42" y="80" width="15" height="26">
<path d="M49.65 105.546C53.4942 105.546 56.6105 100.026 56.6105 93.2181C56.6105 86.4098 53.4942 80.8906 49.65 80.8906C45.8058 80.8906 42.6895 86.4098 42.6895 93.2181C42.6895 100.026 45.8058 105.546 49.65 105.546Z" fill="white"/>
</mask>
<g mask="url(#mask1_1429_7752)">
<path d="M45.7747 97.591C48.1474 97.591 50.0708 95.6333 50.0708 93.2183C50.0708 90.8034 48.1474 88.8457 45.7747 88.8457C43.402 88.8457 41.4785 90.8034 41.4785 93.2183C41.4785 95.6333 43.402 97.591 45.7747 97.591Z" fill="black" stroke="black" stroke-width="1.27482" stroke-miterlimit="10"/>
</g>
<path d="M49.65 105.546C53.4942 105.546 56.6105 100.026 56.6105 93.2181C56.6105 86.4098 53.4942 80.8906 49.65 80.8906C45.8058 80.8906 42.6895 86.4098 42.6895 93.2181C42.6895 100.026 45.8058 105.546 49.65 105.546Z" stroke="black" stroke-width="1.27482" stroke-miterlimit="10"/>
<path d="M39.1074 111.5C39.1074 114.789 41.7208 117.453 44.9461 117.453C48.1714 117.453 50.7848 114.789 50.7848 111.5" stroke="black" stroke-width="1.27482" stroke-miterlimit="10"/>
<path d="M50.7715 111.5C50.7715 114.789 53.3849 117.453 56.6102 117.453C59.8355 117.453 62.4489 114.789 62.4489 111.5" stroke="black" stroke-width="1.27482" stroke-miterlimit="10"/>
<path d="M62.4492 111.5C62.4492 114.789 65.0626 117.453 68.2879 117.453C71.5132 117.453 74.1266 114.789 74.1266 111.5" stroke="black" stroke-width="1.27482" stroke-miterlimit="10"/>
<path d="M70.5059 71.5214V12" stroke="black" stroke-width="1.27482" stroke-miterlimit="10"/>
<path d="M111.489 92.7813C113.794 91.5973 113.336 86.109 110.466 80.5228C107.596 74.9365 103.401 71.3677 101.097 72.5516C98.7921 73.7355 99.2502 79.2239 102.12 84.8101C104.99 90.3964 109.184 93.9652 111.489 92.7813Z" fill="white" stroke="black" stroke-width="1.27482" stroke-miterlimit="10"/>
</g>
<defs>
<clipPath id="clip0_1429_7752">
<rect width="142" height="142" fill="white"/>
</clipPath>
<clipPath id="clip1_1429_7752">
<rect width="541.85" height="541.85" fill="white" transform="translate(-2.54688)"/>
</clipPath>
</defs>
</svg>
