<svg width="142" height="142" viewBox="0 0 142 142" fill="none" xmlns="http://www.w3.org/2000/svg">
<g clip-path="url(#clip0_1429_14022)">
<rect width="142" height="142" fill="#FF805F"/>
<g clip-path="url(#clip1_1429_14022)">
<path d="M27.1602 12.0273L27.1602 27.5272" stroke="black" stroke-width="1.09231" stroke-miterlimit="10"/>
<path d="M27.1602 30.8809L27.1602 46.3807" stroke="black" stroke-width="1.09231" stroke-miterlimit="10"/>
<path d="M44.3416 29.1992L28.8418 29.1992" stroke="black" stroke-width="1.09231" stroke-miterlimit="10"/>
<path d="M25.4881 29.1992L9.98828 29.1992" stroke="black" stroke-width="1.09231" stroke-miterlimit="10"/>
<path d="M71.2012 12.0273L71.2012 27.5272" stroke="black" stroke-width="1.09231" stroke-miterlimit="10"/>
<path d="M71.2012 30.8809L71.2012 46.3807" stroke="black" stroke-width="1.09231" stroke-miterlimit="10"/>
<path d="M88.3827 29.1992L72.8828 29.1992" stroke="black" stroke-width="1.09231" stroke-miterlimit="10"/>
<path d="M69.5194 29.1992L54.0195 29.1992" stroke="black" stroke-width="1.09231" stroke-miterlimit="10"/>
<path d="M115.242 12.0273L115.242 27.5272" stroke="black" stroke-width="1.09231" stroke-miterlimit="10"/>
<path d="M115.242 30.8809L115.242 46.3807" stroke="black" stroke-width="1.09231" stroke-miterlimit="10"/>
<path d="M132.424 29.1992L116.924 29.1992" stroke="black" stroke-width="1.09231" stroke-miterlimit="10"/>
<path d="M113.56 29.1992L98.0605 29.1992" stroke="black" stroke-width="1.09231" stroke-miterlimit="10"/>
<path d="M27.1602 55.9023L27.1602 71.4022" stroke="black" stroke-width="1.09231" stroke-miterlimit="10"/>
<path d="M27.1602 74.7559L27.1602 90.2557" stroke="black" stroke-width="1.09231" stroke-miterlimit="10"/>
<path d="M44.3416 73.084L28.8418 73.084" stroke="black" stroke-width="1.09231" stroke-miterlimit="10"/>
<path d="M25.4881 73.084L9.98828 73.084" stroke="black" stroke-width="1.09231" stroke-miterlimit="10"/>
<path d="M71.2012 55.9023L71.2012 71.4022" stroke="black" stroke-width="1.09231" stroke-miterlimit="10"/>
<path d="M71.2012 74.7559L71.2012 90.2557" stroke="black" stroke-width="1.09231" stroke-miterlimit="10"/>
<path d="M88.3827 73.084L72.8828 73.084" stroke="black" stroke-width="1.09231" stroke-miterlimit="10"/>
<path d="M69.5194 73.084L54.0195 73.084" stroke="black" stroke-width="1.09231" stroke-miterlimit="10"/>
<path d="M115.242 55.9023L115.242 71.4022" stroke="black" stroke-width="1.09231" stroke-miterlimit="10"/>
<path d="M115.242 74.7559L115.242 90.2557" stroke="black" stroke-width="1.09231" stroke-miterlimit="10"/>
<path d="M132.424 73.084L116.924 73.084" stroke="black" stroke-width="1.09231" stroke-miterlimit="10"/>
<path d="M113.56 73.084L98.0605 73.084" stroke="black" stroke-width="1.09231" stroke-miterlimit="10"/>
<path d="M27.1602 99.7832L27.1602 115.283" stroke="black" stroke-width="1.09231" stroke-miterlimit="10"/>
<path d="M27.1602 118.637L27.1602 134.137" stroke="black" stroke-width="1.09231" stroke-miterlimit="10"/>
<path d="M44.3416 116.965L28.8418 116.965" stroke="black" stroke-width="1.09231" stroke-miterlimit="10"/>
<path d="M25.4881 116.965L9.98828 116.965" stroke="black" stroke-width="1.09231" stroke-miterlimit="10"/>
<path d="M71.2012 99.7832L71.2012 115.283" stroke="black" stroke-width="1.09231" stroke-miterlimit="10"/>
<path d="M71.2012 118.637L71.2012 134.137" stroke="black" stroke-width="1.09231" stroke-miterlimit="10"/>
<path d="M88.3827 116.965L72.8828 116.965" stroke="black" stroke-width="1.09231" stroke-miterlimit="10"/>
<path d="M69.5194 116.965L54.0195 116.965" stroke="black" stroke-width="1.09231" stroke-miterlimit="10"/>
<path d="M115.242 99.7832L115.242 115.283" stroke="black" stroke-width="1.09231" stroke-miterlimit="10"/>
<path d="M115.242 118.637L115.242 134.137" stroke="black" stroke-width="1.09231" stroke-miterlimit="10"/>
<path d="M132.424 116.965L116.924 116.965" stroke="black" stroke-width="1.09231" stroke-miterlimit="10"/>
<path d="M113.56 116.965L98.0605 116.965" stroke="black" stroke-width="1.09231" stroke-miterlimit="10"/>
</g>
<g clip-path="url(#clip2_1429_14022)">
<path d="M99.5951 124.521L95.6994 120.625C90.8207 115.746 82.913 115.746 78.0344 120.625C73.1558 125.504 73.1558 133.411 78.0344 138.29L78.6331 138.889C78.0076 138.969 77.3732 139.094 76.7477 139.273C74.7194 139.871 72.9592 140.944 71.5474 142.32C70.1357 140.935 68.3754 139.871 66.3471 139.273C65.5787 139.049 64.8103 138.906 64.0418 138.826L64.5869 138.281C69.4655 133.402 69.4655 125.495 64.5869 120.616C59.7082 115.737 51.8006 115.737 46.9219 120.616L43.0262 124.512C38.1475 129.39 38.1475 137.298 43.0262 142.177C45.394 144.545 48.4767 145.751 51.5772 145.822C51.2823 146.43 51.0232 147.055 50.8266 147.717L49.2719 153.006C47.324 159.627 51.1036 166.57 57.7246 168.518C63.0411 170.081 68.5631 167.946 71.5385 163.621C74.5229 167.946 80.0359 170.09 85.3524 168.518C91.9734 166.57 95.753 159.618 93.8051 153.006L92.2504 147.717C92.0538 147.046 91.7857 146.412 91.4909 145.796C94.4306 145.617 97.3256 144.419 99.5773 142.177C104.456 137.298 104.456 129.39 99.5773 124.512L99.5951 124.521Z" fill="white" stroke="black" stroke-width="0.893524" stroke-miterlimit="10"/>
<path d="M69.744 152.97C77.4867 152.97 83.7634 145.577 83.7634 136.458C83.7634 127.338 77.4867 119.945 69.744 119.945C62.0013 119.945 55.7246 127.338 55.7246 136.458C55.7246 145.577 62.0013 152.97 69.744 152.97Z" fill="#66FF95" stroke="#231815" stroke-width="0.893524" stroke-miterlimit="10"/>
<path d="M96.0212 71.231C100.739 65.7984 103.795 57.1759 103.795 47.4722C103.786 31.0314 95.0472 17.709 84.2624 17.709C79.5446 17.709 75.2199 20.2555 71.8514 24.4998C68.4738 20.2645 64.1492 17.709 59.4314 17.709C48.6465 17.709 39.8989 31.0314 39.8989 47.4722C39.8989 56.8364 42.7404 65.1819 47.1722 70.6413C41.3286 76.6815 37.7188 84.9109 37.7188 93.9891C37.7188 112.539 52.7568 127.577 71.3063 127.577C89.8559 127.577 104.894 112.539 104.894 93.9891C104.894 85.2057 101.525 77.2176 96.0033 71.231H96.0212Z" fill="white" stroke="black" stroke-width="0.893524" stroke-miterlimit="10"/>
<path d="M96.013 71.231C100.731 65.7984 103.787 57.1759 103.787 47.4723C103.778 31.0314 95.0391 17.709 84.2453 17.709C73.4515 17.709 64.7129 31.0314 64.7129 47.4723C64.7129 52.2258 65.4456 56.7202 66.7501 60.7143" fill="white"/>
<path d="M96.013 71.231C100.731 65.7984 103.787 57.1759 103.787 47.4723C103.778 31.0314 95.0391 17.709 84.2453 17.709C73.4515 17.709 64.7129 31.0314 64.7129 47.4723C64.7129 52.2258 65.4456 56.7202 66.7501 60.7143" stroke="black" stroke-width="0.893524" stroke-miterlimit="10"/>
<path d="M60.2007 97.741C62.9197 97.741 65.124 94.2566 65.124 89.9584C65.124 85.6602 62.9197 82.1758 60.2007 82.1758C57.4816 82.1758 55.2773 85.6602 55.2773 89.9584C55.2773 94.2566 57.4816 97.741 60.2007 97.741Z" fill="white"/>
<path d="M60.2007 97.741C62.9197 97.741 65.124 94.2566 65.124 89.9584C65.124 85.6602 62.9197 82.1758 60.2007 82.1758C57.4816 82.1758 55.2773 85.6602 55.2773 89.9584C55.2773 94.2566 57.4816 97.741 60.2007 97.741Z" stroke="black" stroke-width="0.893524" stroke-miterlimit="10"/>
<path d="M70.0483 97.741C72.7674 97.741 74.9716 94.2566 74.9716 89.9584C74.9716 85.6602 72.7674 82.1758 70.0483 82.1758C67.3292 82.1758 65.125 85.6602 65.125 89.9584C65.125 94.2566 67.3292 97.741 70.0483 97.741Z" fill="white"/>
<path d="M70.0483 97.741C72.7674 97.741 74.9716 94.2566 74.9716 89.9584C74.9716 85.6602 72.7674 82.1758 70.0483 82.1758C67.3292 82.1758 65.125 85.6602 65.125 89.9584C65.125 94.2566 67.3292 97.741 70.0483 97.741Z" stroke="black" stroke-width="0.893524" stroke-miterlimit="10"/>
<path d="M70.0473 94.0055C71.1823 94.0055 72.1024 92.1933 72.1024 89.9578C72.1024 87.7224 71.1823 85.9102 70.0473 85.9102C68.9123 85.9102 67.9922 87.7224 67.9922 89.9578C67.9922 92.1933 68.9123 94.0055 70.0473 94.0055Z" fill="black"/>
<mask id="mask0_1429_14022" style="mask-type:luminance" maskUnits="userSpaceOnUse" x="67" y="85" width="6" height="10">
<path d="M70.0473 94.0055C71.1823 94.0055 72.1024 92.1933 72.1024 89.9578C72.1024 87.7224 71.1823 85.9102 70.0473 85.9102C68.9123 85.9102 67.9922 87.7224 67.9922 89.9578C67.9922 92.1933 68.9123 94.0055 70.0473 94.0055Z" fill="white"/>
</mask>
<g mask="url(#mask0_1429_14022)">
<path d="M69.0297 90.9579C69.77 90.9579 70.37 89.7698 70.37 88.3042C70.37 86.8385 69.77 85.6504 69.0297 85.6504C68.2895 85.6504 67.6895 86.8385 67.6895 88.3042C67.6895 89.7698 68.2895 90.9579 69.0297 90.9579Z" fill="white" stroke="black" stroke-width="0.893524" stroke-miterlimit="10"/>
<path d="M72.9352 90.6537C73.3201 90.6537 73.6322 90.3416 73.6322 89.9567C73.6322 89.5718 73.3201 89.2598 72.9352 89.2598C72.5503 89.2598 72.2383 89.5718 72.2383 89.9567C72.2383 90.3416 72.5503 90.6537 72.9352 90.6537Z" stroke="black" stroke-width="0.893524" stroke-miterlimit="10"/>
<path d="M72.0239 93.9423C72.7641 93.9423 73.3642 92.7542 73.3642 91.2885C73.3642 89.8229 72.7641 88.6348 72.0239 88.6348C71.2837 88.6348 70.6836 89.8229 70.6836 91.2885C70.6836 92.7542 71.2837 93.9423 72.0239 93.9423Z" fill="white" stroke="black" stroke-width="0.893524" stroke-miterlimit="10"/>
</g>
<path d="M70.0473 94.0055C71.1823 94.0055 72.1024 92.1933 72.1024 89.9578C72.1024 87.7224 71.1823 85.9102 70.0473 85.9102C68.9123 85.9102 67.9922 87.7224 67.9922 89.9578C67.9922 92.1933 68.9123 94.0055 70.0473 94.0055Z" stroke="black" stroke-width="0.893524" stroke-miterlimit="10"/>
<path d="M60.2016 94.0055C61.3366 94.0055 62.2567 92.1933 62.2567 89.9578C62.2567 87.7224 61.3366 85.9102 60.2016 85.9102C59.0666 85.9102 58.1465 87.7224 58.1465 89.9578C58.1465 92.1933 59.0666 94.0055 60.2016 94.0055Z" fill="black"/>
<mask id="mask1_1429_14022" style="mask-type:luminance" maskUnits="userSpaceOnUse" x="58" y="85" width="5" height="10">
<path d="M60.2016 94.0055C61.3366 94.0055 62.2567 92.1933 62.2567 89.9578C62.2567 87.7224 61.3366 85.9102 60.2016 85.9102C59.0666 85.9102 58.1465 87.7224 58.1465 89.9578C58.1465 92.1933 59.0666 94.0055 60.2016 94.0055Z" fill="white"/>
</mask>
<g mask="url(#mask1_1429_14022)">
<path d="M59.1918 90.9579C59.9321 90.9579 60.5321 89.7698 60.5321 88.3042C60.5321 86.8385 59.9321 85.6504 59.1918 85.6504C58.4516 85.6504 57.8516 86.8385 57.8516 88.3042C57.8516 89.7698 58.4516 90.9579 59.1918 90.9579Z" fill="white" stroke="black" stroke-width="0.893524" stroke-miterlimit="10"/>
<path d="M63.0876 90.6537C63.4725 90.6537 63.7845 90.3416 63.7845 89.9567C63.7845 89.5718 63.4725 89.2598 63.0876 89.2598C62.7027 89.2598 62.3906 89.5718 62.3906 89.9567C62.3906 90.3416 62.7027 90.6537 63.0876 90.6537Z" stroke="black" stroke-width="0.893524" stroke-miterlimit="10"/>
<path d="M62.1762 93.9423C62.9164 93.9423 63.5165 92.7542 63.5165 91.2885C63.5165 89.8229 62.9164 88.6348 62.1762 88.6348C61.436 88.6348 60.8359 89.8229 60.8359 91.2885C60.8359 92.7542 61.436 93.9423 62.1762 93.9423Z" fill="white" stroke="black" stroke-width="0.893524" stroke-miterlimit="10"/>
</g>
<path d="M60.2016 94.0055C61.3366 94.0055 62.2567 92.1933 62.2567 89.9578C62.2567 87.7224 61.3366 85.9102 60.2016 85.9102C59.0666 85.9102 58.1465 87.7224 58.1465 89.9578C58.1465 92.1933 59.0666 94.0055 60.2016 94.0055Z" stroke="black" stroke-width="0.893524" stroke-miterlimit="10"/>
<path d="M52.194 101.611C54.7552 101.611 56.8314 99.5345 56.8314 96.9733C56.8314 94.4122 54.7552 92.3359 52.194 92.3359C49.6329 92.3359 47.5566 94.4122 47.5566 96.9733C47.5566 99.5345 49.6329 101.611 52.194 101.611Z" fill="#66FF95" stroke="#231815" stroke-width="0.893524" stroke-miterlimit="10"/>
<path d="M78.2682 101.611C80.8294 101.611 82.9056 99.5345 82.9056 96.9733C82.9056 94.4122 80.8294 92.3359 78.2682 92.3359C75.7071 92.3359 73.6309 94.4122 73.6309 96.9733C73.6309 99.5345 75.7071 101.611 78.2682 101.611Z" fill="#66FF95" stroke="#231815" stroke-width="0.893524" stroke-miterlimit="10"/>
<path d="M72.6384 102.389C72.6384 106.535 69.2788 109.903 65.1239 109.903C60.969 109.903 57.6094 106.544 57.6094 102.389" fill="white"/>
<path d="M72.6384 102.389C72.6384 106.535 69.2788 109.903 65.1239 109.903C60.969 109.903 57.6094 106.544 57.6094 102.389" stroke="black" stroke-width="0.893524" stroke-miterlimit="10"/>
<path d="M79.5088 62.5905C82.0798 62.5905 84.164 57.2099 84.164 50.5726C84.164 43.9353 82.0798 38.5547 79.5088 38.5547C76.9377 38.5547 74.8535 43.9353 74.8535 50.5726C74.8535 57.2099 76.9377 62.5905 79.5088 62.5905Z" fill="white" stroke="black" stroke-width="0.893524" stroke-miterlimit="10"/>
<path d="M53.3213 62.5905C55.8923 62.5905 57.9765 57.2099 57.9765 50.5726C57.9765 43.9353 55.8923 38.5547 53.3213 38.5547C50.7502 38.5547 48.666 43.9353 48.666 50.5726C48.666 57.2099 50.7502 62.5905 53.3213 62.5905Z" fill="white" stroke="black" stroke-width="0.893524" stroke-miterlimit="10"/>
<path d="M51.3006 132.276L42.5262 120.99C40.9893 119.016 38.0675 118.828 36.2983 120.606L35.378 121.526C33.6088 123.296 33.7875 126.217 35.7622 127.754L47.0474 136.529C49.862 138.718 53.4808 135.09 51.2916 132.285L51.3006 132.276Z" fill="#FF805F" stroke="black" stroke-width="0.893524" stroke-miterlimit="10"/>
<path d="M37.5759 119.337C36.6198 118.381 35.074 118.381 34.1269 119.337C34.109 119.319 34.0912 119.31 34.0733 119.293C35.0294 118.336 35.0294 116.791 34.0733 115.844C33.1172 114.896 31.5714 114.887 30.6243 115.844C30.6064 115.826 30.5886 115.817 30.5707 115.799C31.5268 114.843 31.5268 113.297 30.5707 112.35C29.6146 111.394 28.0688 111.394 27.1217 112.35C26.1656 111.394 24.6198 111.394 23.6727 112.35C22.7256 113.306 22.7166 114.852 23.6727 115.799C24.6288 116.746 26.1746 116.755 27.1217 115.799C27.1396 115.817 27.1574 115.826 27.1753 115.844C26.2192 116.8 26.2192 118.345 27.1753 119.293C28.1314 120.24 29.6772 120.249 30.6243 119.293C30.6422 119.31 30.66 119.319 30.6779 119.337C29.7218 120.293 29.7218 121.839 30.6779 122.786C31.634 123.733 33.1798 123.742 34.1269 122.786C35.083 123.742 36.6288 123.742 37.5759 122.786C38.532 121.83 38.532 120.284 37.5759 119.337Z" fill="#66FF95" stroke="#231815" stroke-width="0.893524" stroke-miterlimit="10"/>
<path d="M34.1185 122.796C33.1624 121.84 33.1624 120.294 34.1185 119.347C34.1006 119.329 34.0917 119.311 34.0738 119.293C33.1177 120.25 31.5719 120.25 30.6248 119.293C29.6777 118.337 29.6687 116.792 30.6248 115.844C30.6069 115.827 30.598 115.809 30.5801 115.791C29.624 116.747 28.0783 116.747 27.1311 115.791C26.184 114.835 26.175 113.289 27.1311 112.342C26.175 111.386 26.175 109.84 27.1311 108.893C28.0872 107.937 29.633 107.937 30.5801 108.893C31.5273 109.849 31.5362 111.395 30.5801 112.342C30.598 112.36 30.6069 112.378 30.6248 112.395C31.5809 111.439 33.1267 111.439 34.0738 112.395C35.0209 113.352 35.0299 114.897 34.0738 115.844C34.0917 115.862 34.1006 115.88 34.1185 115.898C35.0745 114.942 36.6203 114.942 37.5675 115.898C38.5146 116.854 38.5235 118.4 37.5675 119.347C38.5235 120.303 38.5235 121.849 37.5675 122.796C36.6114 123.743 35.0656 123.752 34.1185 122.796Z" fill="#66FF95" stroke="#231815" stroke-width="0.893524" stroke-miterlimit="10"/>
</g>
</g>
<defs>
<clipPath id="clip0_1429_14022">
<rect width="142" height="142" fill="white"/>
</clipPath>
<clipPath id="clip1_1429_14022">
<rect width="541.85" height="541.85" fill="white" transform="translate(-1.54688)"/>
</clipPath>
<clipPath id="clip2_1429_14022">
<rect width="82.8386" height="152.23" fill="white" transform="translate(22.5117 17.2617)"/>
</clipPath>
</defs>
</svg>
