<svg width="142" height="142" viewBox="0 0 142 142" fill="none" xmlns="http://www.w3.org/2000/svg">
<g clip-path="url(#clip0_1429_6217)">
<rect width="142" height="142" fill="#FFFF45"/>
<g clip-path="url(#clip1_1429_6217)">
<path d="M28.1602 12.0273L28.1602 27.5272" stroke="black" stroke-width="1.09231" stroke-miterlimit="10"/>
<path d="M28.1602 30.8809L28.1602 46.3807" stroke="black" stroke-width="1.09231" stroke-miterlimit="10"/>
<path d="M45.3416 29.1992L29.8418 29.1992" stroke="black" stroke-width="1.09231" stroke-miterlimit="10"/>
<path d="M26.4881 29.1992L10.9883 29.1992" stroke="black" stroke-width="1.09231" stroke-miterlimit="10"/>
<path d="M72.2012 12.0273L72.2012 27.5272" stroke="black" stroke-width="1.09231" stroke-miterlimit="10"/>
<path d="M72.2012 30.8809L72.2012 46.3807" stroke="black" stroke-width="1.09231" stroke-miterlimit="10"/>
<path d="M89.3827 29.1992L73.8828 29.1992" stroke="black" stroke-width="1.09231" stroke-miterlimit="10"/>
<path d="M70.5194 29.1992L55.0195 29.1992" stroke="black" stroke-width="1.09231" stroke-miterlimit="10"/>
<path d="M116.242 12.0273L116.242 27.5272" stroke="black" stroke-width="1.09231" stroke-miterlimit="10"/>
<path d="M116.242 30.8809L116.242 46.3807" stroke="black" stroke-width="1.09231" stroke-miterlimit="10"/>
<path d="M133.424 29.1992L117.924 29.1992" stroke="black" stroke-width="1.09231" stroke-miterlimit="10"/>
<path d="M114.56 29.1992L99.0605 29.1992" stroke="black" stroke-width="1.09231" stroke-miterlimit="10"/>
<path d="M28.1602 55.9023L28.1602 71.4022" stroke="black" stroke-width="1.09231" stroke-miterlimit="10"/>
<path d="M28.1602 74.7559L28.1602 90.2557" stroke="black" stroke-width="1.09231" stroke-miterlimit="10"/>
<path d="M45.3416 73.084L29.8418 73.084" stroke="black" stroke-width="1.09231" stroke-miterlimit="10"/>
<path d="M26.4881 73.084L10.9883 73.084" stroke="black" stroke-width="1.09231" stroke-miterlimit="10"/>
<path d="M72.2012 55.9023L72.2012 71.4022" stroke="black" stroke-width="1.09231" stroke-miterlimit="10"/>
<path d="M72.2012 74.7559L72.2012 90.2557" stroke="black" stroke-width="1.09231" stroke-miterlimit="10"/>
<path d="M89.3827 73.084L73.8828 73.084" stroke="black" stroke-width="1.09231" stroke-miterlimit="10"/>
<path d="M70.5194 73.084L55.0195 73.084" stroke="black" stroke-width="1.09231" stroke-miterlimit="10"/>
<path d="M116.242 55.9023L116.242 71.4022" stroke="black" stroke-width="1.09231" stroke-miterlimit="10"/>
<path d="M116.242 74.7559L116.242 90.2557" stroke="black" stroke-width="1.09231" stroke-miterlimit="10"/>
<path d="M133.424 73.084L117.924 73.084" stroke="black" stroke-width="1.09231" stroke-miterlimit="10"/>
<path d="M114.56 73.084L99.0605 73.084" stroke="black" stroke-width="1.09231" stroke-miterlimit="10"/>
<path d="M28.1602 99.7832L28.1602 115.283" stroke="black" stroke-width="1.09231" stroke-miterlimit="10"/>
<path d="M28.1602 118.637L28.1602 134.137" stroke="black" stroke-width="1.09231" stroke-miterlimit="10"/>
<path d="M45.3416 116.965L29.8418 116.965" stroke="black" stroke-width="1.09231" stroke-miterlimit="10"/>
<path d="M26.4881 116.965L10.9883 116.965" stroke="black" stroke-width="1.09231" stroke-miterlimit="10"/>
<path d="M72.2012 99.7832L72.2012 115.283" stroke="black" stroke-width="1.09231" stroke-miterlimit="10"/>
<path d="M72.2012 118.637L72.2012 134.137" stroke="black" stroke-width="1.09231" stroke-miterlimit="10"/>
<path d="M89.3827 116.965L73.8828 116.965" stroke="black" stroke-width="1.09231" stroke-miterlimit="10"/>
<path d="M70.5194 116.965L55.0195 116.965" stroke="black" stroke-width="1.09231" stroke-miterlimit="10"/>
<path d="M116.242 99.7832L116.242 115.283" stroke="black" stroke-width="1.09231" stroke-miterlimit="10"/>
<path d="M116.242 118.637L116.242 134.137" stroke="black" stroke-width="1.09231" stroke-miterlimit="10"/>
<path d="M133.424 116.965L117.924 116.965" stroke="black" stroke-width="1.09231" stroke-miterlimit="10"/>
<path d="M114.56 116.965L99.0605 116.965" stroke="black" stroke-width="1.09231" stroke-miterlimit="10"/>
</g>
<path d="M137.369 77.2399L153.986 58.5293" stroke="black" stroke-miterlimit="10"/>
<path d="M137.367 79.1702C136.913 79.1702 136.45 79.0061 136.083 78.6877C135.283 77.9833 135.215 76.7578 135.919 75.9665L152.526 57.2559C153.231 56.4647 154.456 56.3875 155.248 57.0919C156.048 57.7963 156.116 59.0218 155.412 59.8131L138.805 78.5236C138.419 78.9482 137.888 79.1702 137.357 79.1702L137.367 79.1702Z" fill="#F7476C" stroke="black" stroke-miterlimit="10"/>
<path d="M93.8943 51.4387C99.6664 39.8817 98.5675 27.627 91.4398 24.067C84.312 20.507 73.8545 26.9899 68.0823 38.5469C62.3101 50.1039 63.4091 62.3586 70.5368 65.9186C77.6646 69.4786 88.1221 62.9957 93.8943 51.4387Z" fill="#F7476C" stroke="black" stroke-miterlimit="10"/>
<path d="M90.2446 129.083C96.6812 114.344 94.82 99.3033 86.0875 95.4899C77.3549 91.6766 65.0579 100.534 58.6213 115.274C52.1847 130.014 54.0459 145.054 62.7785 148.868C71.511 152.681 83.808 143.823 90.2446 129.083Z" fill="#F7476C" stroke="black" stroke-miterlimit="10"/>
<path d="M130.593 150.307C140.082 149.435 146.581 135.744 145.109 119.728C143.637 103.711 134.752 91.4341 125.263 92.306C115.774 93.1779 109.275 106.869 110.747 122.885C112.218 138.902 121.104 151.179 130.593 150.307Z" fill="#F7476C" stroke="black" stroke-miterlimit="10"/>
<path d="M137.368 92.7577C145.938 92.7577 152.885 85.8107 152.885 77.2412C152.885 68.6716 145.938 61.7246 137.368 61.7246C128.799 61.7246 121.852 68.6716 121.852 77.2412C121.852 85.8107 128.799 92.7577 137.368 92.7577Z" fill="#F7476C" stroke="black" stroke-miterlimit="10"/>
<path d="M109.827 116.187C123.508 116.187 134.598 108.242 134.598 98.4409C134.598 88.6403 123.508 80.6953 109.827 80.6953C96.1468 80.6953 85.0566 88.6403 85.0566 98.4409C85.0566 108.242 96.1468 116.187 109.827 116.187Z" fill="#F7476C" stroke="black" stroke-miterlimit="10"/>
<path d="M78.901 104.116C86.3194 104.116 92.3332 97.4757 92.3332 89.2846C92.3332 81.0934 86.3194 74.4531 78.901 74.4531C71.4826 74.4531 65.4687 81.0934 65.4687 89.2846C65.4687 97.4757 71.4826 104.116 78.901 104.116Z" fill="#F7476C" stroke="black" stroke-miterlimit="10"/>
<path d="M100.321 132.663C104.614 117.163 100.649 102.536 91.4663 99.9924C82.2831 97.4492 71.3587 107.953 67.0658 123.453C62.773 138.954 66.7374 153.581 75.9206 156.125C85.1037 158.668 96.0282 148.164 100.321 132.663Z" fill="#F7476C" stroke="black" stroke-miterlimit="10"/>
<path d="M84.8455 71.3815C87.7992 59.4194 77.6359 46.6214 62.1451 42.7964C46.6544 38.9715 31.7022 45.5679 28.7485 57.5301C25.7948 69.4922 35.9581 82.2902 51.4489 86.1152C66.9397 89.9401 81.8919 83.3437 84.8455 71.3815Z" fill="#F7476C" stroke="black" stroke-miterlimit="10"/>
<path d="M104.977 58.5759C111.436 47.3884 110.589 34.8067 103.084 30.4739C95.5797 26.1412 84.2599 31.6981 77.8008 42.8857C71.3416 54.0733 72.1891 66.655 79.6936 70.9877C87.1982 75.3205 98.518 69.7635 104.977 58.5759Z" fill="#F7476C" stroke="black" stroke-miterlimit="10"/>
<path d="M149.453 155.559C159.648 152.735 164.049 136.495 159.282 119.284C154.516 102.073 142.387 90.4099 132.192 93.2333C121.997 96.0568 117.596 112.298 122.363 129.509C127.129 146.719 139.258 158.382 149.453 155.559Z" fill="#F7476C" stroke="black" stroke-miterlimit="10"/>
<path d="M59.1191 57.3138C60.7227 52.867 59.7467 48.4414 56.9393 47.429C54.1318 46.4166 50.5559 49.2007 48.9524 53.6476C47.3488 58.0944 48.3247 62.5199 51.1322 63.5323C53.9396 64.5448 57.5155 61.7606 59.1191 57.3138Z" fill="white"/>
<path d="M59.1191 57.3138C60.7227 52.867 59.7467 48.4414 56.9393 47.429C54.1318 46.4166 50.5559 49.2007 48.9524 53.6476C47.3488 58.0944 48.3247 62.5199 51.1322 63.5323C53.9396 64.5448 57.5155 61.7606 59.1191 57.3138Z" stroke="black" stroke-miterlimit="10"/>
<path d="M69.2988 60.9896C70.9023 56.5428 69.9264 52.1172 67.1189 51.1048C64.3115 50.0924 60.7356 52.8765 59.1321 57.3233C57.5285 61.7701 58.5044 66.1957 61.3119 67.2081C64.1193 68.2205 67.6952 65.4364 69.2988 60.9896Z" fill="white"/>
<path d="M69.2988 60.9896C70.9023 56.5428 69.9264 52.1172 67.1189 51.1048C64.3115 50.0924 60.7356 52.8765 59.1321 57.3233C57.5285 61.7701 58.5044 66.1957 61.3119 67.2081C64.1193 68.2205 67.6952 65.4364 69.2988 60.9896Z" stroke="black" stroke-miterlimit="10"/>
<path d="M66.3374 59.9215C67.1708 57.6104 66.8954 55.3939 65.7223 54.9708C64.5492 54.5478 62.9226 56.0784 62.0891 58.3895C61.2557 60.7007 61.5311 62.9172 62.7042 63.3402C63.8773 63.7632 65.5039 62.2326 66.3374 59.9215Z" fill="black"/>
<mask id="mask0_1429_6217" style="mask-type:luminance" maskUnits="userSpaceOnUse" x="61" y="54" width="6" height="10">
<path d="M66.3374 59.9235C67.1708 57.6123 66.8954 55.3958 65.7223 54.9728C64.5492 54.5497 62.9226 56.0803 62.0891 58.3915C61.2557 60.7026 61.5311 62.9191 62.7042 63.3422C63.8773 63.7652 65.5039 62.2346 66.3374 59.9235Z" fill="white"/>
</mask>
<g mask="url(#mask0_1429_6217)">
<path d="M67.194 60.9914C67.615 60.9914 67.9563 60.6501 67.9563 60.2291C67.9563 59.8081 67.615 59.4668 67.194 59.4668C66.7729 59.4668 66.4316 59.8081 66.4316 60.2291C66.4316 60.6501 66.7729 60.9914 67.194 60.9914Z" fill="#F7476C" stroke="black" stroke-miterlimit="10"/>
</g>
<path d="M66.3374 59.9215C67.1708 57.6104 66.8954 55.3939 65.7223 54.9708C64.5492 54.5478 62.9226 56.0784 62.0891 58.3895C61.2557 60.7007 61.5311 62.9172 62.7042 63.3402C63.8773 63.7632 65.5039 62.2326 66.3374 59.9215Z" stroke="black" stroke-miterlimit="10"/>
<path d="M56.1596 56.2477C56.9931 53.9365 56.7177 51.72 55.5446 51.297C54.3715 50.874 52.7448 52.4046 51.9114 54.7157C51.078 57.0268 51.3533 59.2433 52.5265 59.6664C53.6996 60.0894 55.3262 58.5588 56.1596 56.2477Z" fill="black"/>
<mask id="mask1_1429_6217" style="mask-type:luminance" maskUnits="userSpaceOnUse" x="51" y="51" width="6" height="9">
<path d="M56.1596 56.2496C56.9931 53.9385 56.7177 51.722 55.5446 51.299C54.3715 50.8759 52.7448 52.4065 51.9114 54.7177C51.078 57.0288 51.3533 59.2453 52.5265 59.6683C53.6996 60.0914 55.3262 58.5608 56.1596 56.2496Z" fill="white"/>
</mask>
<g mask="url(#mask1_1429_6217)">
<path d="M57.028 57.3274C57.449 57.3274 57.7903 56.9861 57.7903 56.5651C57.7903 56.144 57.449 55.8027 57.028 55.8027C56.6069 55.8027 56.2656 56.144 56.2656 56.5651C56.2656 56.9861 56.6069 57.3274 57.028 57.3274Z" fill="#F7476C" stroke="black" stroke-miterlimit="10"/>
</g>
<path d="M56.1596 56.2477C56.9931 53.9365 56.7177 51.72 55.5446 51.297C54.3715 50.874 52.7448 52.4046 51.9114 54.7157C51.078 57.0268 51.3533 59.2433 52.5265 59.6664C53.6996 60.0894 55.3262 58.5588 56.1596 56.2477Z" stroke="black" stroke-miterlimit="10"/>
<path d="M56.4087 54.8111C56.9547 53.2971 56.556 51.7663 55.5183 51.3921C54.4805 51.0179 53.1967 51.9419 52.6507 53.4559C52.1047 54.9699 52.5034 56.5006 53.5411 56.8749C54.5789 57.2491 55.8628 56.3251 56.4087 54.8111Z" fill="white" stroke="black" stroke-miterlimit="10"/>
<path d="M66.5923 58.4751C67.1383 56.9611 66.7396 55.4304 65.7019 55.0562C64.6641 54.6819 63.3803 55.6059 62.8343 57.1199C62.2883 58.634 62.687 60.1647 63.7247 60.5389C64.7625 60.9132 66.0464 59.9892 66.5923 58.4751Z" fill="white" stroke="black" stroke-miterlimit="10"/>
<path d="M31.2217 54.8154L27.439 51.0424C26.4934 50.1063 24.9012 50.4634 24.4476 51.7178L22.9133 55.9733C22.4598 57.2278 23.4634 58.5208 24.7854 58.405L30.1023 57.9129C31.6366 57.7681 32.3121 55.9058 31.2217 54.8154Z" fill="#F7476C" stroke="black" stroke-miterlimit="10"/>
</g>
<defs>
<clipPath id="clip0_1429_6217">
<rect width="142" height="142" fill="white"/>
</clipPath>
<clipPath id="clip1_1429_6217">
<rect width="541.85" height="541.85" fill="white" transform="translate(-0.546875)"/>
</clipPath>
</defs>
</svg>
