<svg width="142" height="142" viewBox="0 0 142 142" fill="none" xmlns="http://www.w3.org/2000/svg">
<g clip-path="url(#clip0_1429_10860)">
<rect width="142" height="142" fill="#66FF95"/>
<g clip-path="url(#clip1_1429_10860)">
<path d="M27.1602 12.0273L27.1602 27.5272" stroke="black" stroke-width="1.09231" stroke-miterlimit="10"/>
<path d="M27.1602 30.8809L27.1602 46.3807" stroke="black" stroke-width="1.09231" stroke-miterlimit="10"/>
<path d="M44.3416 29.1992L28.8418 29.1992" stroke="black" stroke-width="1.09231" stroke-miterlimit="10"/>
<path d="M25.4881 29.1992L9.98828 29.1992" stroke="black" stroke-width="1.09231" stroke-miterlimit="10"/>
<path d="M71.2012 12.0273L71.2012 27.5272" stroke="black" stroke-width="1.09231" stroke-miterlimit="10"/>
<path d="M71.2012 30.8809L71.2012 46.3807" stroke="black" stroke-width="1.09231" stroke-miterlimit="10"/>
<path d="M88.3827 29.1992L72.8828 29.1992" stroke="black" stroke-width="1.09231" stroke-miterlimit="10"/>
<path d="M69.5194 29.1992L54.0195 29.1992" stroke="black" stroke-width="1.09231" stroke-miterlimit="10"/>
<path d="M115.242 12.0273L115.242 27.5272" stroke="black" stroke-width="1.09231" stroke-miterlimit="10"/>
<path d="M115.242 30.8809L115.242 46.3807" stroke="black" stroke-width="1.09231" stroke-miterlimit="10"/>
<path d="M132.424 29.1992L116.924 29.1992" stroke="black" stroke-width="1.09231" stroke-miterlimit="10"/>
<path d="M113.56 29.1992L98.0605 29.1992" stroke="black" stroke-width="1.09231" stroke-miterlimit="10"/>
<path d="M27.1602 55.9023L27.1602 71.4022" stroke="black" stroke-width="1.09231" stroke-miterlimit="10"/>
<path d="M27.1602 74.7559L27.1602 90.2557" stroke="black" stroke-width="1.09231" stroke-miterlimit="10"/>
<path d="M44.3416 73.084L28.8418 73.084" stroke="black" stroke-width="1.09231" stroke-miterlimit="10"/>
<path d="M25.4881 73.084L9.98828 73.084" stroke="black" stroke-width="1.09231" stroke-miterlimit="10"/>
<path d="M71.2012 55.9023L71.2012 71.4022" stroke="black" stroke-width="1.09231" stroke-miterlimit="10"/>
<path d="M71.2012 74.7559L71.2012 90.2557" stroke="black" stroke-width="1.09231" stroke-miterlimit="10"/>
<path d="M88.3827 73.084L72.8828 73.084" stroke="black" stroke-width="1.09231" stroke-miterlimit="10"/>
<path d="M69.5194 73.084L54.0195 73.084" stroke="black" stroke-width="1.09231" stroke-miterlimit="10"/>
<path d="M115.242 55.9023L115.242 71.4022" stroke="black" stroke-width="1.09231" stroke-miterlimit="10"/>
<path d="M115.242 74.7559L115.242 90.2557" stroke="black" stroke-width="1.09231" stroke-miterlimit="10"/>
<path d="M132.424 73.084L116.924 73.084" stroke="black" stroke-width="1.09231" stroke-miterlimit="10"/>
<path d="M113.56 73.084L98.0605 73.084" stroke="black" stroke-width="1.09231" stroke-miterlimit="10"/>
<path d="M27.1602 99.7832L27.1602 115.283" stroke="black" stroke-width="1.09231" stroke-miterlimit="10"/>
<path d="M27.1602 118.637L27.1602 134.137" stroke="black" stroke-width="1.09231" stroke-miterlimit="10"/>
<path d="M44.3416 116.965L28.8418 116.965" stroke="black" stroke-width="1.09231" stroke-miterlimit="10"/>
<path d="M25.4881 116.965L9.98828 116.965" stroke="black" stroke-width="1.09231" stroke-miterlimit="10"/>
<path d="M71.2012 99.7832L71.2012 115.283" stroke="black" stroke-width="1.09231" stroke-miterlimit="10"/>
<path d="M71.2012 118.637L71.2012 134.137" stroke="black" stroke-width="1.09231" stroke-miterlimit="10"/>
<path d="M88.3827 116.965L72.8828 116.965" stroke="black" stroke-width="1.09231" stroke-miterlimit="10"/>
<path d="M69.5194 116.965L54.0195 116.965" stroke="black" stroke-width="1.09231" stroke-miterlimit="10"/>
<path d="M115.242 99.7832L115.242 115.283" stroke="black" stroke-width="1.09231" stroke-miterlimit="10"/>
<path d="M115.242 118.637L115.242 134.137" stroke="black" stroke-width="1.09231" stroke-miterlimit="10"/>
<path d="M132.424 116.965L116.924 116.965" stroke="black" stroke-width="1.09231" stroke-miterlimit="10"/>
<path d="M113.56 116.965L98.0605 116.965" stroke="black" stroke-width="1.09231" stroke-miterlimit="10"/>
</g>
<g clip-path="url(#clip2_1429_10860)">
<path d="M99.6403 125.56L95.704 121.624C90.7746 116.695 82.7845 116.695 77.8551 121.624C72.9256 126.554 72.9256 134.544 77.8551 139.473L78.46 140.078C77.828 140.159 77.187 140.286 76.555 140.466C74.5056 141.071 72.727 142.154 71.3005 143.545C69.8741 142.145 68.0955 141.071 66.0461 140.466C65.2696 140.24 64.4932 140.096 63.7168 140.015L64.2675 139.464C69.1969 134.535 69.1969 126.544 64.2675 121.615C59.3381 116.686 51.348 116.686 46.4186 121.615L42.4822 125.551C37.5528 130.481 37.5528 138.471 42.4822 143.4C44.8747 145.793 47.9895 147.012 51.1223 147.084C50.8244 147.698 50.5626 148.33 50.3639 148.998L48.793 154.343C46.8248 161.033 50.6438 168.048 57.3338 170.016C62.7056 171.596 68.2851 169.438 71.2915 165.068C74.307 169.438 79.8774 171.605 85.2492 170.016C91.9392 168.048 95.7582 161.024 93.79 154.343L92.2191 148.998C92.0205 148.321 91.7496 147.68 91.4517 147.057C94.422 146.876 97.3472 145.666 99.6223 143.4C104.552 138.471 104.552 130.481 99.6223 125.551L99.6403 125.56Z" fill="white" stroke="black" stroke-width="0.902829" stroke-miterlimit="10"/>
<path d="M69.4779 154.308C77.3012 154.308 83.6433 146.838 83.6433 137.624C83.6433 128.409 77.3012 120.939 69.4779 120.939C61.6546 120.939 55.3125 128.409 55.3125 137.624C55.3125 146.838 61.6546 154.308 69.4779 154.308Z" fill="#618BFF" stroke="black" stroke-width="0.902829" stroke-miterlimit="10"/>
<path d="M96.0307 71.7162C100.798 66.227 103.885 57.5147 103.885 47.7099C103.876 31.0979 95.0466 17.6367 84.1495 17.6367C79.3825 17.6367 75.0128 20.2098 71.6092 24.4982C68.1965 20.2188 63.8268 17.6367 59.0598 17.6367C48.1627 17.6367 39.324 31.0979 39.324 47.7099C39.324 57.1716 42.195 65.604 46.673 71.1203C40.7685 77.2234 37.1211 85.5385 37.1211 94.7112C37.1211 113.454 52.3157 128.649 71.0584 128.649C89.8012 128.649 104.996 113.454 104.996 94.7112C104.996 85.8364 101.592 77.7651 96.0126 71.7162H96.0307Z" fill="white" stroke="black" stroke-width="0.902829" stroke-miterlimit="10"/>
<path d="M96.0116 71.7162C100.779 66.227 103.866 57.5147 103.866 47.7099C103.866 31.0979 95.0365 17.6367 84.1304 17.6367C73.2242 17.6367 64.3945 31.0979 64.3945 47.7099C64.3945 52.513 65.1349 57.0542 66.453 61.0899" fill="white"/>
<path d="M96.0116 71.7162C100.779 66.227 103.866 57.5147 103.866 47.7099C103.866 31.0979 95.0365 17.6367 84.1304 17.6367C73.2242 17.6367 64.3945 31.0979 64.3945 47.7099C64.3945 52.513 65.1349 57.0542 66.453 61.0899" stroke="black" stroke-width="0.902829" stroke-miterlimit="10"/>
<path d="M79.3463 62.9853C81.9441 62.9853 84.0501 57.5487 84.0501 50.8423C84.0501 44.1358 81.9441 38.6992 79.3463 38.6992C76.7485 38.6992 74.6426 44.1358 74.6426 50.8423C74.6426 57.5487 76.7485 62.9853 79.3463 62.9853Z" fill="white" stroke="black" stroke-width="0.902829" stroke-miterlimit="10"/>
<path d="M52.8834 62.9853C55.4812 62.9853 57.5872 57.5487 57.5872 50.8423C57.5872 44.1358 55.4812 38.6992 52.8834 38.6992C50.2856 38.6992 48.1797 44.1358 48.1797 50.8423C48.1797 57.5487 50.2856 62.9853 52.8834 62.9853Z" fill="white" stroke="black" stroke-width="0.902829" stroke-miterlimit="10"/>
<path d="M59.862 98.5398C62.6044 98.5398 64.8276 95.0191 64.8276 90.6761C64.8276 86.3332 62.6044 82.8125 59.862 82.8125C57.1196 82.8125 54.8965 86.3332 54.8965 90.6761C54.8965 95.0191 57.1196 98.5398 59.862 98.5398Z" fill="white"/>
<path d="M59.862 98.5398C62.6044 98.5398 64.8276 95.0191 64.8276 90.6761C64.8276 86.3332 62.6044 82.8125 59.862 82.8125C57.1196 82.8125 54.8965 86.3332 54.8965 90.6761C54.8965 95.0191 57.1196 98.5398 59.862 98.5398Z" stroke="black" stroke-width="0.902829" stroke-miterlimit="10"/>
<path d="M69.7937 98.5398C72.5361 98.5398 74.7592 95.0191 74.7592 90.6761C74.7592 86.3332 72.5361 82.8125 69.7937 82.8125C67.0513 82.8125 64.8281 86.3332 64.8281 90.6761C64.8281 95.0191 67.0513 98.5398 69.7937 98.5398Z" fill="white"/>
<path d="M69.7937 98.5398C72.5361 98.5398 74.7592 95.0191 74.7592 90.6761C74.7592 86.3332 72.5361 82.8125 69.7937 82.8125C67.0513 82.8125 64.8281 86.3332 64.8281 90.6761C64.8281 95.0191 67.0513 98.5398 69.7937 98.5398Z" stroke="black" stroke-width="0.902829" stroke-miterlimit="10"/>
<path d="M72.005 94.7573C73.1468 94.7573 74.0725 92.9302 74.0725 90.6765C74.0725 88.4227 73.1468 86.5957 72.005 86.5957C70.8631 86.5957 69.9375 88.4227 69.9375 90.6765C69.9375 92.9302 70.8631 94.7573 72.005 94.7573Z" fill="black"/>
<mask id="mask0_1429_10860" style="mask-type:luminance" maskUnits="userSpaceOnUse" x="69" y="86" width="6" height="9">
<path d="M72.005 94.7573C73.1468 94.7573 74.0725 92.9302 74.0725 90.6765C74.0725 88.4227 73.1468 86.5957 72.005 86.5957C70.8631 86.5957 69.9375 88.4227 69.9375 90.6765C69.9375 92.9302 70.8631 94.7573 72.005 94.7573Z" fill="white"/>
</mask>
<g mask="url(#mask0_1429_10860)">
<path d="M74.921 91.3811C75.3099 91.3811 75.6252 91.0658 75.6252 90.6769C75.6252 90.2879 75.3099 89.9727 74.921 89.9727C74.5321 89.9727 74.2168 90.2879 74.2168 90.6769C74.2168 91.0658 74.5321 91.3811 74.921 91.3811Z" stroke="black" stroke-width="0.902829" stroke-miterlimit="10"/>
</g>
<path d="M72.005 94.7573C73.1468 94.7573 74.0725 92.9302 74.0725 90.6765C74.0725 88.4227 73.1468 86.5957 72.005 86.5957C70.8631 86.5957 69.9375 88.4227 69.9375 90.6765C69.9375 92.9302 70.8631 94.7573 72.005 94.7573Z" stroke="black" stroke-width="0.902829" stroke-miterlimit="10"/>
<path d="M62.0753 94.7573C63.2171 94.7573 64.1428 92.9302 64.1428 90.6765C64.1428 88.4227 63.2171 86.5957 62.0753 86.5957C60.9335 86.5957 60.0078 88.4227 60.0078 90.6765C60.0078 92.9302 60.9335 94.7573 62.0753 94.7573Z" fill="black"/>
<mask id="mask1_1429_10860" style="mask-type:luminance" maskUnits="userSpaceOnUse" x="60" y="86" width="5" height="9">
<path d="M62.0753 94.7573C63.2171 94.7573 64.1428 92.9302 64.1428 90.6765C64.1428 88.4227 63.2171 86.5957 62.0753 86.5957C60.9335 86.5957 60.0078 88.4227 60.0078 90.6765C60.0078 92.9302 60.9335 94.7573 62.0753 94.7573Z" fill="white"/>
</mask>
<g mask="url(#mask1_1429_10860)">
<path d="M64.9913 91.3811C65.3802 91.3811 65.6955 91.0658 65.6955 90.6769C65.6955 90.2879 65.3802 89.9727 64.9913 89.9727C64.6024 89.9727 64.2871 90.2879 64.2871 90.6769C64.2871 91.0658 64.6024 91.3811 64.9913 91.3811Z" stroke="black" stroke-width="0.902829" stroke-miterlimit="10"/>
</g>
<path d="M62.0753 94.7573C63.2171 94.7573 64.1428 92.9302 64.1428 90.6765C64.1428 88.4227 63.2171 86.5957 62.0753 86.5957C60.9335 86.5957 60.0078 88.4227 60.0078 90.6765C60.0078 92.9302 60.9335 94.7573 62.0753 94.7573Z" stroke="black" stroke-width="0.902829" stroke-miterlimit="10"/>
<path d="M64.8276 90.6761C64.8276 86.3335 62.6066 82.8125 59.862 82.8125C57.1174 82.8125 54.8965 86.3335 54.8965 90.6761H64.8366" fill="white"/>
<path d="M64.8276 90.6761C64.8276 86.3335 62.6066 82.8125 59.862 82.8125C57.1174 82.8125 54.8965 86.3335 54.8965 90.6761H64.8366" stroke="black" stroke-width="0.902829" stroke-miterlimit="10"/>
<path d="M74.7592 90.6761C74.7592 86.3335 72.5383 82.8125 69.7937 82.8125C67.0491 82.8125 64.8281 86.3335 64.8281 90.6761H74.7683H74.7592Z" fill="white"/>
<path d="M74.7592 90.6761C74.7592 86.3335 72.5383 82.8125 69.7937 82.8125C67.0491 82.8125 64.8281 86.3335 64.8281 90.6761H74.7683H74.7592Z" stroke="black" stroke-width="0.902829" stroke-miterlimit="10"/>
<path d="M51.7736 102.44C54.3614 102.44 56.4593 100.342 56.4593 97.754C56.4593 95.1662 54.3614 93.0684 51.7736 93.0684C49.1857 93.0684 47.0879 95.1662 47.0879 97.754C47.0879 100.342 49.1857 102.44 51.7736 102.44Z" fill="#618BFF" stroke="black" stroke-width="0.902829" stroke-miterlimit="10"/>
<path d="M78.0997 102.44C80.6876 102.44 82.7854 100.342 82.7854 97.754C82.7854 95.1662 80.6876 93.0684 78.0997 93.0684C75.5119 93.0684 73.4141 95.1662 73.4141 97.754C73.4141 100.342 75.5119 102.44 78.0997 102.44Z" fill="#618BFF" stroke="black" stroke-width="0.902829" stroke-miterlimit="10"/>
<path d="M72.4117 103.217C72.4117 107.406 69.017 110.801 64.8279 110.801C60.6388 110.801 57.2441 107.406 57.2441 103.217" fill="white"/>
<path d="M72.4117 103.217C72.4117 107.406 69.017 110.801 64.8279 110.801C60.6388 110.801 57.2441 107.406 57.2441 103.217" stroke="black" stroke-width="0.902829" stroke-miterlimit="10"/>
<path d="M62.2461 96.6348H57.4702C56.4231 96.6348 55.5742 97.4836 55.5742 98.5307V98.5397C55.5742 99.5868 56.4231 100.436 57.4702 100.436H62.2461C63.2932 100.436 64.1421 99.5868 64.1421 98.5397V98.5307C64.1421 97.4836 63.2932 96.6348 62.2461 96.6348Z" fill="black" stroke="black" stroke-width="0.902829" stroke-miterlimit="10"/>
<path d="M72.1856 96.6348H67.4096C66.3625 96.6348 65.5137 97.4836 65.5137 98.5307V98.5397C65.5137 99.5868 66.3625 100.436 67.4096 100.436H72.1856C73.2327 100.436 74.0815 99.5868 74.0815 98.5397V98.5307C74.0815 97.4836 73.2327 96.6348 72.1856 96.6348Z" fill="black" stroke="black" stroke-width="0.902829" stroke-miterlimit="10"/>
<path d="M64.1426 98.5312H65.5149" stroke="black" stroke-width="1.80566" stroke-miterlimit="10"/>
<path d="M50.1939 135.059L47.8375 132.477L45.2734 135.041L47.8555 137.406L50.1939 135.059Z" fill="white" stroke="black" stroke-width="0.902829" stroke-miterlimit="10"/>
<path d="M36.7324 120.324L33.1211 123.936L45.2732 135.04L47.8372 132.476L36.7324 120.324Z" fill="#B576FF" stroke="black" stroke-width="0.902829" stroke-miterlimit="10"/>
<path d="M36.0633 122.077L34.8715 123.268C33.1471 124.993 30.4296 125.182 28.4885 123.711L25.4009 121.381C23.0354 119.594 22.7917 116.136 24.8862 114.041L26.8364 112.091C28.9309 109.997 32.3978 110.241 34.1764 112.606L36.5057 115.694C37.9682 117.635 37.7786 120.361 36.0633 122.077Z" fill="#B576FF" stroke="black" stroke-width="0.902829" stroke-miterlimit="10"/>
<path d="M26.3848 119.249L32.0365 113.598" stroke="black" stroke-width="0.902829" stroke-miterlimit="10"/>
<path d="M28.9043 121.76L34.556 116.117" stroke="black" stroke-width="0.902829" stroke-miterlimit="10"/>
<path d="M28.9043 113.598L34.556 119.249" stroke="black" stroke-width="0.902829" stroke-miterlimit="10"/>
<path d="M26.3848 116.117L32.0365 121.76" stroke="black" stroke-width="0.902829" stroke-miterlimit="10"/>
</g>
<g clip-path="url(#clip3_1429_10860)">
<path d="M99.6403 125.56L95.704 121.624C90.7746 116.695 82.7845 116.695 77.8551 121.624C72.9256 126.554 72.9256 134.544 77.8551 139.473L78.46 140.078C77.828 140.159 77.187 140.286 76.555 140.466C74.5056 141.071 72.727 142.154 71.3005 143.545C69.8741 142.145 68.0955 141.071 66.0461 140.466C65.2696 140.24 64.4932 140.096 63.7168 140.015L64.2675 139.464C69.1969 134.535 69.1969 126.544 64.2675 121.615C59.3381 116.686 51.348 116.686 46.4186 121.615L42.4822 125.551C37.5528 130.481 37.5528 138.471 42.4822 143.4C44.8747 145.793 47.9895 147.012 51.1223 147.084C50.8244 147.698 50.5626 148.33 50.3639 148.998L48.793 154.343C46.8248 161.033 50.6438 168.048 57.3338 170.016C62.7056 171.596 68.2851 169.438 71.2915 165.068C74.307 169.438 79.8774 171.605 85.2492 170.016C91.9392 168.048 95.7582 161.024 93.79 154.343L92.2191 148.998C92.0205 148.321 91.7496 147.68 91.4517 147.057C94.422 146.876 97.3472 145.666 99.6223 143.4C104.552 138.471 104.552 130.481 99.6223 125.551L99.6403 125.56Z" fill="white" stroke="black" stroke-width="0.902829" stroke-miterlimit="10"/>
<path d="M69.4779 154.308C77.3012 154.308 83.6433 146.838 83.6433 137.624C83.6433 128.409 77.3012 120.939 69.4779 120.939C61.6546 120.939 55.3125 128.409 55.3125 137.624C55.3125 146.838 61.6546 154.308 69.4779 154.308Z" fill="#618BFF" stroke="black" stroke-width="0.902829" stroke-miterlimit="10"/>
<path d="M96.0307 71.7162C100.798 66.227 103.885 57.5147 103.885 47.7099C103.876 31.0979 95.0466 17.6367 84.1495 17.6367C79.3825 17.6367 75.0128 20.2098 71.6092 24.4982C68.1965 20.2188 63.8268 17.6367 59.0598 17.6367C48.1627 17.6367 39.324 31.0979 39.324 47.7099C39.324 57.1716 42.195 65.604 46.673 71.1203C40.7685 77.2234 37.1211 85.5385 37.1211 94.7112C37.1211 113.454 52.3157 128.649 71.0584 128.649C89.8012 128.649 104.996 113.454 104.996 94.7112C104.996 85.8364 101.592 77.7651 96.0126 71.7162H96.0307Z" fill="white" stroke="black" stroke-width="0.902829" stroke-miterlimit="10"/>
<path d="M96.0116 71.7162C100.779 66.227 103.866 57.5147 103.866 47.7099C103.866 31.0979 95.0365 17.6367 84.1304 17.6367C73.2242 17.6367 64.3945 31.0979 64.3945 47.7099C64.3945 52.513 65.1349 57.0542 66.453 61.0899" fill="white"/>
<path d="M96.0116 71.7162C100.779 66.227 103.866 57.5147 103.866 47.7099C103.866 31.0979 95.0365 17.6367 84.1304 17.6367C73.2242 17.6367 64.3945 31.0979 64.3945 47.7099C64.3945 52.513 65.1349 57.0542 66.453 61.0899" stroke="black" stroke-width="0.902829" stroke-miterlimit="10"/>
<path d="M79.3463 62.9853C81.9441 62.9853 84.0501 57.5487 84.0501 50.8423C84.0501 44.1358 81.9441 38.6992 79.3463 38.6992C76.7485 38.6992 74.6426 44.1358 74.6426 50.8423C74.6426 57.5487 76.7485 62.9853 79.3463 62.9853Z" fill="white" stroke="black" stroke-width="0.902829" stroke-miterlimit="10"/>
<path d="M52.8834 62.9853C55.4812 62.9853 57.5872 57.5487 57.5872 50.8423C57.5872 44.1358 55.4812 38.6992 52.8834 38.6992C50.2856 38.6992 48.1797 44.1358 48.1797 50.8423C48.1797 57.5487 50.2856 62.9853 52.8834 62.9853Z" fill="white" stroke="black" stroke-width="0.902829" stroke-miterlimit="10"/>
<path d="M59.862 98.5398C62.6044 98.5398 64.8276 95.0191 64.8276 90.6761C64.8276 86.3332 62.6044 82.8125 59.862 82.8125C57.1196 82.8125 54.8965 86.3332 54.8965 90.6761C54.8965 95.0191 57.1196 98.5398 59.862 98.5398Z" fill="white"/>
<path d="M59.862 98.5398C62.6044 98.5398 64.8276 95.0191 64.8276 90.6761C64.8276 86.3332 62.6044 82.8125 59.862 82.8125C57.1196 82.8125 54.8965 86.3332 54.8965 90.6761C54.8965 95.0191 57.1196 98.5398 59.862 98.5398Z" stroke="black" stroke-width="0.902829" stroke-miterlimit="10"/>
<path d="M69.7937 98.5398C72.5361 98.5398 74.7592 95.0191 74.7592 90.6761C74.7592 86.3332 72.5361 82.8125 69.7937 82.8125C67.0513 82.8125 64.8281 86.3332 64.8281 90.6761C64.8281 95.0191 67.0513 98.5398 69.7937 98.5398Z" fill="white"/>
<path d="M69.7937 98.5398C72.5361 98.5398 74.7592 95.0191 74.7592 90.6761C74.7592 86.3332 72.5361 82.8125 69.7937 82.8125C67.0513 82.8125 64.8281 86.3332 64.8281 90.6761C64.8281 95.0191 67.0513 98.5398 69.7937 98.5398Z" stroke="black" stroke-width="0.902829" stroke-miterlimit="10"/>
<path d="M72.005 94.7573C73.1468 94.7573 74.0725 92.9302 74.0725 90.6765C74.0725 88.4227 73.1468 86.5957 72.005 86.5957C70.8631 86.5957 69.9375 88.4227 69.9375 90.6765C69.9375 92.9302 70.8631 94.7573 72.005 94.7573Z" fill="black"/>
<mask id="mask2_1429_10860" style="mask-type:luminance" maskUnits="userSpaceOnUse" x="69" y="86" width="6" height="9">
<path d="M72.005 94.7573C73.1468 94.7573 74.0725 92.9302 74.0725 90.6765C74.0725 88.4227 73.1468 86.5957 72.005 86.5957C70.8631 86.5957 69.9375 88.4227 69.9375 90.6765C69.9375 92.9302 70.8631 94.7573 72.005 94.7573Z" fill="white"/>
</mask>
<g mask="url(#mask2_1429_10860)">
<path d="M74.921 91.3811C75.3099 91.3811 75.6252 91.0658 75.6252 90.6769C75.6252 90.2879 75.3099 89.9727 74.921 89.9727C74.5321 89.9727 74.2168 90.2879 74.2168 90.6769C74.2168 91.0658 74.5321 91.3811 74.921 91.3811Z" stroke="black" stroke-width="0.902829" stroke-miterlimit="10"/>
</g>
<path d="M72.005 94.7573C73.1468 94.7573 74.0725 92.9302 74.0725 90.6765C74.0725 88.4227 73.1468 86.5957 72.005 86.5957C70.8631 86.5957 69.9375 88.4227 69.9375 90.6765C69.9375 92.9302 70.8631 94.7573 72.005 94.7573Z" stroke="black" stroke-width="0.902829" stroke-miterlimit="10"/>
<path d="M62.0753 94.7573C63.2171 94.7573 64.1428 92.9302 64.1428 90.6765C64.1428 88.4227 63.2171 86.5957 62.0753 86.5957C60.9335 86.5957 60.0078 88.4227 60.0078 90.6765C60.0078 92.9302 60.9335 94.7573 62.0753 94.7573Z" fill="black"/>
<mask id="mask3_1429_10860" style="mask-type:luminance" maskUnits="userSpaceOnUse" x="60" y="86" width="5" height="9">
<path d="M62.0753 94.7573C63.2171 94.7573 64.1428 92.9302 64.1428 90.6765C64.1428 88.4227 63.2171 86.5957 62.0753 86.5957C60.9335 86.5957 60.0078 88.4227 60.0078 90.6765C60.0078 92.9302 60.9335 94.7573 62.0753 94.7573Z" fill="white"/>
</mask>
<g mask="url(#mask3_1429_10860)">
<path d="M64.9913 91.3811C65.3802 91.3811 65.6955 91.0658 65.6955 90.6769C65.6955 90.2879 65.3802 89.9727 64.9913 89.9727C64.6024 89.9727 64.2871 90.2879 64.2871 90.6769C64.2871 91.0658 64.6024 91.3811 64.9913 91.3811Z" stroke="black" stroke-width="0.902829" stroke-miterlimit="10"/>
</g>
<path d="M62.0753 94.7573C63.2171 94.7573 64.1428 92.9302 64.1428 90.6765C64.1428 88.4227 63.2171 86.5957 62.0753 86.5957C60.9335 86.5957 60.0078 88.4227 60.0078 90.6765C60.0078 92.9302 60.9335 94.7573 62.0753 94.7573Z" stroke="black" stroke-width="0.902829" stroke-miterlimit="10"/>
<path d="M64.8276 90.6761C64.8276 86.3335 62.6066 82.8125 59.862 82.8125C57.1174 82.8125 54.8965 86.3335 54.8965 90.6761H64.8366" fill="white"/>
<path d="M64.8276 90.6761C64.8276 86.3335 62.6066 82.8125 59.862 82.8125C57.1174 82.8125 54.8965 86.3335 54.8965 90.6761H64.8366" stroke="black" stroke-width="0.902829" stroke-miterlimit="10"/>
<path d="M74.7592 90.6761C74.7592 86.3335 72.5383 82.8125 69.7937 82.8125C67.0491 82.8125 64.8281 86.3335 64.8281 90.6761H74.7683H74.7592Z" fill="white"/>
<path d="M74.7592 90.6761C74.7592 86.3335 72.5383 82.8125 69.7937 82.8125C67.0491 82.8125 64.8281 86.3335 64.8281 90.6761H74.7683H74.7592Z" stroke="black" stroke-width="0.902829" stroke-miterlimit="10"/>
<path d="M51.7736 102.44C54.3614 102.44 56.4593 100.342 56.4593 97.754C56.4593 95.1662 54.3614 93.0684 51.7736 93.0684C49.1857 93.0684 47.0879 95.1662 47.0879 97.754C47.0879 100.342 49.1857 102.44 51.7736 102.44Z" fill="#618BFF" stroke="black" stroke-width="0.902829" stroke-miterlimit="10"/>
<path d="M78.0997 102.44C80.6876 102.44 82.7854 100.342 82.7854 97.754C82.7854 95.1662 80.6876 93.0684 78.0997 93.0684C75.5119 93.0684 73.4141 95.1662 73.4141 97.754C73.4141 100.342 75.5119 102.44 78.0997 102.44Z" fill="#618BFF" stroke="black" stroke-width="0.902829" stroke-miterlimit="10"/>
<path d="M72.4117 103.217C72.4117 107.406 69.017 110.801 64.8279 110.801C60.6388 110.801 57.2441 107.406 57.2441 103.217" fill="white"/>
<path d="M72.4117 103.217C72.4117 107.406 69.017 110.801 64.8279 110.801C60.6388 110.801 57.2441 107.406 57.2441 103.217" stroke="black" stroke-width="0.902829" stroke-miterlimit="10"/>
<path d="M62.2461 96.6348H57.4702C56.4231 96.6348 55.5742 97.4836 55.5742 98.5307V98.5397C55.5742 99.5868 56.4231 100.436 57.4702 100.436H62.2461C63.2932 100.436 64.1421 99.5868 64.1421 98.5397V98.5307C64.1421 97.4836 63.2932 96.6348 62.2461 96.6348Z" fill="black" stroke="black" stroke-width="0.902829" stroke-miterlimit="10"/>
<path d="M72.1856 96.6348H67.4096C66.3625 96.6348 65.5137 97.4836 65.5137 98.5307V98.5397C65.5137 99.5868 66.3625 100.436 67.4096 100.436H72.1856C73.2327 100.436 74.0815 99.5868 74.0815 98.5397V98.5307C74.0815 97.4836 73.2327 96.6348 72.1856 96.6348Z" fill="black" stroke="black" stroke-width="0.902829" stroke-miterlimit="10"/>
<path d="M64.1426 98.5312H65.5149" stroke="black" stroke-width="1.80566" stroke-miterlimit="10"/>
<path d="M50.1939 135.059L47.8375 132.477L45.2734 135.041L47.8555 137.406L50.1939 135.059Z" fill="white" stroke="black" stroke-width="0.902829" stroke-miterlimit="10"/>
<path d="M36.7324 120.324L33.1211 123.936L45.2732 135.04L47.8372 132.476L36.7324 120.324Z" fill="#B576FF" stroke="black" stroke-width="0.902829" stroke-miterlimit="10"/>
<path d="M36.0633 122.077L34.8715 123.268C33.1471 124.993 30.4296 125.182 28.4885 123.711L25.4009 121.381C23.0354 119.594 22.7917 116.136 24.8862 114.041L26.8364 112.091C28.9309 109.997 32.3978 110.241 34.1764 112.606L36.5057 115.694C37.9682 117.635 37.7786 120.361 36.0633 122.077Z" fill="#B576FF" stroke="black" stroke-width="0.902829" stroke-miterlimit="10"/>
<path d="M26.3848 119.249L32.0365 113.598" stroke="black" stroke-width="0.902829" stroke-miterlimit="10"/>
<path d="M28.9043 121.76L34.556 116.117" stroke="black" stroke-width="0.902829" stroke-miterlimit="10"/>
<path d="M28.9043 113.598L34.556 119.249" stroke="black" stroke-width="0.902829" stroke-miterlimit="10"/>
<path d="M26.3848 116.117L32.0365 121.76" stroke="black" stroke-width="0.902829" stroke-miterlimit="10"/>
</g>
</g>
<defs>
<clipPath id="clip0_1429_10860">
<rect width="142" height="142" fill="white"/>
</clipPath>
<clipPath id="clip1_1429_10860">
<rect width="541.85" height="541.85" fill="white" transform="translate(-1.54688)"/>
</clipPath>
<clipPath id="clip2_1429_10860">
<rect width="82.4554" height="153.815" fill="white" transform="translate(23 17.1855)"/>
</clipPath>
<clipPath id="clip3_1429_10860">
<rect width="82.4554" height="153.815" fill="white" transform="translate(23 17.1855)"/>
</clipPath>
</defs>
</svg>
