<svg width="142" height="142" viewBox="0 0 142 142" fill="none" xmlns="http://www.w3.org/2000/svg">
<g clip-path="url(#clip0_1429_14801)">
<rect width="142" height="142" fill="#B576FF"/>
<g clip-path="url(#clip1_1429_14801)">
<path d="M27.1602 12.0273L27.1602 27.5272" stroke="black" stroke-width="1.09231" stroke-miterlimit="10"/>
<path d="M27.1602 30.8809L27.1602 46.3807" stroke="black" stroke-width="1.09231" stroke-miterlimit="10"/>
<path d="M44.3416 29.1992L28.8418 29.1992" stroke="black" stroke-width="1.09231" stroke-miterlimit="10"/>
<path d="M25.4881 29.1992L9.98828 29.1992" stroke="black" stroke-width="1.09231" stroke-miterlimit="10"/>
<path d="M71.2012 12.0273L71.2012 27.5272" stroke="black" stroke-width="1.09231" stroke-miterlimit="10"/>
<path d="M71.2012 30.8809L71.2012 46.3807" stroke="black" stroke-width="1.09231" stroke-miterlimit="10"/>
<path d="M88.3827 29.1992L72.8828 29.1992" stroke="black" stroke-width="1.09231" stroke-miterlimit="10"/>
<path d="M69.5194 29.1992L54.0195 29.1992" stroke="black" stroke-width="1.09231" stroke-miterlimit="10"/>
<path d="M115.242 12.0273L115.242 27.5272" stroke="black" stroke-width="1.09231" stroke-miterlimit="10"/>
<path d="M115.242 30.8809L115.242 46.3807" stroke="black" stroke-width="1.09231" stroke-miterlimit="10"/>
<path d="M132.424 29.1992L116.924 29.1992" stroke="black" stroke-width="1.09231" stroke-miterlimit="10"/>
<path d="M113.56 29.1992L98.0605 29.1992" stroke="black" stroke-width="1.09231" stroke-miterlimit="10"/>
<path d="M27.1602 55.9023L27.1602 71.4022" stroke="black" stroke-width="1.09231" stroke-miterlimit="10"/>
<path d="M27.1602 74.7559L27.1602 90.2557" stroke="black" stroke-width="1.09231" stroke-miterlimit="10"/>
<path d="M44.3416 73.084L28.8418 73.084" stroke="black" stroke-width="1.09231" stroke-miterlimit="10"/>
<path d="M25.4881 73.084L9.98828 73.084" stroke="black" stroke-width="1.09231" stroke-miterlimit="10"/>
<path d="M71.2012 55.9023L71.2012 71.4022" stroke="black" stroke-width="1.09231" stroke-miterlimit="10"/>
<path d="M71.2012 74.7559L71.2012 90.2557" stroke="black" stroke-width="1.09231" stroke-miterlimit="10"/>
<path d="M88.3827 73.084L72.8828 73.084" stroke="black" stroke-width="1.09231" stroke-miterlimit="10"/>
<path d="M69.5194 73.084L54.0195 73.084" stroke="black" stroke-width="1.09231" stroke-miterlimit="10"/>
<path d="M115.242 55.9023L115.242 71.4022" stroke="black" stroke-width="1.09231" stroke-miterlimit="10"/>
<path d="M115.242 74.7559L115.242 90.2557" stroke="black" stroke-width="1.09231" stroke-miterlimit="10"/>
<path d="M132.424 73.084L116.924 73.084" stroke="black" stroke-width="1.09231" stroke-miterlimit="10"/>
<path d="M113.56 73.084L98.0605 73.084" stroke="black" stroke-width="1.09231" stroke-miterlimit="10"/>
<path d="M27.1602 99.7832L27.1602 115.283" stroke="black" stroke-width="1.09231" stroke-miterlimit="10"/>
<path d="M27.1602 118.637L27.1602 134.137" stroke="black" stroke-width="1.09231" stroke-miterlimit="10"/>
<path d="M44.3416 116.965L28.8418 116.965" stroke="black" stroke-width="1.09231" stroke-miterlimit="10"/>
<path d="M25.4881 116.965L9.98828 116.965" stroke="black" stroke-width="1.09231" stroke-miterlimit="10"/>
<path d="M71.2012 99.7832L71.2012 115.283" stroke="black" stroke-width="1.09231" stroke-miterlimit="10"/>
<path d="M71.2012 118.637L71.2012 134.137" stroke="black" stroke-width="1.09231" stroke-miterlimit="10"/>
<path d="M88.3827 116.965L72.8828 116.965" stroke="black" stroke-width="1.09231" stroke-miterlimit="10"/>
<path d="M69.5194 116.965L54.0195 116.965" stroke="black" stroke-width="1.09231" stroke-miterlimit="10"/>
<path d="M115.242 99.7832L115.242 115.283" stroke="black" stroke-width="1.09231" stroke-miterlimit="10"/>
<path d="M115.242 118.637L115.242 134.137" stroke="black" stroke-width="1.09231" stroke-miterlimit="10"/>
<path d="M132.424 116.965L116.924 116.965" stroke="black" stroke-width="1.09231" stroke-miterlimit="10"/>
<path d="M113.56 116.965L98.0605 116.965" stroke="black" stroke-width="1.09231" stroke-miterlimit="10"/>
</g>
<path d="M110.693 107.155C114.6 100.406 116.846 92.5819 116.846 84.2257C116.846 58.9013 96.3117 38.3672 70.9874 38.3672C45.663 38.3672 25.1289 58.9013 25.1289 84.2257C25.1289 93.6251 27.9605 102.375 32.8252 109.646L49.921 137.28C50.0168 137.461 50.1126 137.642 50.2191 137.823L50.2616 137.898C54.3493 145.126 62.0882 150.001 70.9874 150.001C79.8866 150.001 88.0512 144.849 92.0431 137.301L110.704 107.144L110.693 107.155Z" fill="#FF0055" stroke="black" stroke-width="1.0645" stroke-miterlimit="10"/>
<path d="M65.0039 89.0255C68.3726 89.0255 71.1034 84.2881 71.1034 78.4444C71.1034 72.6006 68.3726 67.8633 65.0039 67.8633C61.6352 67.8633 58.9043 72.6006 58.9043 78.4444C58.9043 84.2881 61.6352 89.0255 65.0039 89.0255Z" fill="white"/>
<mask id="mask0_1429_14801" style="mask-type:luminance" maskUnits="userSpaceOnUse" x="58" y="67" width="14" height="23">
<path d="M65.0039 89.0255C68.3726 89.0255 71.1034 84.2881 71.1034 78.4444C71.1034 72.6006 68.3726 67.8633 65.0039 67.8633C61.6352 67.8633 58.9043 72.6006 58.9043 78.4444C58.9043 84.2881 61.6352 89.0255 65.0039 89.0255Z" fill="white"/>
</mask>
<g mask="url(#mask0_1429_14801)">
<path d="M61.619 82.2028C63.6943 82.2028 65.3767 80.5205 65.3767 78.4452C65.3767 76.3699 63.6943 74.6875 61.619 74.6875C59.5437 74.6875 57.8613 76.3699 57.8613 78.4452C57.8613 80.5205 59.5437 82.2028 61.619 82.2028Z" stroke="black" stroke-width="1.0645" stroke-miterlimit="10"/>
</g>
<path d="M65.0039 89.0255C68.3726 89.0255 71.1034 84.2881 71.1034 78.4444C71.1034 72.6006 68.3726 67.8633 65.0039 67.8633C61.6352 67.8633 58.9043 72.6006 58.9043 78.4444C58.9043 84.2881 61.6352 89.0255 65.0039 89.0255Z" stroke="black" stroke-width="1.0645" stroke-miterlimit="10"/>
<path d="M52.7949 89.0255C56.1636 89.0255 58.8944 84.2881 58.8944 78.4444C58.8944 72.6006 56.1636 67.8633 52.7949 67.8633C49.4262 67.8633 46.6953 72.6006 46.6953 78.4444C46.6953 84.2881 49.4262 89.0255 52.7949 89.0255Z" fill="white"/>
<mask id="mask1_1429_14801" style="mask-type:luminance" maskUnits="userSpaceOnUse" x="46" y="67" width="13" height="23">
<path d="M52.7949 89.0255C56.1636 89.0255 58.8944 84.2881 58.8944 78.4444C58.8944 72.6006 56.1636 67.8633 52.7949 67.8633C49.4262 67.8633 46.6953 72.6006 46.6953 78.4444C46.6953 84.2881 49.4262 89.0255 52.7949 89.0255Z" fill="white"/>
</mask>
<g mask="url(#mask1_1429_14801)">
<path d="M49.41 82.2028C51.4853 82.2028 53.1677 80.5205 53.1677 78.4452C53.1677 76.3699 51.4853 74.6875 49.41 74.6875C47.3347 74.6875 45.6523 76.3699 45.6523 78.4452C45.6523 80.5205 47.3347 82.2028 49.41 82.2028Z" stroke="black" stroke-width="1.0645" stroke-miterlimit="10"/>
</g>
<path d="M52.7949 89.0255C56.1636 89.0255 58.8944 84.2881 58.8944 78.4444C58.8944 72.6006 56.1636 67.8633 52.7949 67.8633C49.4262 67.8633 46.6953 72.6006 46.6953 78.4444C46.6953 84.2881 49.4262 89.0255 52.7949 89.0255Z" stroke="black" stroke-width="1.0645" stroke-miterlimit="10"/>
<path d="M97.1311 46.8709H45.0879V24.5059L59.267 34.5334L71.1148 24.5059L82.6859 34.5334L97.1311 24.5059V46.8709Z" fill="#66FF95" stroke="#231815" stroke-width="1.0645" stroke-miterlimit="10"/>
<path d="M83.0487 92.2731C77.9285 91.6237 73.2234 93.444 69.9554 96.712C67.1238 93.8911 63.2171 92.1453 58.9059 92.1453C54.5947 92.1453 50.688 93.8911 47.8565 96.712C44.5778 93.4546 39.8727 91.6237 34.7632 92.2731C27.7056 93.1672 22.0425 98.9261 21.2547 105.994C20.1902 115.458 27.5672 123.463 36.807 123.463C41.1182 123.463 45.0249 121.717 47.8565 118.896C50.688 121.717 54.5947 123.463 58.9059 123.463C63.2171 123.463 67.1238 121.717 69.9554 118.896C72.787 121.717 76.6937 123.463 81.0049 123.463C90.2447 123.463 97.6216 115.458 96.5678 105.994C95.7801 98.9261 90.1169 93.1672 83.0593 92.2731H83.0487Z" fill="white" stroke="black" stroke-width="1.0645" stroke-miterlimit="10"/>
<path d="M96.1521 81.0424C97.5865 81.0424 98.7494 79.8795 98.7494 78.445C98.7494 77.0105 97.5865 75.8477 96.1521 75.8477C94.7176 75.8477 93.5547 77.0105 93.5547 78.445C93.5547 79.8795 94.7176 81.0424 96.1521 81.0424Z" fill="#FFFF45" stroke="black" stroke-width="1.0645" stroke-miterlimit="10"/>
<path d="M107 81.0424C108.434 81.0424 109.597 79.8795 109.597 78.445C109.597 77.0105 108.434 75.8477 107 75.8477C105.565 75.8477 104.402 77.0105 104.402 78.445C104.402 79.8795 105.565 81.0424 107 81.0424Z" fill="#FFFF45" stroke="black" stroke-width="1.0645" stroke-miterlimit="10"/>
<path d="M101.57 90.2494C103.005 90.2494 104.167 89.0865 104.167 87.652C104.167 86.2175 103.005 85.0547 101.57 85.0547C100.136 85.0547 98.9727 86.2175 98.9727 87.652C98.9727 89.0865 100.136 90.2494 101.57 90.2494Z" fill="#FFFF45" stroke="black" stroke-width="1.0645" stroke-miterlimit="10"/>
<path d="M97.1311 41.6562H45.0879V46.8723H97.1311V41.6562Z" fill="white" stroke="black" stroke-width="1.0645" stroke-miterlimit="10"/>
<path d="M45.0893 27.243C46.6002 27.243 47.825 26.0182 47.825 24.5072C47.825 22.9963 46.6002 21.7715 45.0893 21.7715C43.5784 21.7715 42.3535 22.9963 42.3535 24.5072C42.3535 26.0182 43.5784 27.243 45.0893 27.243Z" fill="white" stroke="black" stroke-width="1.0645" stroke-miterlimit="10"/>
<path d="M97.1322 27.243C98.6431 27.243 99.868 26.0182 99.868 24.5072C99.868 22.9963 98.6431 21.7715 97.1322 21.7715C95.6213 21.7715 94.3965 22.9963 94.3965 24.5072C94.3965 26.0182 95.6213 27.243 97.1322 27.243Z" fill="white" stroke="black" stroke-width="1.0645" stroke-miterlimit="10"/>
<path d="M65.0039 89.0255C68.3726 89.0255 71.1034 84.2881 71.1034 78.4444C71.1034 72.6006 68.3726 67.8633 65.0039 67.8633C61.6352 67.8633 58.9043 72.6006 58.9043 78.4444C58.9043 84.2881 61.6352 89.0255 65.0039 89.0255Z" fill="white"/>
<mask id="mask2_1429_14801" style="mask-type:luminance" maskUnits="userSpaceOnUse" x="58" y="67" width="14" height="23">
<path d="M65.0039 89.0255C68.3726 89.0255 71.1034 84.2881 71.1034 78.4444C71.1034 72.6006 68.3726 67.8633 65.0039 67.8633C61.6352 67.8633 58.9043 72.6006 58.9043 78.4444C58.9043 84.2881 61.6352 89.0255 65.0039 89.0255Z" fill="white"/>
</mask>
<g mask="url(#mask2_1429_14801)">
<path d="M61.619 82.2028C63.6943 82.2028 65.3767 80.5205 65.3767 78.4452C65.3767 76.3699 63.6943 74.6875 61.619 74.6875C59.5437 74.6875 57.8613 76.3699 57.8613 78.4452C57.8613 80.5205 59.5437 82.2028 61.619 82.2028Z" fill="black" stroke="black" stroke-width="1.0645" stroke-miterlimit="10"/>
</g>
<path d="M65.0039 89.0255C68.3726 89.0255 71.1034 84.2881 71.1034 78.4444C71.1034 72.6006 68.3726 67.8633 65.0039 67.8633C61.6352 67.8633 58.9043 72.6006 58.9043 78.4444C58.9043 84.2881 61.6352 89.0255 65.0039 89.0255Z" stroke="black" stroke-width="1.0645" stroke-miterlimit="10"/>
<path d="M52.7949 89.0255C56.1636 89.0255 58.8944 84.2881 58.8944 78.4444C58.8944 72.6006 56.1636 67.8633 52.7949 67.8633C49.4262 67.8633 46.6953 72.6006 46.6953 78.4444C46.6953 84.2881 49.4262 89.0255 52.7949 89.0255Z" fill="white"/>
<mask id="mask3_1429_14801" style="mask-type:luminance" maskUnits="userSpaceOnUse" x="46" y="67" width="13" height="23">
<path d="M52.7949 89.0255C56.1636 89.0255 58.8944 84.2881 58.8944 78.4444C58.8944 72.6006 56.1636 67.8633 52.7949 67.8633C49.4262 67.8633 46.6953 72.6006 46.6953 78.4444C46.6953 84.2881 49.4262 89.0255 52.7949 89.0255Z" fill="white"/>
</mask>
<g mask="url(#mask3_1429_14801)">
<path d="M49.41 82.2028C51.4853 82.2028 53.1677 80.5205 53.1677 78.4452C53.1677 76.3699 51.4853 74.6875 49.41 74.6875C47.3347 74.6875 45.6523 76.3699 45.6523 78.4452C45.6523 80.5205 47.3347 82.2028 49.41 82.2028Z" fill="black" stroke="black" stroke-width="1.0645" stroke-miterlimit="10"/>
</g>
<path d="M52.7949 89.0255C56.1636 89.0255 58.8944 84.2881 58.8944 78.4444C58.8944 72.6006 56.1636 67.8633 52.7949 67.8633C49.4262 67.8633 46.6953 72.6006 46.6953 78.4444C46.6953 84.2881 49.4262 89.0255 52.7949 89.0255Z" stroke="black" stroke-width="1.0645" stroke-miterlimit="10"/>
<path d="M58.9061 78.4444C58.9061 72.6003 56.1704 67.8633 52.8066 67.8633C49.4322 67.8633 46.707 72.6003 46.707 78.4444H58.9168H58.9061Z" fill="#FF0055"/>
<path d="M58.9061 78.4444C58.9061 72.6003 56.1704 67.8633 52.8066 67.8633C49.4322 67.8633 46.707 72.6003 46.707 78.4444H58.9168H58.9061Z" stroke="black" stroke-width="1.0645" stroke-miterlimit="10"/>
<path d="M71.1151 78.4444C71.1151 72.6003 68.3794 67.8633 65.0156 67.8633C61.6411 67.8633 58.916 72.6003 58.916 78.4444H71.1258H71.1151Z" fill="#FF0055"/>
<path d="M71.1151 78.4444C71.1151 72.6003 68.3794 67.8633 65.0156 67.8633C61.6411 67.8633 58.916 72.6003 58.916 78.4444H71.1258H71.1151Z" stroke="black" stroke-width="1.0645" stroke-miterlimit="10"/>
<path d="M71.1159 30.7552C75.7427 30.7552 79.4935 27.0044 79.4935 22.3776C79.4935 17.7508 75.7427 14 71.1159 14C66.489 14 62.7383 17.7508 62.7383 22.3776C62.7383 27.0044 66.489 30.7552 71.1159 30.7552Z" fill="white" stroke="black" stroke-width="1.0645" stroke-miterlimit="10"/>
<path d="M79.4821 22.3776C74.8622 22.3776 71.1258 18.6306 71.1258 14C71.1258 18.6199 67.3788 22.3776 62.7695 22.3776C67.3894 22.3776 71.1258 26.1246 71.1258 30.7552C71.1258 26.1352 74.8729 22.3776 79.4821 22.3776Z" fill="#618BFF" stroke="black" stroke-width="1.0645" stroke-miterlimit="10"/>
</g>
<defs>
<clipPath id="clip0_1429_14801">
<rect width="142" height="142" fill="white"/>
</clipPath>
<clipPath id="clip1_1429_14801">
<rect width="541.85" height="541.85" fill="white" transform="translate(-1.54688)"/>
</clipPath>
</defs>
</svg>
