<svg width="142" height="142" viewBox="0 0 142 142" fill="none" xmlns="http://www.w3.org/2000/svg">
<g clip-path="url(#clip0_1429_8516)">
<rect width="142" height="142" fill="#618BFF"/>
<g clip-path="url(#clip1_1429_8516)">
<path d="M27.1602 12.0273L27.1602 27.5272" stroke="black" stroke-width="1.09231" stroke-miterlimit="10"/>
<path d="M27.1602 30.8809L27.1602 46.3807" stroke="black" stroke-width="1.09231" stroke-miterlimit="10"/>
<path d="M44.3416 29.1992L28.8418 29.1992" stroke="black" stroke-width="1.09231" stroke-miterlimit="10"/>
<path d="M25.4881 29.1992L9.98828 29.1992" stroke="black" stroke-width="1.09231" stroke-miterlimit="10"/>
<path d="M71.2012 12.0273L71.2012 27.5272" stroke="black" stroke-width="1.09231" stroke-miterlimit="10"/>
<path d="M71.2012 30.8809L71.2012 46.3807" stroke="black" stroke-width="1.09231" stroke-miterlimit="10"/>
<path d="M88.3827 29.1992L72.8828 29.1992" stroke="black" stroke-width="1.09231" stroke-miterlimit="10"/>
<path d="M69.5194 29.1992L54.0195 29.1992" stroke="black" stroke-width="1.09231" stroke-miterlimit="10"/>
<path d="M115.242 12.0273L115.242 27.5272" stroke="black" stroke-width="1.09231" stroke-miterlimit="10"/>
<path d="M115.242 30.8809L115.242 46.3807" stroke="black" stroke-width="1.09231" stroke-miterlimit="10"/>
<path d="M132.424 29.1992L116.924 29.1992" stroke="black" stroke-width="1.09231" stroke-miterlimit="10"/>
<path d="M113.56 29.1992L98.0605 29.1992" stroke="black" stroke-width="1.09231" stroke-miterlimit="10"/>
<path d="M27.1602 55.9023L27.1602 71.4022" stroke="black" stroke-width="1.09231" stroke-miterlimit="10"/>
<path d="M27.1602 74.7559L27.1602 90.2557" stroke="black" stroke-width="1.09231" stroke-miterlimit="10"/>
<path d="M44.3416 73.084L28.8418 73.084" stroke="black" stroke-width="1.09231" stroke-miterlimit="10"/>
<path d="M25.4881 73.084L9.98828 73.084" stroke="black" stroke-width="1.09231" stroke-miterlimit="10"/>
<path d="M71.2012 55.9023L71.2012 71.4022" stroke="black" stroke-width="1.09231" stroke-miterlimit="10"/>
<path d="M71.2012 74.7559L71.2012 90.2557" stroke="black" stroke-width="1.09231" stroke-miterlimit="10"/>
<path d="M88.3827 73.084L72.8828 73.084" stroke="black" stroke-width="1.09231" stroke-miterlimit="10"/>
<path d="M69.5194 73.084L54.0195 73.084" stroke="black" stroke-width="1.09231" stroke-miterlimit="10"/>
<path d="M115.242 55.9023L115.242 71.4022" stroke="black" stroke-width="1.09231" stroke-miterlimit="10"/>
<path d="M115.242 74.7559L115.242 90.2557" stroke="black" stroke-width="1.09231" stroke-miterlimit="10"/>
<path d="M132.424 73.084L116.924 73.084" stroke="black" stroke-width="1.09231" stroke-miterlimit="10"/>
<path d="M113.56 73.084L98.0605 73.084" stroke="black" stroke-width="1.09231" stroke-miterlimit="10"/>
<path d="M27.1602 99.7832L27.1602 115.283" stroke="black" stroke-width="1.09231" stroke-miterlimit="10"/>
<path d="M27.1602 118.637L27.1602 134.137" stroke="black" stroke-width="1.09231" stroke-miterlimit="10"/>
<path d="M44.3416 116.965L28.8418 116.965" stroke="black" stroke-width="1.09231" stroke-miterlimit="10"/>
<path d="M25.4881 116.965L9.98828 116.965" stroke="black" stroke-width="1.09231" stroke-miterlimit="10"/>
<path d="M71.2012 99.7832L71.2012 115.283" stroke="black" stroke-width="1.09231" stroke-miterlimit="10"/>
<path d="M71.2012 118.637L71.2012 134.137" stroke="black" stroke-width="1.09231" stroke-miterlimit="10"/>
<path d="M88.3827 116.965L72.8828 116.965" stroke="black" stroke-width="1.09231" stroke-miterlimit="10"/>
<path d="M69.5194 116.965L54.0195 116.965" stroke="black" stroke-width="1.09231" stroke-miterlimit="10"/>
<path d="M115.242 99.7832L115.242 115.283" stroke="black" stroke-width="1.09231" stroke-miterlimit="10"/>
<path d="M115.242 118.637L115.242 134.137" stroke="black" stroke-width="1.09231" stroke-miterlimit="10"/>
<path d="M132.424 116.965L116.924 116.965" stroke="black" stroke-width="1.09231" stroke-miterlimit="10"/>
<path d="M113.56 116.965L98.0605 116.965" stroke="black" stroke-width="1.09231" stroke-miterlimit="10"/>
</g>
<path d="M89.607 104.611C89.607 94.4889 81.4013 86.2832 71.2791 86.2832C61.1569 86.2832 52.9512 94.4889 52.9512 104.611V193.671C52.9512 203.793 61.1569 211.999 71.2791 211.999C81.4013 211.999 89.607 203.793 89.607 193.671V104.611Z" fill="white" stroke="black" stroke-width="1.35762" stroke-miterlimit="10"/>
<path d="M89.607 101.558C89.607 91.4362 81.4013 83.2305 71.2791 83.2305C61.1569 83.2305 52.9512 91.4362 52.9512 101.558V127.761C52.9512 137.883 61.1569 146.088 71.2791 146.088C81.4013 146.088 89.607 137.883 89.607 127.761V101.558Z" fill="#F7476C" stroke="black" stroke-width="1.35762" stroke-miterlimit="10"/>
<path d="M89.607 95.0545C89.607 84.9323 81.4013 76.7266 71.2791 76.7266C61.1569 76.7266 52.9512 84.9323 52.9512 95.0545V121.257C52.9512 131.379 61.1569 139.585 71.2791 139.585C81.4013 139.585 89.607 131.379 89.607 121.257V95.0545Z" fill="white" stroke="black" stroke-width="1.35762" stroke-miterlimit="10"/>
<path d="M117.588 40.7629C116.665 36.1198 112.727 32.5086 108.03 31.9927C102.762 31.4225 98.1601 34.5586 96.4631 39.1066L89.9193 55.2216C89.6614 55.7782 89.2677 56.267 88.7925 56.6471C88.1137 57.1902 87.2448 57.516 86.2945 57.516C84.1087 57.516 82.3302 55.5067 82.3302 53.3209V43.3696C82.3302 37.491 77.8908 32.3592 72.0259 31.9791C65.5907 31.5582 60.2552 36.6493 60.2552 42.9894V53.3888C60.2552 55.3166 58.9519 57.0815 57.0648 57.4481C54.5261 57.9369 52.2996 55.9954 52.2996 53.5381V43.3696C52.2996 37.491 47.8601 32.3592 41.9952 31.9791C35.56 31.5582 30.2246 36.6493 30.2246 42.9894V79.591C30.2246 101.978 47.7787 120.903 70.1523 121.514C93.3677 122.152 112.388 103.526 112.388 80.4463V63.9375C112.388 59.7153 113.27 55.5339 114.981 51.6646L116.719 47.7411C117.71 45.6911 118.104 43.3017 117.601 40.7629H117.588Z" fill="#FFFF45" stroke="black" stroke-width="1.35762" stroke-miterlimit="10"/>
<path d="M67.9807 91.3477C71.3323 91.3477 74.0493 86.6309 74.0493 80.8125C74.0493 74.9941 71.3323 70.2773 67.9807 70.2773C64.6291 70.2773 61.9121 74.9941 61.9121 80.8125C61.9121 86.6309 64.6291 91.3477 67.9807 91.3477Z" fill="white"/>
<mask id="mask0_1429_8516" style="mask-type:luminance" maskUnits="userSpaceOnUse" x="61" y="70" width="14" height="22">
<path d="M67.9807 91.3477C71.3323 91.3477 74.0493 86.6309 74.0493 80.8125C74.0493 74.9941 71.3323 70.2773 67.9807 70.2773C64.6291 70.2773 61.9121 74.9941 61.9121 80.8125C61.9121 86.6309 64.6291 91.3477 67.9807 91.3477Z" fill="white"/>
</mask>
<g mask="url(#mask0_1429_8516)">
<path d="M64.6007 84.5451C66.6626 84.5451 68.3341 82.8735 68.3341 80.8116C68.3341 78.7497 66.6626 77.0781 64.6007 77.0781C62.5387 77.0781 60.8672 78.7497 60.8672 80.8116C60.8672 82.8735 62.5387 84.5451 64.6007 84.5451Z" fill="black" stroke="black" stroke-width="1.35762" stroke-miterlimit="10"/>
</g>
<path d="M67.9807 91.3477C71.3323 91.3477 74.0493 86.6309 74.0493 80.8125C74.0493 74.9941 71.3323 70.2773 67.9807 70.2773C64.6291 70.2773 61.9121 74.9941 61.9121 80.8125C61.9121 86.6309 64.6291 91.3477 67.9807 91.3477Z" stroke="black" stroke-width="1.35762" stroke-miterlimit="10"/>
<path d="M55.8303 91.3477C59.1819 91.3477 61.8989 86.6309 61.8989 80.8125C61.8989 74.9941 59.1819 70.2773 55.8303 70.2773C52.4787 70.2773 49.7617 74.9941 49.7617 80.8125C49.7617 86.6309 52.4787 91.3477 55.8303 91.3477Z" fill="white"/>
<mask id="mask1_1429_8516" style="mask-type:luminance" maskUnits="userSpaceOnUse" x="49" y="70" width="13" height="22">
<path d="M55.8303 91.3477C59.1819 91.3477 61.8989 86.6309 61.8989 80.8125C61.8989 74.9941 59.1819 70.2773 55.8303 70.2773C52.4787 70.2773 49.7617 74.9941 49.7617 80.8125C49.7617 86.6309 52.4787 91.3477 55.8303 91.3477Z" fill="white"/>
</mask>
<g mask="url(#mask1_1429_8516)">
<path d="M52.4639 84.5451C54.5259 84.5451 56.1974 82.8735 56.1974 80.8116C56.1974 78.7497 54.5259 77.0781 52.4639 77.0781C50.402 77.0781 48.7305 78.7497 48.7305 80.8116C48.7305 82.8735 50.402 84.5451 52.4639 84.5451Z" fill="black" stroke="black" stroke-width="1.35762" stroke-miterlimit="10"/>
</g>
<path d="M55.8303 91.3477C59.1819 91.3477 61.8989 86.6309 61.8989 80.8125C61.8989 74.9941 59.1819 70.2773 55.8303 70.2773C52.4787 70.2773 49.7617 74.9941 49.7617 80.8125C49.7617 86.6309 52.4787 91.3477 55.8303 91.3477Z" stroke="black" stroke-width="1.35762" stroke-miterlimit="10"/>
<path d="M71.4436 97.2539C71.4436 101.001 68.4025 104.028 64.6691 104.028C60.9356 104.028 57.8945 100.987 57.8945 97.2539" stroke="black" stroke-width="1.35762" stroke-miterlimit="10"/>
</g>
<defs>
<clipPath id="clip0_1429_8516">
<rect width="142" height="142" fill="white"/>
</clipPath>
<clipPath id="clip1_1429_8516">
<rect width="541.85" height="541.85" fill="white" transform="translate(-1.54688)"/>
</clipPath>
</defs>
</svg>
