<svg width="142" height="142" viewBox="0 0 142 142" fill="none" xmlns="http://www.w3.org/2000/svg">
<g clip-path="url(#clip0_1429_11703)">
<rect width="142" height="142" fill="#B576FF"/>
<g clip-path="url(#clip1_1429_11703)">
<path d="M27.1602 12.0273L27.1602 27.5272" stroke="black" stroke-width="1.09231" stroke-miterlimit="10"/>
<path d="M27.1602 30.8809L27.1602 46.3807" stroke="black" stroke-width="1.09231" stroke-miterlimit="10"/>
<path d="M44.3416 29.1992L28.8418 29.1992" stroke="black" stroke-width="1.09231" stroke-miterlimit="10"/>
<path d="M25.4881 29.1992L9.98828 29.1992" stroke="black" stroke-width="1.09231" stroke-miterlimit="10"/>
<path d="M71.2012 12.0273L71.2012 27.5272" stroke="black" stroke-width="1.09231" stroke-miterlimit="10"/>
<path d="M71.2012 30.8809L71.2012 46.3807" stroke="black" stroke-width="1.09231" stroke-miterlimit="10"/>
<path d="M88.3827 29.1992L72.8828 29.1992" stroke="black" stroke-width="1.09231" stroke-miterlimit="10"/>
<path d="M69.5194 29.1992L54.0195 29.1992" stroke="black" stroke-width="1.09231" stroke-miterlimit="10"/>
<path d="M115.242 12.0273L115.242 27.5272" stroke="black" stroke-width="1.09231" stroke-miterlimit="10"/>
<path d="M115.242 30.8809L115.242 46.3807" stroke="black" stroke-width="1.09231" stroke-miterlimit="10"/>
<path d="M132.424 29.1992L116.924 29.1992" stroke="black" stroke-width="1.09231" stroke-miterlimit="10"/>
<path d="M113.56 29.1992L98.0605 29.1992" stroke="black" stroke-width="1.09231" stroke-miterlimit="10"/>
<path d="M27.1602 55.9023L27.1602 71.4022" stroke="black" stroke-width="1.09231" stroke-miterlimit="10"/>
<path d="M27.1602 74.7559L27.1602 90.2557" stroke="black" stroke-width="1.09231" stroke-miterlimit="10"/>
<path d="M44.3416 73.084L28.8418 73.084" stroke="black" stroke-width="1.09231" stroke-miterlimit="10"/>
<path d="M25.4881 73.084L9.98828 73.084" stroke="black" stroke-width="1.09231" stroke-miterlimit="10"/>
<path d="M71.2012 55.9023L71.2012 71.4022" stroke="black" stroke-width="1.09231" stroke-miterlimit="10"/>
<path d="M71.2012 74.7559L71.2012 90.2557" stroke="black" stroke-width="1.09231" stroke-miterlimit="10"/>
<path d="M88.3827 73.084L72.8828 73.084" stroke="black" stroke-width="1.09231" stroke-miterlimit="10"/>
<path d="M69.5194 73.084L54.0195 73.084" stroke="black" stroke-width="1.09231" stroke-miterlimit="10"/>
<path d="M115.242 55.9023L115.242 71.4022" stroke="black" stroke-width="1.09231" stroke-miterlimit="10"/>
<path d="M115.242 74.7559L115.242 90.2557" stroke="black" stroke-width="1.09231" stroke-miterlimit="10"/>
<path d="M132.424 73.084L116.924 73.084" stroke="black" stroke-width="1.09231" stroke-miterlimit="10"/>
<path d="M113.56 73.084L98.0605 73.084" stroke="black" stroke-width="1.09231" stroke-miterlimit="10"/>
<path d="M27.1602 99.7832L27.1602 115.283" stroke="black" stroke-width="1.09231" stroke-miterlimit="10"/>
<path d="M27.1602 118.637L27.1602 134.137" stroke="black" stroke-width="1.09231" stroke-miterlimit="10"/>
<path d="M44.3416 116.965L28.8418 116.965" stroke="black" stroke-width="1.09231" stroke-miterlimit="10"/>
<path d="M25.4881 116.965L9.98828 116.965" stroke="black" stroke-width="1.09231" stroke-miterlimit="10"/>
<path d="M71.2012 99.7832L71.2012 115.283" stroke="black" stroke-width="1.09231" stroke-miterlimit="10"/>
<path d="M71.2012 118.637L71.2012 134.137" stroke="black" stroke-width="1.09231" stroke-miterlimit="10"/>
<path d="M88.3827 116.965L72.8828 116.965" stroke="black" stroke-width="1.09231" stroke-miterlimit="10"/>
<path d="M69.5194 116.965L54.0195 116.965" stroke="black" stroke-width="1.09231" stroke-miterlimit="10"/>
<path d="M115.242 99.7832L115.242 115.283" stroke="black" stroke-width="1.09231" stroke-miterlimit="10"/>
<path d="M115.242 118.637L115.242 134.137" stroke="black" stroke-width="1.09231" stroke-miterlimit="10"/>
<path d="M132.424 116.965L116.924 116.965" stroke="black" stroke-width="1.09231" stroke-miterlimit="10"/>
<path d="M113.56 116.965L98.0605 116.965" stroke="black" stroke-width="1.09231" stroke-miterlimit="10"/>
</g>
<path d="M85.6485 118.095C86.3917 119.652 88.2496 120.315 89.8063 119.582C91.363 118.838 92.0258 116.981 91.2926 115.424L87.1951 109.127L77.7246 113.626L80.0144 120.787C80.7576 122.343 82.6155 123.006 84.1722 122.273C85.7289 121.54 86.3917 119.672 85.6586 118.115" fill="#FFFF45"/>
<path d="M85.6485 118.095C86.3917 119.652 88.2496 120.315 89.8063 119.582C91.363 118.838 92.0258 116.981 91.2926 115.424L87.1951 109.127L77.7246 113.626L80.0144 120.787C80.7576 122.343 82.6155 123.006 84.1722 122.273C85.7289 121.54 86.3917 119.672 85.6586 118.115" stroke="black" stroke-width="1.00429" stroke-miterlimit="10"/>
<path d="M56.3841 118.095C55.6409 119.652 53.783 120.315 52.2263 119.582C50.6697 118.838 50.0068 116.981 50.74 115.424L54.8375 109.127L64.308 113.626L62.0182 120.787C61.275 122.343 59.4171 123.006 57.8604 122.273C56.3038 121.54 55.641 119.672 56.3741 118.115" fill="#FFFF45"/>
<path d="M56.3841 118.095C55.6409 119.652 53.783 120.315 52.2263 119.582C50.6697 118.838 50.0068 116.981 50.74 115.424L54.8375 109.127L64.308 113.626L62.0182 120.787C61.275 122.343 59.4171 123.006 57.8604 122.273C56.3038 121.54 55.641 119.672 56.3741 118.115" stroke="black" stroke-width="1.00429" stroke-miterlimit="10"/>
<path d="M71.0771 117.162C87.1511 117.162 100.182 104.132 100.182 88.0576C100.182 71.9837 87.1511 58.9531 71.0771 58.9531C55.0031 58.9531 41.9727 71.9837 41.9727 88.0576C41.9727 104.132 55.0031 117.162 71.0771 117.162Z" fill="white" stroke="black" stroke-width="1.00429" stroke-miterlimit="10"/>
<path d="M71.0762 49.081L69.64 47.3033C67.2297 44.3608 64.7391 41.5286 62.8108 39.3794C57.2269 33.1528 52.4666 28.3221 47.7866 24.2447C42.9961 20.0166 35.4137 14.3926 25.2201 14.3926C15.0265 14.3926 6.5 22.8789 6.5 33.1127C6.5 39.9017 10.0351 45.7969 15.3981 49.0709C10.0351 52.355 6.5 58.2401 6.5 65.0291C6.5 75.2528 14.8758 83.7492 25.2201 83.7492C35.5643 83.7492 42.9961 78.1251 47.7866 73.8971C52.4666 69.8196 57.2169 64.989 62.8108 58.7623C64.7391 56.6131 67.2297 53.7811 69.64 50.8385L71.0762 49.0609" fill="#FF61CF"/>
<path d="M71.0762 49.081L69.64 47.3033C67.2297 44.3608 64.7391 41.5286 62.8108 39.3794C57.2269 33.1528 52.4666 28.3221 47.7866 24.2447C42.9961 20.0166 35.4137 14.3926 25.2201 14.3926C15.0265 14.3926 6.5 22.8789 6.5 33.1127C6.5 39.9017 10.0351 45.7969 15.3981 49.0709C10.0351 52.355 6.5 58.2401 6.5 65.0291C6.5 75.2528 14.8758 83.7492 25.2201 83.7492C35.5643 83.7492 42.9961 78.1251 47.7866 73.8971C52.4666 69.8196 57.2169 64.989 62.8108 58.7623C64.7391 56.6131 67.2297 53.7811 69.64 50.8385L71.0762 49.0609" stroke="black" stroke-width="1.00429" stroke-miterlimit="10"/>
<path d="M71.0664 49.0804L72.5025 50.858C74.9128 53.8005 77.4035 56.6327 79.3317 58.7819C84.9156 65.0085 89.676 69.8391 94.356 73.9166C99.1465 78.1447 106.729 83.7687 116.923 83.7687C127.267 83.7687 135.643 75.2824 135.643 65.0486C135.643 58.2596 132.107 52.3644 126.745 49.0904C132.107 45.8063 135.643 39.9212 135.643 33.1322C135.643 22.9085 127.267 14.4121 116.923 14.4121C106.729 14.4121 99.1465 20.0362 94.356 24.2642C89.676 28.3417 84.9257 33.1723 79.3317 39.399C77.4035 41.5482 74.9128 44.3803 72.5025 47.3229L71.0664 49.1004" fill="#FF61CF"/>
<path d="M71.0664 49.0804L72.5025 50.858C74.9128 53.8005 77.4035 56.6327 79.3317 58.7819C84.9156 65.0085 89.676 69.8392 94.356 73.9166C99.1465 78.1447 106.729 83.7687 116.923 83.7687C127.267 83.7687 135.643 75.2824 135.643 65.0486C135.643 58.2596 132.107 52.3644 126.745 49.0904C132.107 45.8063 135.643 39.9212 135.643 33.1322C135.643 22.9085 127.267 14.4121 116.923 14.4121C106.729 14.4121 99.1465 20.0362 94.356 24.2642C89.676 28.3417 84.9257 33.1723 79.3317 39.399C77.4035 41.5482 74.9128 44.3803 72.5025 47.3229L71.0664 49.1004" stroke="black" stroke-width="1.00429" stroke-miterlimit="10"/>
<path d="M70.5553 91.2626C73.1843 91.2626 75.3156 87.5665 75.3156 83.0072C75.3156 78.4479 73.1843 74.752 70.5553 74.752C67.9262 74.752 65.7949 78.4479 65.7949 83.0072C65.7949 87.5665 67.9262 91.2626 70.5553 91.2626Z" fill="white"/>
<mask id="mask0_1429_11703" style="mask-type:luminance" maskUnits="userSpaceOnUse" x="65" y="74" width="11" height="18">
<path d="M70.5553 91.2626C73.1843 91.2626 75.3156 87.5665 75.3156 83.0072C75.3156 78.4479 73.1843 74.752 70.5553 74.752C67.9262 74.752 65.7949 78.4479 65.7949 83.0072C65.7949 87.5665 67.9262 91.2626 70.5553 91.2626Z" fill="white"/>
</mask>
<g mask="url(#mask0_1429_11703)">
<path d="M67.9032 85.9393C69.5228 85.9393 70.8358 84.6263 70.8358 83.0067C70.8358 81.3871 69.5228 80.0742 67.9032 80.0742C66.2836 80.0742 64.9707 81.3871 64.9707 83.0067C64.9707 84.6263 66.2836 85.9393 67.9032 85.9393Z" fill="black" stroke="black" stroke-width="1.00429" stroke-miterlimit="10"/>
</g>
<path d="M70.5553 91.2626C73.1843 91.2626 75.3156 87.5665 75.3156 83.0072C75.3156 78.4479 73.1843 74.752 70.5553 74.752C67.9262 74.752 65.7949 78.4479 65.7949 83.0072C65.7949 87.5665 67.9262 91.2626 70.5553 91.2626Z" stroke="black" stroke-width="1.00429" stroke-miterlimit="10"/>
<path d="M61.0338 91.2626C63.6629 91.2626 65.7942 87.5665 65.7942 83.0072C65.7942 78.4479 63.6629 74.752 61.0338 74.752C58.4047 74.752 56.2734 78.4479 56.2734 83.0072C56.2734 87.5665 58.4047 91.2626 61.0338 91.2626Z" fill="white"/>
<mask id="mask1_1429_11703" style="mask-type:luminance" maskUnits="userSpaceOnUse" x="56" y="74" width="10" height="18">
<path d="M61.0338 91.2626C63.6629 91.2626 65.7942 87.5665 65.7942 83.0072C65.7942 78.4479 63.6629 74.752 61.0338 74.752C58.4047 74.752 56.2734 78.4479 56.2734 83.0072C56.2734 87.5665 58.4047 91.2626 61.0338 91.2626Z" fill="white"/>
</mask>
<g mask="url(#mask1_1429_11703)">
<path d="M58.3935 85.9393C60.0131 85.9393 61.326 84.6263 61.326 83.0067C61.326 81.3871 60.0131 80.0742 58.3935 80.0742C56.7739 80.0742 55.4609 81.3871 55.4609 83.0067C55.4609 84.6263 56.7739 85.9393 58.3935 85.9393Z" fill="black" stroke="black" stroke-width="1.00429" stroke-miterlimit="10"/>
</g>
<path d="M61.0338 91.2626C63.6629 91.2626 65.7942 87.5665 65.7942 83.0072C65.7942 78.4479 63.6629 74.752 61.0338 74.752C58.4047 74.752 56.2734 78.4479 56.2734 83.0072C56.2734 87.5665 58.4047 91.2626 61.0338 91.2626Z" stroke="black" stroke-width="1.00429" stroke-miterlimit="10"/>
<path d="M54.8677 94.7354C56.7924 94.7354 58.3526 93.1752 58.3526 91.2506C58.3526 89.3259 56.7924 87.7656 54.8677 87.7656C52.9431 87.7656 51.3828 89.3259 51.3828 91.2506C51.3828 93.1752 52.9431 94.7354 54.8677 94.7354Z" fill="black" stroke="black" stroke-width="1.00429" stroke-miterlimit="10"/>
<path d="M77.0025 94.7354C78.9271 94.7354 80.4874 93.1752 80.4874 91.2506C80.4874 89.3259 78.9271 87.7656 77.0025 87.7656C75.0778 87.7656 73.5176 89.3259 73.5176 91.2506C73.5176 93.1752 75.0778 94.7354 77.0025 94.7354Z" fill="black" stroke="black" stroke-width="1.00429" stroke-miterlimit="10"/>
<path d="M71.447 96.8965C71.447 98.7143 69.9807 100.18 68.1629 100.18C66.3452 100.18 64.8789 98.7143 64.8789 96.8965" stroke="black" stroke-width="1.00429" stroke-miterlimit="10"/>
<path d="M68.133 75.9156C67.4099 77.1107 65.8632 77.4923 64.6782 76.7692C63.4931 76.0461 63.1014 74.4995 63.8245 73.3145" stroke="black" stroke-width="1.00429" stroke-miterlimit="10"/>
<path d="M58.6134 75.9156C57.8903 77.1107 56.3437 77.4923 55.1586 76.7692C53.9736 76.0461 53.5819 74.4995 54.305 73.3145" stroke="black" stroke-width="1.00429" stroke-miterlimit="10"/>
<path d="M41.9727 41.1367C41.9727 41.1367 50.2079 42.4524 61.0944 49.0707" stroke="black" stroke-width="1.00429" stroke-miterlimit="10"/>
<path d="M100.241 41.1367C100.241 41.1367 92.0057 42.4524 81.1191 49.0707" stroke="black" stroke-width="1.00429" stroke-miterlimit="10"/>
<path d="M100.241 57.014C100.241 57.014 92.0057 55.6984 81.1191 49.0801" stroke="black" stroke-width="1.00429" stroke-miterlimit="10"/>
<path d="M41.9727 57.014C41.9727 57.014 50.2079 55.6984 61.0944 49.0801" stroke="black" stroke-width="1.00429" stroke-miterlimit="10"/>
<path d="M71.1374 68.4134C81.8145 68.4134 90.47 59.7579 90.47 49.0807C90.47 38.4036 81.8145 29.748 71.1374 29.748C60.4602 29.748 51.8047 38.4036 51.8047 49.0807C51.8047 59.7579 60.4602 68.4134 71.1374 68.4134Z" fill="#FF61CF" stroke="black" stroke-width="1.00429" stroke-miterlimit="10"/>
<path d="M79.8334 103.604C78.6684 102.338 78.7488 100.36 80.0142 99.1947C81.2796 98.0298 83.258 98.1101 84.423 99.3755" stroke="black" stroke-width="1.00429" stroke-miterlimit="10"/>
<path d="M84.433 99.377C83.268 98.1116 83.3484 96.1331 84.6138 94.9681C85.8792 93.8032 87.8576 93.8836 89.0226 95.149" stroke="black" stroke-width="1.00429" stroke-miterlimit="10"/>
<path d="M52.0349 103.604C53.1999 102.338 53.1196 100.36 51.8542 99.1947C50.5888 98.0298 48.6103 98.1101 47.4453 99.3755" stroke="black" stroke-width="1.00429" stroke-miterlimit="10"/>
<path d="M47.4353 99.377C48.6003 98.1116 48.52 96.1331 47.2545 94.9681C45.9891 93.8032 44.0107 93.8836 42.8457 95.149" stroke="black" stroke-width="1.00429" stroke-miterlimit="10"/>
</g>
<defs>
<clipPath id="clip0_1429_11703">
<rect width="142" height="142" fill="white"/>
</clipPath>
<clipPath id="clip1_1429_11703">
<rect width="541.85" height="541.85" fill="white" transform="translate(-1.54688)"/>
</clipPath>
</defs>
</svg>
