<svg width="19" height="22" viewBox="0 0 19 22" fill="none" xmlns="http://www.w3.org/2000/svg">
<path d="M15.8628 14.815C17.2396 13.3562 18.092 11.4082 18.092 9.25709C18.092 4.75171 14.3923 1.0957 9.82166 1.0957C5.25098 1.0957 1.54199 4.75171 1.54199 9.25709C1.54199 11.4082 2.39431 13.3562 3.77113 14.815L3.91163 14.9627C3.94909 14.9996 3.98655 15.0365 4.02402 15.0735L9.81229 20.779L15.6006 15.0735C15.6006 15.0735 15.6755 14.9996 15.713 14.9627L15.8535 14.8242L15.8628 14.815Z" fill="white" stroke="#767676" stroke-width="1.3" stroke-linecap="round" stroke-linejoin="round"/>
<path d="M9.82152 12.1463C11.5699 12.1463 12.9873 10.7492 12.9873 9.0258C12.9873 7.30238 11.5699 5.90527 9.82152 5.90527C8.07312 5.90527 6.65576 7.30238 6.65576 9.0258C6.65576 10.7492 8.07312 12.1463 9.82152 12.1463Z" fill="white" stroke="#767676" stroke-width="1.3" stroke-linecap="round" stroke-linejoin="round"/>
</svg>
